<svg width="60" height="84" viewBox="0 0 60 84" fill="none" xmlns="http://www.w3.org/2000/svg">
<path fill-rule="evenodd" clip-rule="evenodd" d="M7.08301 10.75C6.53047 10.75 6.00057 10.9695 5.60987 11.3602C5.21917 11.7509 4.99967 12.2808 4.99967 12.8334V77.4167C4.99967 77.9692 5.21917 78.4992 5.60987 78.8899C6.00057 79.2806 6.53047 79.5 7.08301 79.5H52.9163C53.4689 79.5 53.9988 79.2806 54.3895 78.8899C54.7802 78.4992 54.9997 77.9692 54.9997 77.4167V12.8334C54.9997 12.2808 54.7802 11.7509 54.3895 11.3602C53.9988 10.9695 53.4689 10.75 52.9163 10.75H41.2851V6.58337H52.9163C54.5739 6.58337 56.1637 7.24185 57.3358 8.41396C58.5079 9.58606 59.1663 11.1758 59.1663 12.8334V77.4167C59.1663 79.0743 58.5079 80.664 57.3358 81.8361C56.1637 83.0082 54.5739 83.6667 52.9163 83.6667H7.08301C5.4254 83.6667 3.83569 83.0082 2.66359 81.8361C1.49149 80.664 0.833008 79.0743 0.833008 77.4167V12.8334C0.833008 11.1758 1.49149 9.58606 2.66359 8.41396C3.83569 7.24185 5.4254 6.58337 7.08301 6.58337H18.7143V10.75H7.08301Z" fill="#095073"/>
<path fill-rule="evenodd" clip-rule="evenodd" d="M15.4167 6.58337C15.4167 4.92577 16.0751 3.33606 17.2472 2.16396C18.4194 0.991854 20.0091 0.333374 21.6667 0.333374H38.3333C39.9909 0.333374 41.5806 0.991854 42.7528 2.16396C43.9249 3.33606 44.5833 4.92577 44.5833 6.58337V10.75C44.5833 12.4076 43.9249 13.9974 42.7528 15.1695C41.5806 16.3416 39.9909 17 38.3333 17H21.6667C20.0091 17 18.4194 16.3416 17.2472 15.1695C16.0751 13.9974 15.4167 12.4076 15.4167 10.75V6.58337ZM21.6667 4.50004C21.1141 4.50004 20.5842 4.71953 20.1935 5.11024C19.8028 5.50094 19.5833 6.03084 19.5833 6.58337V10.75C19.5833 11.3026 19.8028 11.8325 20.1935 12.2232C20.5842 12.6139 21.1141 12.8334 21.6667 12.8334H38.3333C38.8859 12.8334 39.4158 12.6139 39.8065 12.2232C40.1972 11.8325 40.4167 11.3026 40.4167 10.75V6.58337C40.4167 6.03084 40.1972 5.50094 39.8065 5.11024C39.4158 4.71953 38.8859 4.50004 38.3333 4.50004H21.6667ZM11.25 35.75C11.25 35.1975 11.4695 34.6676 11.8602 34.2769C12.2509 33.8862 12.7808 33.6667 13.3333 33.6667H27.9167C28.4692 33.6667 28.9991 33.8862 29.3898 34.2769C29.7805 34.6676 30 35.1975 30 35.75C30 36.3026 29.7805 36.8325 29.3898 37.2232C28.9991 37.6139 28.4692 37.8334 27.9167 37.8334H13.3333C12.7808 37.8334 12.2509 37.6139 11.8602 37.2232C11.4695 36.8325 11.25 36.3026 11.25 35.75ZM11.25 25.3334C11.25 24.7808 11.4695 24.2509 11.8602 23.8602C12.2509 23.4695 12.7808 23.25 13.3333 23.25H45.625C46.1775 23.25 46.7074 23.4695 47.0981 23.8602C47.4888 24.2509 47.7083 24.7808 47.7083 25.3334C47.7083 25.8859 47.4888 26.4158 47.0981 26.8065C46.7074 27.1972 46.1775 27.4167 45.625 27.4167H13.3333C12.7808 27.4167 12.2509 27.1972 11.8602 26.8065C11.4695 26.4158 11.25 25.8859 11.25 25.3334ZM15.4167 52.4167V56.5834H19.5833V52.4167H15.4167ZM13.3333 48.25C12.7808 48.25 12.2509 48.4695 11.8602 48.8602C11.4695 49.2509 11.25 49.7808 11.25 50.3334V58.6667C11.25 59.2192 11.4695 59.7491 11.8602 60.1398C12.2509 60.5305 12.7808 60.75 13.3333 60.75H21.6667C22.2192 60.75 22.7491 60.5305 23.1398 60.1398C23.5305 59.7491 23.75 59.2192 23.75 58.6667V50.3334C23.75 49.7808 23.5305 49.2509 23.1398 48.8602C22.7491 48.4695 22.2192 48.25 21.6667 48.25H13.3333ZM38.3333 52.4167C38.6145 52.4296 38.8953 52.3853 39.1589 52.2867C39.4224 52.188 39.6633 52.037 39.8669 51.8427C40.0705 51.6484 40.2326 51.4149 40.3434 51.1562C40.4543 50.8975 40.5116 50.6191 40.5119 50.3376C40.5122 50.0562 40.4554 49.7776 40.3451 49.5187C40.2347 49.2598 40.0731 49.026 39.8699 48.8313C39.6667 48.6366 39.4261 48.4851 39.1628 48.3859C38.8994 48.2867 38.6187 48.2419 38.3375 48.2542C37.8016 48.2776 37.2954 48.5069 36.9243 48.8942C36.5532 49.2815 36.3457 49.7971 36.3452 50.3335C36.3447 50.8699 36.5511 51.3858 36.9214 51.7739C37.2917 52.1619 37.7975 52.3922 38.3333 52.4167ZM38.3333 56.5834C39.9909 56.5834 41.5806 55.9249 42.7528 54.7528C43.9249 53.5807 44.5833 51.991 44.5833 50.3334C44.5833 48.6758 43.9249 47.0861 42.7528 45.914C41.5806 44.7419 39.9909 44.0834 38.3333 44.0834C36.6757 44.0834 35.086 44.7419 33.9139 45.914C32.7418 47.0861 32.0833 48.6758 32.0833 50.3334C32.0833 51.991 32.7418 53.5807 33.9139 54.7528C35.086 55.9249 36.6757 56.5834 38.3333 56.5834ZM30 65.5C30.0364 65.4574 30.0746 65.4164 30.1146 65.3771C30.4562 65.0438 31.1146 64.6021 32.1479 64.1625C34.2312 63.2771 36.8021 62.8334 38.3333 62.8334C39.8646 62.8334 42.4354 63.2771 44.5187 64.1625C45.5521 64.6 46.2104 65.0438 46.5521 65.3771C46.592 65.4157 46.6302 65.456 46.6667 65.498V69.0834H30V65.5ZM38.3333 58.6667C34.1604 58.6667 25.8333 60.8875 25.8333 65.2959V73.25H50.8333V65.2959C50.8333 60.8875 42.5062 58.6667 38.3333 58.6667Z" fill="#095073"/>
</svg>
