<svg width="100" height="100" viewBox="0 0 100 100" fill="none" xmlns="http://www.w3.org/2000/svg">
<g clip-path="url(#clip0_535_1660)">
<path fill-rule="evenodd" clip-rule="evenodd" d="M92.2687 0.468748C92.7214 0.748713 93.0951 1.13966 93.3543 1.60452C93.6135 2.06938 93.7497 2.59274 93.75 3.125V96.875C93.75 97.7038 93.4208 98.4987 92.8347 99.0847C92.2487 99.6708 91.4538 100 90.625 100H71.875C71.0462 100 70.2513 99.6708 69.6653 99.0847C69.0792 98.4987 68.75 97.7038 68.75 96.875V87.5H62.5V96.875C62.5 97.7038 62.1708 98.4987 61.5847 99.0847C60.9987 99.6708 60.2038 100 59.375 100H3.125C2.2962 100 1.50134 99.6708 0.915291 99.0847C0.32924 98.4987 0 97.7038 0 96.875V62.5C0.000497792 61.8444 0.207176 61.2056 0.590781 60.6739C0.974386 60.1422 1.51549 59.7447 2.1375 59.5375L37.5 47.75V28.125C37.5 27.5451 37.6614 26.9767 37.966 26.4833C38.2707 25.9899 38.7066 25.591 39.225 25.3312L89.225 0.331248C89.7019 0.0925341 90.232 -0.0201514 90.7648 0.00391667C91.2975 0.0279847 91.8153 0.188005 92.2687 0.468748ZM37.5 54.3375L6.25 64.75V93.75H37.5V54.3375ZM43.75 93.75H56.25V84.375C56.25 83.5462 56.5792 82.7513 57.1653 82.1653C57.7513 81.5792 58.5462 81.25 59.375 81.25H71.875C72.7038 81.25 73.4987 81.5792 74.0847 82.1653C74.6708 82.7513 75 83.5462 75 84.375V93.75H87.5V8.18125L43.75 30.0562V93.75Z" fill="#00569E"/>
<path d="M12.5 68.75H18.75V75H12.5V68.75ZM25 68.75H31.25V75H25V68.75ZM12.5 81.25H18.75V87.5H12.5V81.25ZM25 81.25H31.25V87.5H25V81.25ZM50 56.25H56.25V62.5H50V56.25ZM62.5 56.25H68.75V62.5H62.5V56.25ZM50 68.75H56.25V75H50V68.75ZM62.5 68.75H68.75V75H62.5V68.75ZM75 56.25H81.25V62.5H75V56.25ZM75 68.75H81.25V75H75V68.75ZM50 43.75H56.25V50H50V43.75ZM62.5 43.75H68.75V50H62.5V43.75ZM75 43.75H81.25V50H75V43.75ZM50 31.25H56.25V37.5H50V31.25ZM62.5 31.25H68.75V37.5H62.5V31.25ZM75 31.25H81.25V37.5H75V31.25ZM75 18.75H81.25V25H75V18.75Z" fill="#00569E"/>
</g>
<defs>
<clipPath id="clip0_535_1660">
<rect width="100" height="100" fill="white"/>
</clipPath>
</defs>
</svg>
