<svg width="94" height="100" viewBox="0 0 94 100" fill="none" xmlns="http://www.w3.org/2000/svg">
<path fill-rule="evenodd" clip-rule="evenodd" d="M92.2687 0.468015C92.7214 0.74798 93.0951 1.13893 93.3543 1.60379C93.6135 2.06865 93.7497 2.59201 93.75 3.12427V96.8743C93.75 97.7031 93.4208 98.4979 92.8347 99.084C92.2487 99.67 91.4538 99.9993 90.625 99.9993H71.875C71.0462 99.9993 70.2513 99.67 69.6653 99.084C69.0792 98.4979 68.75 97.7031 68.75 96.8743V87.4993H62.5V96.8743C62.5 97.7031 62.1708 98.4979 61.5847 99.084C60.9987 99.67 60.2038 99.9993 59.375 99.9993H3.125C2.2962 99.9993 1.50134 99.67 0.915291 99.084C0.32924 98.4979 0 97.7031 0 96.8743V62.4993C0.000497792 61.8437 0.207176 61.2048 0.590781 60.6732C0.974386 60.1415 1.51549 59.7439 2.1375 59.5368L37.5 47.7493V28.1243C37.5 27.5444 37.6614 26.976 37.966 26.4826C38.2707 25.9892 38.7066 25.5903 39.225 25.3305L89.225 0.330515C89.7019 0.0918017 90.232 -0.0208838 90.7648 0.00318425C91.2975 0.0272523 91.8153 0.187273 92.2687 0.468015ZM37.5 54.3368L6.25 64.7493V93.7493H37.5V54.3368ZM43.75 93.7493H56.25V84.3743C56.25 83.5455 56.5792 82.7506 57.1653 82.1646C57.7513 81.5785 58.5462 81.2493 59.375 81.2493H71.875C72.7038 81.2493 73.4987 81.5785 74.0847 82.1646C74.6708 82.7506 75 83.5455 75 84.3743V93.7493H87.5V8.18052L43.75 30.0555V93.7493Z" fill="white"/>
<path d="M12.5 68.7493H18.75V74.9993H12.5V68.7493ZM25 68.7493H31.25V74.9993H25V68.7493ZM12.5 81.2493H18.75V87.4993H12.5V81.2493ZM25 81.2493H31.25V87.4993H25V81.2493ZM50 56.2493H56.25V62.4993H50V56.2493ZM62.5 56.2493H68.75V62.4993H62.5V56.2493ZM50 68.7493H56.25V74.9993H50V68.7493ZM62.5 68.7493H68.75V74.9993H62.5V68.7493ZM75 56.2493H81.25V62.4993H75V56.2493ZM75 68.7493H81.25V74.9993H75V68.7493ZM50 43.7493H56.25V49.9993H50V43.7493ZM62.5 43.7493H68.75V49.9993H62.5V43.7493ZM75 43.7493H81.25V49.9993H75V43.7493ZM50 31.2493H56.25V37.4993H50V31.2493ZM62.5 31.2493H68.75V37.4993H62.5V31.2493ZM75 31.2493H81.25V37.4993H75V31.2493ZM75 18.7493H81.25V24.9993H75V18.7493Z" fill="white"/>
</svg>
