<svg width="20" height="20" viewBox="0 0 20 20" fill="none" xmlns="http://www.w3.org/2000/svg">
<path d="M5.625 5C5.97018 5 6.25 4.72018 6.25 4.375C6.25 4.02982 5.97018 3.75 5.625 3.75C5.27982 3.75 5 4.02982 5 4.375C5 4.72018 5.27982 5 5.625 5Z" fill="black"/>
<path d="M16.875 13.8375V11.25C16.875 10.9185 16.7433 10.6005 16.5089 10.3661C16.2745 10.1317 15.9565 10 15.625 10H10.625V7.5H16.25C16.5815 7.5 16.8995 7.3683 17.1339 7.13388C17.3683 6.89946 17.5 6.58152 17.5 6.25V2.5C17.5 2.16848 17.3683 1.85054 17.1339 1.61612C16.8995 1.3817 16.5815 1.25 16.25 1.25H3.75001C3.41849 1.25 3.10054 1.3817 2.86612 1.61612C2.6317 1.85054 2.50001 2.16848 2.50001 2.5V6.25C2.50001 6.58152 2.6317 6.89946 2.86612 7.13388C3.10054 7.3683 3.41849 7.5 3.75001 7.5H9.37501V10H4.37501C4.04349 10 3.72554 10.1317 3.49112 10.3661C3.2567 10.6005 3.12501 10.9185 3.12501 11.25V13.8375C2.53584 13.9896 2.02239 14.3514 1.68088 14.855C1.33937 15.3586 1.19326 15.9695 1.26993 16.5731C1.3466 17.1768 1.64079 17.7317 2.09736 18.134C2.55393 18.5362 3.14152 18.7581 3.75001 18.7581C4.35849 18.7581 4.94609 18.5362 5.40265 18.134C5.85922 17.7317 6.15341 17.1768 6.23008 16.5731C6.30675 15.9695 6.16064 15.3586 5.81913 14.855C5.47762 14.3514 4.96417 13.9896 4.37501 13.8375V11.25H9.37501V13.75H7.50001V18.75H12.5V13.75H10.625V11.25H15.625V13.8375C15.0358 13.9896 14.5224 14.3514 14.1809 14.855C13.8394 15.3586 13.6933 15.9695 13.7699 16.5731C13.8466 17.1768 14.1408 17.7317 14.5974 18.134C15.0539 18.5362 15.6415 18.7581 16.25 18.7581C16.8585 18.7581 17.4461 18.5362 17.9027 18.134C18.3592 17.7317 18.6534 17.1768 18.7301 16.5731C18.8068 15.9695 18.6606 15.3586 18.3191 14.855C17.9776 14.3514 17.4642 13.9896 16.875 13.8375ZM5.00001 16.25C5.00001 16.4972 4.92669 16.7389 4.78934 16.9445C4.65199 17.15 4.45677 17.3102 4.22836 17.4049C3.99995 17.4995 3.74862 17.5242 3.50614 17.476C3.26367 17.4277 3.04094 17.3087 2.86612 17.1339C2.69131 16.9591 2.57226 16.7363 2.52402 16.4939C2.47579 16.2514 2.50055 16.0001 2.59516 15.7716C2.68977 15.5432 2.84998 15.348 3.05554 15.2107C3.2611 15.0733 3.50278 15 3.75001 15C4.08153 15 4.39947 15.1317 4.63389 15.3661C4.86831 15.6005 5.00001 15.9185 5.00001 16.25ZM11.25 15V17.5H8.75001V15H11.25ZM3.75001 6.25V2.5H16.25V6.25H3.75001ZM16.25 17.5C16.0028 17.5 15.7611 17.4267 15.5555 17.2893C15.35 17.152 15.1898 16.9568 15.0952 16.7284C15.0005 16.4999 14.9758 16.2486 15.024 16.0061C15.0723 15.7637 15.1913 15.5409 15.3661 15.3661C15.5409 15.1913 15.7637 15.0722 16.0061 15.024C16.2486 14.9758 16.5 15.0005 16.7284 15.0951C16.9568 15.1898 17.152 15.35 17.2893 15.5555C17.4267 15.7611 17.5 16.0028 17.5 16.25C17.5 16.5815 17.3683 16.8995 17.1339 17.1339C16.8995 17.3683 16.5815 17.5 16.25 17.5Z" fill="white"/>
</svg>
