<svg width="94" height="94" viewBox="0 0 94 94" fill="none" xmlns="http://www.w3.org/2000/svg">
<path d="M92.2853 0H87.89V1.4C81.7713 2.76875 80.8916 8.44844 80.5463 10.6187C80.3822 11.6453 80.0494 13.6531 79.6369 16.1125H3.10566C0.0775369 16.1125 -0.261525 18.9422 0.133787 20.5078L9.11191 60.1437C9.50566 61.7094 11.1635 62.9875 12.7885 62.9875H79.8885C81.5041 62.9875 82.8213 64.3016 82.8213 65.9172C82.8213 67.5328 81.5041 68.8469 79.8885 68.8469H6.64785C5.87085 68.8469 5.12567 69.1555 4.57625 69.705C4.02682 70.2544 3.71816 70.9996 3.71816 71.7766C3.71816 72.5536 4.02682 73.2987 4.57625 73.8482C5.12567 74.3976 5.87085 74.7063 6.64785 74.7063H10.4447C8.61145 75.7184 7.08315 77.2036 6.01906 79.0072C4.95498 80.8109 4.39405 82.8668 4.39472 84.9609H7.32441C7.32441 89.8125 11.2619 93.75 16.1135 93.75C20.965 93.75 24.9025 89.8125 24.9025 84.9609H27.8322C27.8326 82.8667 27.2714 80.8107 26.207 79.0071C25.1426 77.2035 23.6141 75.7183 21.7807 74.7063H63.1775C61.3441 75.7183 59.8155 77.2035 58.7512 79.0071C57.6868 80.8107 57.1256 82.8667 57.126 84.9609H60.0557C60.0991 87.2637 61.0443 89.4574 62.6881 91.0705C64.332 92.6837 66.5432 93.5874 68.8463 93.5874C71.1494 93.5874 73.3606 92.6837 75.0044 91.0705C76.6483 89.4574 77.5935 87.2637 77.6369 84.9609H80.5666C80.5668 82.8669 80.0056 80.8111 78.9416 79.0076C77.8776 77.2041 76.3495 75.7188 74.5166 74.7063H79.8916C82.2222 74.705 84.457 73.7786 86.105 72.1306C87.753 70.4826 88.6794 68.2478 88.6807 65.9172C88.6805 64.7628 88.4529 63.6197 88.0109 62.5533C87.569 61.4868 86.9213 60.5179 86.1048 59.7017C85.2884 58.8856 84.3192 58.2383 83.2526 57.7967C82.186 57.3551 81.0429 57.1279 79.8885 57.1281H78.7994L82.5463 33.8312C83.59 27.6781 85.84 14.3859 86.3682 11.0797C86.6338 9.40937 86.8916 8.23594 87.89 7.57812V8.7875H92.2853C92.673 8.78627 93.0444 8.63184 93.3187 8.35787C93.5929 8.08391 93.7478 7.71264 93.7494 7.325V1.46562C93.7486 1.07744 93.5941 0.705368 93.3198 0.430733C93.0454 0.156099 92.6735 0.00123801 92.2853 0ZM16.1135 89.3562C14.9481 89.355 13.8309 88.8915 13.0069 88.0675C12.1829 87.2435 11.7194 86.1263 11.7182 84.9609H20.5072C20.506 86.126 20.0427 87.243 19.219 88.067C18.3954 88.8909 17.2785 89.3546 16.1135 89.3562ZM68.8478 89.3562C67.6823 89.3554 66.5646 88.8921 65.7402 88.0681C64.9159 87.244 64.4522 86.1265 64.451 84.9609H73.2432C73.2411 86.126 72.7774 87.2428 71.9535 88.0666C71.1297 88.8904 70.0129 89.3542 68.8478 89.3562ZM65.2432 23.4281C65.2947 23.031 65.4871 22.6656 65.7853 22.3984C66.0836 22.1311 66.4678 21.9798 66.8682 21.9719H76.1447C76.951 21.9719 77.5119 22.6219 77.3853 23.4203L76.4666 29.3125C76.3447 30.1094 75.5807 30.7609 74.7729 30.7609H65.9244C65.7381 30.7659 65.5529 30.7304 65.3816 30.6569C65.2103 30.5835 65.0569 30.4738 64.9321 30.3354C64.8072 30.197 64.7138 30.0332 64.6582 29.8553C64.6027 29.6774 64.5864 29.4895 64.6104 29.3047L65.2432 23.4281ZM63.6666 38.0766C63.7191 37.6798 63.9118 37.315 64.2098 37.0479C64.5078 36.7808 64.8915 36.6292 65.2916 36.6203H73.8588C74.6666 36.6203 75.226 37.2703 75.1041 38.0688L74.4119 42.4969C74.2885 43.2938 73.526 43.9453 72.7182 43.9453H64.5041C64.3179 43.9497 64.133 43.9139 63.9619 43.8402C63.7909 43.7666 63.6377 43.6569 63.513 43.5187C63.3882 43.3804 63.2948 43.2168 63.239 43.0391C63.1833 42.8614 63.1666 42.6738 63.19 42.4891L63.6666 38.0766ZM7.60254 29.3391L6.11816 23.3937C5.92441 22.6094 6.42754 21.9719 7.23535 21.9719H18.265C19.0744 21.9719 19.8041 22.6266 19.89 23.4281L20.5213 29.3063C20.5447 29.4909 20.528 29.6784 20.4724 29.8559C20.4167 30.0335 20.3234 30.197 20.1988 30.3352C20.0743 30.4735 19.9213 30.5832 19.7505 30.6569C19.5796 30.7307 19.3948 30.7667 19.2088 30.7625H9.42597C8.61972 30.7625 7.79785 30.1203 7.60254 29.3391ZM12.7135 43.9453C11.9072 43.9453 11.0853 43.3047 10.8916 42.5234L9.77285 38.0438C9.57754 37.2594 10.0775 36.6219 10.8853 36.6219H19.8369C20.6447 36.6219 21.376 37.2766 21.4619 38.0781L21.9369 42.4906C21.9606 42.6753 21.9441 42.8629 21.8886 43.0406C21.833 43.2183 21.7397 43.3819 21.6151 43.5202C21.4904 43.6585 21.3374 43.7682 21.1664 43.8418C20.9954 43.9155 20.8105 43.9513 20.6244 43.9469H12.7135V43.9453ZM22.04 57.1297H16.001C15.19 57.1297 14.3728 56.4891 14.1775 55.7078L13.0588 51.2281C12.865 50.4437 13.365 49.8062 14.1744 49.8062H21.2525C22.0603 49.8062 22.7916 50.4609 22.8807 51.2625L23.3525 55.675C23.3763 55.8596 23.3598 56.0471 23.3042 56.2247C23.2487 56.4024 23.1553 56.5659 23.0307 56.704C22.906 56.8422 22.7529 56.9518 22.5819 57.0253C22.4109 57.0987 22.2261 57.1344 22.04 57.1297ZM39.9963 55.6641C39.9946 56.0528 39.8393 56.4251 39.5641 56.6997C39.2889 56.9743 38.9163 57.1289 38.5275 57.1297H30.8854C30.4853 57.1214 30.1014 56.9699 29.8035 56.7027C29.5056 56.4355 29.3134 56.0703 29.2619 55.6734L28.7869 51.2609C28.7627 51.0763 28.7788 50.8886 28.834 50.7108C28.8893 50.533 28.9824 50.3693 29.107 50.2309C29.2316 50.0925 29.3846 49.9827 29.5557 49.9092C29.7267 49.8356 29.9117 49.7999 30.0979 49.8047H38.5275C38.9165 49.8047 39.2896 49.959 39.565 50.2338C39.8404 50.5085 39.9955 50.8813 39.9963 51.2703V55.6641ZM39.9963 42.4813C39.9946 42.87 39.8393 43.2423 39.5641 43.5169C39.2889 43.7915 38.9163 43.9461 38.5275 43.9469H29.4682C28.6619 43.9469 27.9338 43.2922 27.8432 42.4906L27.3713 38.0781C27.3473 37.8936 27.3636 37.706 27.419 37.5283C27.4743 37.3506 27.5675 37.187 27.692 37.0486C27.8165 36.9103 27.9695 36.8005 28.1404 36.7269C28.3113 36.6532 28.4962 36.6174 28.6822 36.6219H38.5275C38.9165 36.6219 39.2896 36.7762 39.565 37.051C39.8404 37.3257 39.9955 37.6985 39.9963 38.0875V42.4813ZM39.9963 29.2969C39.9946 29.6856 39.8393 30.0579 39.5641 30.3325C39.2889 30.6071 38.9163 30.7617 38.5275 30.7625H28.0557C27.6553 30.7546 27.2711 30.6033 26.9728 30.336C26.6746 30.0688 26.4822 29.7034 26.4307 29.3063L25.7994 23.4281C25.7757 23.2435 25.7922 23.0559 25.8478 22.8782C25.9033 22.7005 25.9966 22.5369 26.1212 22.3986C26.2459 22.2603 26.3989 22.1506 26.5699 22.0769C26.7409 22.0033 26.9258 21.9674 27.1119 21.9719H38.5291C38.9181 21.9719 39.2912 22.1262 39.5666 22.401C39.8419 22.6757 39.997 23.0485 39.9979 23.4375V29.2969H39.9963ZM55.8697 55.6734C55.8178 56.0704 55.6254 56.4356 55.3272 56.7028C55.0291 56.97 54.645 57.1215 54.2447 57.1297H47.3385C46.9499 57.1289 46.5774 56.9742 46.3025 56.6996C46.0276 56.425 45.8725 56.0527 45.8713 55.6641V51.2687C45.8721 50.88 46.027 50.5075 46.302 50.2328C46.577 49.958 46.9498 49.8035 47.3385 49.8031H55.0322C55.8385 49.8031 56.4322 50.4578 56.3447 51.2594L55.8697 55.6734ZM57.2853 42.4891C57.2335 42.886 57.041 43.2513 56.7428 43.5185C56.4447 43.7857 56.0606 43.9371 55.6604 43.9453H47.3385C46.9499 43.9445 46.5774 43.7899 46.3025 43.5152C46.0276 43.2406 45.8725 42.8683 45.8713 42.4797V38.0844C45.8721 37.6957 46.027 37.3231 46.302 37.0484C46.577 36.7737 46.9498 36.6192 47.3385 36.6188H56.4478C57.2557 36.6188 57.8478 37.2734 57.7588 38.075L57.2853 42.4891ZM58.701 29.3063C58.6491 29.7032 58.4566 30.0685 58.1585 30.3357C57.8603 30.6028 57.4762 30.7543 57.076 30.7625H47.3385C46.9499 30.7617 46.5774 30.607 46.3025 30.3324C46.0276 30.0578 45.8725 29.6855 45.8713 29.2969V23.4375C45.8721 23.0488 46.027 22.6762 46.302 22.4015C46.577 22.1268 46.9498 21.9723 47.3385 21.9719H58.0213C58.8291 21.9719 59.4213 22.6266 59.3353 23.4281L58.701 29.3063ZM70.001 57.1297V57.1188L69.9885 57.1297H63.0885C63.0432 57.1297 63.0041 57.1078 62.9588 57.1016C62.951 57.0484 62.951 56.9953 62.9416 56.9391L62.8728 57.0828C62.8919 57.0879 62.9112 57.0921 62.9307 57.0953C62.2104 57.0125 61.6947 56.4172 61.7775 55.6734L62.2494 51.2609C62.3019 50.8642 62.4946 50.4993 62.7926 50.2323C63.0906 49.9652 63.4743 49.8135 63.8744 49.8047H71.8057C72.6135 49.8047 73.1697 50.4547 73.0478 51.2531L72.3557 55.6813C72.2353 56.4781 71.4728 57.1297 70.665 57.1297H70.001Z" fill="#00569E"/>
</svg>
