<svg width="20" height="20" viewBox="0 0 20 20" fill="none" xmlns="http://www.w3.org/2000/svg">
<g clip-path="url(#clip0_351_735)">
<path d="M10.3874 20C9.05448 18.863 7.81893 17.6165 6.69372 16.2736C5.00517 14.2568 3 11.2533 3 8.39115C2.99927 6.92945 3.43218 5.50039 4.24393 4.28481C5.05569 3.06924 6.20982 2.1218 7.56024 1.5624C8.91066 1.003 10.3967 0.856789 11.8302 1.14226C13.2638 1.42774 14.5804 2.13207 15.6135 3.16612C16.3014 3.85089 16.8466 4.66528 17.2176 5.56215C17.5885 6.45903 17.778 7.42058 17.7749 8.39115C17.7749 11.2533 15.7697 14.2568 14.0812 16.2736C12.956 17.6165 11.7204 18.863 10.3874 20ZM10.3874 5.2251C9.54776 5.2251 8.74246 5.55867 8.14871 6.15242C7.55496 6.74617 7.2214 7.55146 7.2214 8.39115C7.2214 9.23084 7.55496 10.0361 8.14871 10.6299C8.74246 11.2236 9.54776 11.5572 10.3874 11.5572C11.2271 11.5572 12.0324 11.2236 12.6262 10.6299C13.2199 10.0361 13.5535 9.23084 13.5535 8.39115C13.5535 7.55146 13.2199 6.74617 12.6262 6.15242C12.0324 5.55867 11.2271 5.2251 10.3874 5.2251Z" fill="#3F3F46"/>
</g>
<defs>
<clipPath id="clip0_351_735">
<rect width="20" height="20" fill="white"/>
</clipPath>
</defs>
</svg>
