<svg width="100" height="100" viewBox="0 0 100 100" fill="none" xmlns="http://www.w3.org/2000/svg">
<g clip-path="url(#clip0_86_34)">
<path d="M58.3337 33.3333H19.4448C18.7081 33.3333 18.0015 33.0406 17.4806 32.5197C16.9597 31.9988 16.667 31.2922 16.667 30.5555V19.4444C16.667 18.7077 16.9597 18.0012 17.4806 17.4802C18.0015 16.9593 18.7081 16.6666 19.4448 16.6666H58.3337C59.0704 16.6666 59.7769 16.9593 60.2978 17.4802C60.8188 18.0012 61.1114 18.7077 61.1114 19.4444V30.5555C61.1114 31.2922 60.8188 31.9988 60.2978 32.5197C59.7769 33.0406 59.0704 33.3333 58.3337 33.3333ZM22.2225 27.7777H55.5559V22.0555H22.2225V27.7777Z" fill="#095073"/>
<path d="M58.3337 39.1111H19.4448C18.7081 39.1111 18.0015 39.4037 17.4806 39.9247C16.9597 40.4456 16.667 41.1521 16.667 41.8889V52.7778C16.667 53.5145 16.9597 54.221 17.4806 54.7419C18.0015 55.2629 18.7081 55.5555 19.4448 55.5555H51.0003L61.1114 45.2777V41.8889C61.1114 41.1521 60.8188 40.4456 60.2978 39.9247C59.7769 39.4037 59.0704 39.1111 58.3337 39.1111ZM55.5559 50H22.2225V44.4444H55.5559V50Z" fill="#095073"/>
<path d="M30.7223 87.5278V87.3611L31.6112 83.5H11.1112V11.1111H66.6668V39.5833L72.2223 34.3333V8.33332C72.2223 7.59661 71.9297 6.89007 71.4087 6.36913C70.8878 5.8482 70.1813 5.55554 69.4445 5.55554H8.33344C7.59673 5.55554 6.89019 5.8482 6.36926 6.36913C5.84832 6.89007 5.55566 7.59661 5.55566 8.33332V86.1111C5.55566 86.8478 5.84832 87.5544 6.36926 88.0753C6.89019 88.5962 7.59673 88.8889 8.33344 88.8889H30.5557C30.5786 88.4318 30.6343 87.9769 30.7223 87.5278Z" fill="#095073"/>
<path d="M61.111 53.25L58.9443 55.4444C59.4819 55.3336 59.9746 55.0661 60.3602 54.6755C60.7458 54.2849 61.007 53.7889 61.111 53.25Z" fill="#095073"/>
<path d="M16.667 74.8333C16.667 75.57 16.9597 76.2766 17.4806 76.7975C18.0015 77.3184 18.7081 77.6111 19.4448 77.6111H32.8892L33.7225 74L34.0837 72.4722V72.3333H22.2225V66.6666H39.8337L45.3892 61.1111H19.4448C18.7081 61.1111 18.0015 61.4037 17.4806 61.9247C16.9597 62.4456 16.667 63.1521 16.667 63.8889V74.8333Z" fill="#095073"/>
<path d="M93.0273 46.3056L83.6662 36.9445C83.2508 36.5279 82.7572 36.1974 82.2138 35.9718C81.6704 35.7463 81.0879 35.6302 80.4995 35.6302C79.9112 35.6302 79.3287 35.7463 78.7853 35.9718C78.2419 36.1974 77.7483 36.5279 77.3329 36.9445L39.2495 75.25L36.1107 88.6111C35.9931 89.1875 35.9905 89.7815 36.1029 90.3589C36.2153 90.9364 36.4405 91.486 36.7656 91.9762C37.0907 92.4665 37.5094 92.8878 37.9976 93.216C38.4858 93.5442 39.0339 93.7729 39.6107 93.8889C39.897 93.9177 40.1854 93.9177 40.4718 93.8889C40.8121 93.9444 41.1592 93.9444 41.4995 93.8889L54.9718 90.9167L93.0273 52.7778C93.4431 52.3647 93.773 51.8735 93.9981 51.3324C94.2233 50.7913 94.3392 50.2111 94.3392 49.625C94.3392 49.039 94.2233 48.4587 93.9981 47.9176C93.773 47.3765 93.4431 46.8853 93.0273 46.4722V46.3056ZM52.1384 85.8611L41.9718 88.1111L44.444 78.0278L72.9995 49.1667L80.8329 57L52.1384 85.8611ZM83.9718 53.8611L76.1384 46.0278L80.5551 41.6667L88.444 49.5556L83.9718 53.8611Z" fill="#095073"/>
</g>
<defs>
<clipPath id="clip0_86_34">
<rect width="100" height="100" fill="white"/>
</clipPath>
</defs>
</svg>
