<svg width="1980" height="328" viewBox="0 0 1980 328" fill="none" xmlns="http://www.w3.org/2000/svg">
<path d="M598 239.636C598 259.06 592.004 275.643 580.012 289.386C568.02 303.129 553.549 310 536.6 310H362.633C342.913 310 326.044 301.968 312.026 285.904C298.009 269.84 291 250.509 291 227.909C291 211.784 294.784 197.033 302.353 183.657C309.921 170.281 319.888 160.294 332.253 153.697C332.04 150.277 331.933 147.651 331.933 145.818C331.933 119.92 339.928 97.8097 355.918 79.4858C371.907 61.1619 391.201 52 413.8 52C430.642 52 445.912 57.375 459.61 68.125C473.308 78.875 483.301 92.9233 489.591 110.27C497.052 102.696 505.9 98.9091 516.133 98.9091C527.433 98.9091 537.08 103.49 545.074 112.652C553.069 121.814 557.067 132.869 557.067 145.818C557.067 154.98 554.881 163.409 550.511 171.105C564.262 174.77 575.615 182.985 584.569 195.751C593.523 208.516 598 223.145 598 239.636Z" fill="#F6FCFF"/>
<path d="M938.076 115.917C938.076 112.442 939.235 108.967 939.235 104.333C939.235 78.85 918.376 58 892.882 58C874.341 58 859.276 68.425 851.165 83.4833C848.847 82.325 844.212 81.1667 840.735 81.1667C824.512 81.1667 811.765 93.9083 811.765 110.125C811.765 112.442 811.765 114.758 812.924 115.917C792.065 119.392 777 135.608 777 156.458C777 178.467 795.541 197 817.559 197H933.441C955.459 197 974 178.467 974 156.458C974 135.608 958.935 118.233 938.076 115.917Z" fill="#D8F0FC"/>
<path d="M1395.08 81.9167C1395.08 78.4417 1396.24 74.9667 1396.24 70.3333C1396.24 44.85 1375.38 24 1349.88 24C1331.34 24 1316.28 34.425 1308.16 49.4833C1305.85 48.325 1301.21 47.1667 1297.74 47.1667C1281.51 47.1667 1268.76 59.9083 1268.76 76.125C1268.76 78.4417 1268.76 80.7583 1269.92 81.9167C1249.06 85.3917 1234 101.608 1234 122.458C1234 144.467 1252.54 163 1274.56 163H1390.44C1412.46 163 1431 144.467 1431 122.458C1431 101.608 1415.94 84.2333 1395.08 81.9167Z" fill="#D8F0FC"/>
<path d="M694.076 115.917C694.076 112.442 695.235 108.967 695.235 104.333C695.235 78.85 674.376 58 648.882 58C630.341 58 615.276 68.425 607.165 83.4833C604.847 82.325 600.212 81.1667 596.735 81.1667C580.512 81.1667 567.765 93.9083 567.765 110.125C567.765 112.442 567.765 114.758 568.924 115.917C548.065 119.392 533 135.608 533 156.458C533 178.467 551.541 197 573.559 197H689.441C711.459 197 730 178.467 730 156.458C730 135.608 714.935 118.233 694.076 115.917Z" fill="#D8F0FC"/>
<path d="M362.076 90.9167C362.076 87.4417 363.235 83.9667 363.235 79.3333C363.235 53.85 342.376 33 316.882 33C298.341 33 283.276 43.425 275.165 58.4833C272.847 57.325 268.212 56.1667 264.735 56.1667C248.512 56.1667 235.765 68.9083 235.765 85.125C235.765 87.4417 235.765 89.7583 236.924 90.9167C216.065 94.3917 201 110.608 201 131.458C201 153.467 219.541 172 241.559 172H357.441C379.459 172 398 153.467 398 131.458C398 110.608 382.935 93.2333 362.076 90.9167Z" fill="#D8F0FC"/>
<path d="M974 211.636C974 231.06 968.004 247.643 956.012 261.386C944.02 275.129 929.549 282 912.6 282H738.633C718.913 282 702.044 273.968 688.026 257.904C674.009 241.84 667 222.509 667 199.909C667 183.784 670.784 169.033 678.353 155.657C685.921 142.281 695.888 132.294 708.253 125.697C708.04 122.277 707.933 119.651 707.933 117.818C707.933 91.9205 715.928 69.8097 731.918 51.4858C747.907 33.1619 767.201 24 789.8 24C806.642 24 821.912 29.375 835.61 40.125C849.308 50.875 859.301 64.9233 865.591 82.2699C873.052 74.696 881.9 70.9091 892.133 70.9091C903.433 70.9091 913.08 75.4901 921.074 84.652C929.069 93.8139 933.067 104.869 933.067 117.818C933.067 126.98 930.881 135.409 926.511 143.105C940.262 146.77 951.615 154.985 960.569 167.751C969.523 180.516 974 195.145 974 211.636Z" fill="#F6FCFF"/>
<path d="M1682 214.636C1682 234.06 1676 250.643 1664.01 264.386C1652.02 278.129 1637.55 285 1620.6 285H1446.63C1426.91 285 1410.04 276.968 1396.03 260.904C1382.01 244.84 1375 225.509 1375 202.909C1375 186.784 1378.78 172.033 1386.35 158.657C1393.92 145.281 1403.89 135.294 1416.25 128.697C1416.04 125.277 1415.93 122.651 1415.93 120.818C1415.93 94.9205 1423.93 72.8097 1439.92 54.4858C1455.91 36.1619 1475.2 27 1497.8 27C1514.64 27 1529.91 32.375 1543.61 43.125C1557.31 53.875 1567.3 67.9233 1573.59 85.2699C1581.05 77.696 1589.9 73.9091 1600.13 73.9091C1611.43 73.9091 1621.08 78.4901 1629.07 87.652C1637.07 96.8139 1641.07 107.869 1641.07 120.818C1641.07 129.98 1638.88 138.409 1634.51 146.105C1648.26 149.77 1659.61 157.985 1668.57 170.751C1677.52 183.516 1682 198.145 1682 214.636Z" fill="#F6FCFF"/>
<path d="M1336 257.636C1336 277.06 1330 293.643 1318.01 307.386C1306.02 321.129 1291.55 328 1274.6 328H1100.63C1080.91 328 1064.04 319.968 1050.03 303.904C1036.01 287.84 1029 268.509 1029 245.909C1029 229.784 1032.78 215.033 1040.35 201.657C1047.92 188.281 1057.89 178.294 1070.25 171.697C1070.04 168.277 1069.93 165.651 1069.93 163.818C1069.93 137.92 1077.93 115.81 1093.92 97.4858C1109.91 79.1619 1129.2 70 1151.8 70C1168.64 70 1183.91 75.375 1197.61 86.125C1211.31 96.875 1221.3 110.923 1227.59 128.27C1235.05 120.696 1243.9 116.909 1254.13 116.909C1265.43 116.909 1275.08 121.49 1283.07 130.652C1291.07 139.814 1295.07 150.869 1295.07 163.818C1295.07 172.98 1292.88 181.409 1288.51 189.105C1302.26 192.77 1313.61 200.985 1322.57 213.751C1331.52 226.516 1336 241.145 1336 257.636Z" fill="#F6FCFF"/>
<path d="M272 211.636C272 231.06 266.004 247.643 254.012 261.386C242.02 275.129 227.549 282 210.6 282H36.6333C16.9128 282 0.0438385 273.968 -13.9737 257.904C-27.9912 241.84 -35 222.509 -35 199.909C-35 183.784 -31.2158 169.033 -23.6474 155.657C-16.079 142.281 -6.11215 132.294 6.25312 125.697C6.03993 122.277 5.93333 119.651 5.93333 117.818C5.93333 91.9205 13.9281 69.8097 29.9177 51.4858C45.9073 33.1619 65.2014 24 87.8 24C104.642 24 119.912 29.375 133.61 40.125C147.308 50.875 157.301 64.9233 163.591 82.2699C171.052 74.696 179.9 70.9091 190.133 70.9091C201.433 70.9091 211.08 75.4901 219.074 84.652C227.069 93.8139 231.067 104.869 231.067 117.818C231.067 126.98 228.881 135.409 224.511 143.105C238.262 146.77 249.615 154.985 258.569 167.751C267.523 180.516 272 195.145 272 211.636Z" fill="#F6FCFF"/>
<path d="M694.076 127.917C694.076 124.442 695.235 120.967 695.235 116.333C695.235 90.85 674.376 70 648.882 70C630.341 70 615.276 80.425 607.165 95.4833C604.847 94.325 600.212 93.1667 596.735 93.1667C580.512 93.1667 567.765 105.908 567.765 122.125C567.765 124.442 567.765 126.758 568.924 127.917C548.065 131.392 533 147.608 533 168.458C533 190.467 551.541 209 573.559 209H689.441C711.459 209 730 190.467 730 168.458C730 147.608 714.935 130.233 694.076 127.917Z" fill="#F6FCFF"/>
<path d="M1402.08 90.9167C1402.08 87.4417 1403.24 83.9667 1403.24 79.3333C1403.24 53.85 1382.38 33 1356.88 33C1338.34 33 1323.28 43.425 1315.16 58.4833C1312.85 57.325 1308.21 56.1667 1304.74 56.1667C1288.51 56.1667 1275.76 68.9083 1275.76 85.125C1275.76 87.4417 1275.76 89.7583 1276.92 90.9167C1256.06 94.3917 1241 110.608 1241 131.458C1241 153.467 1259.54 172 1281.56 172H1397.44C1419.46 172 1438 153.467 1438 131.458C1438 110.608 1422.94 93.2333 1402.08 90.9167Z" fill="#F6FCFF"/>
<path d="M1070.08 99.9167C1070.08 96.4417 1071.24 92.9667 1071.24 88.3333C1071.24 62.85 1050.38 42 1024.88 42C1006.34 42 991.276 52.425 983.165 67.4833C980.847 66.325 976.212 65.1667 972.735 65.1667C956.512 65.1667 943.765 77.9083 943.765 94.125C943.765 96.4417 943.765 98.7583 944.924 99.9167C924.065 103.392 909 119.608 909 140.458C909 162.467 927.541 181 949.559 181H1065.44C1087.46 181 1106 162.467 1106 140.458C1106 119.608 1090.94 102.233 1070.08 99.9167Z" fill="#F6FCFF"/>
<path d="M1300.08 140.917C1300.08 137.442 1301.24 133.967 1301.24 129.333C1301.24 103.85 1280.38 83 1254.88 83C1236.34 83 1221.28 93.425 1213.16 108.483C1210.85 107.325 1206.21 106.167 1202.74 106.167C1186.51 106.167 1173.76 118.908 1173.76 135.125C1173.76 137.442 1173.76 139.758 1174.92 140.917C1154.06 144.392 1139 160.608 1139 181.458C1139 203.467 1157.54 222 1179.56 222H1295.44C1317.46 222 1336 203.467 1336 181.458C1336 160.608 1320.94 143.233 1300.08 140.917Z" fill="#F6FCFF"/>
<path d="M368.076 99.9167C368.076 96.4417 369.235 92.9667 369.235 88.3333C369.235 62.85 348.376 42 322.882 42C304.341 42 289.276 52.425 281.165 67.4833C278.847 66.325 274.212 65.1667 270.735 65.1667C254.512 65.1667 241.765 77.9083 241.765 94.125C241.765 96.4417 241.765 98.7583 242.924 99.9167C222.065 103.392 207 119.608 207 140.458C207 162.467 225.541 181 247.559 181H363.441C385.459 181 404 162.467 404 140.458C404 119.608 388.935 102.233 368.076 99.9167Z" fill="#F6FCFF"/>
<path d="M2080 187.636C2080 207.06 2074 223.643 2062.01 237.386C2050.02 251.129 2035.55 258 2018.6 258H1844.63C1824.91 258 1808.04 249.968 1794.03 233.904C1780.01 217.84 1773 198.509 1773 175.909C1773 159.784 1776.78 145.033 1784.35 131.657C1791.92 118.281 1801.89 108.294 1814.25 101.697C1814.04 98.277 1813.93 95.6506 1813.93 93.8182C1813.93 67.9205 1821.93 45.8097 1837.92 27.4858C1853.91 9.16193 1873.2 0 1895.8 0C1912.64 0 1927.91 5.375 1941.61 16.125C1955.31 26.875 1965.3 40.9233 1971.59 58.2699C1979.05 50.696 1987.9 46.9091 1998.13 46.9091C2009.43 46.9091 2019.08 51.4901 2027.07 60.652C2035.07 69.8139 2039.07 80.8693 2039.07 93.8182C2039.07 102.98 2036.88 111.409 2032.51 119.105C2046.26 122.77 2057.61 130.985 2066.57 143.751C2075.52 156.516 2080 171.145 2080 187.636Z" fill="#F6FCFF"/>
<path d="M1778.08 70.9167C1778.08 67.4417 1779.24 63.9667 1779.24 59.3333C1779.24 33.85 1758.38 13 1732.88 13C1714.34 13 1699.28 23.425 1691.16 38.4833C1688.85 37.325 1684.21 36.1667 1680.74 36.1667C1664.51 36.1667 1651.76 48.9083 1651.76 65.125C1651.76 67.4417 1651.76 69.7583 1652.92 70.9167C1632.06 74.3917 1617 90.6083 1617 111.458C1617 133.467 1635.54 152 1657.56 152H1773.44C1795.46 152 1814 133.467 1814 111.458C1814 90.6083 1798.94 73.2333 1778.08 70.9167Z" fill="#F6FCFF"/>
</svg>
