<svg width="100" height="100" viewBox="0 0 100 100" fill="none" xmlns="http://www.w3.org/2000/svg">
<path d="M22.3 25.8L25 37.3L22.3 48.75L32.35 54.9501L38.5 65L50 62.3L61.5 65L67.65 54.9501L77.7 48.75L75 37.3L77.7 25.8L67.7 19.6L61.5 9.55005L50 12.3L38.55 9.60005L32.3 19.6L22.3 25.8ZM50.05 57.5C44.7457 57.5 39.6586 55.3929 35.9079 51.6422C32.1571 47.8915 30.05 42.8044 30.05 37.5C30.05 32.1957 32.1571 27.1086 35.9079 23.3579C39.6586 19.6072 44.7457 17.5 50.05 17.5C61.05 17.5 70 26.45 70 37.45C70 48.55 61.05 57.5 50.05 57.5ZM49.95 52.5C41.65 52.5 35 45.8 35 37.5C35 29.25 41.65 22.5 49.95 22.5C58.25 22.5 65 29.25 65 37.5C65 45.8 58.25 52.5 49.95 52.5ZM69.15 58.0001L62.75 69.2001L52.35 66.85L65 96.0001L72 85H84.5L69.15 58.0001ZM30.65 58.3501L36.9 69.6001L47.55 67.05L35 96.0001L28 85H15.5L30.65 58.3501Z" fill="white"/>
</svg>
