<svg width="80" height="71" viewBox="0 0 80 71" fill="none" xmlns="http://www.w3.org/2000/svg">
<path d="M39.935 0.00499964C42.8882 0.00499964 45.7204 1.17815 47.8086 3.26637C49.8969 5.35458 51.07 8.18681 51.07 11.14C51.07 14.0932 49.8969 16.9254 47.8086 19.0136C45.7204 21.1019 42.8882 22.275 39.935 22.275C36.9812 22.275 34.1483 21.1016 32.0596 19.0129C29.9709 16.9242 28.7975 14.0913 28.7975 11.1375C28.7975 8.18365 29.9709 5.35078 32.0596 3.2621C34.1483 1.17341 36.9812 0 39.935 0V0.00499964ZM39.935 5.005C38.3079 5.005 36.7474 5.65136 35.5969 6.8019C34.4464 7.95244 33.8 9.5129 33.8 11.14C33.8 12.7671 34.4464 14.3276 35.5969 15.4781C36.7474 16.6286 38.3079 17.275 39.935 17.275C41.5628 17.275 43.1239 16.6284 44.2749 15.4774C45.4259 14.3264 46.0725 12.7653 46.0725 11.1375C46.0725 9.50973 45.4259 7.94864 44.2749 6.79763C43.1239 5.64663 41.5628 5 39.935 5V5.005ZM5.08 42.555C5.08 43.218 4.81661 43.8539 4.34777 44.3228C3.87893 44.7916 3.24304 45.055 2.58 45.055C1.91696 45.055 1.28107 44.7916 0.812232 44.3228C0.343392 43.8539 0.0800002 43.218 0.0800002 42.555V30.125C0.0801617 28.9003 0.52978 27.7183 1.34358 26.8031C2.15737 25.888 3.27874 25.3033 4.495 25.16L5.08 25.125H18.865C18.1375 26.3803 17.6938 27.7798 17.565 29.225L17.525 30.125H5.075V42.555H5.08ZM77.45 45.055C78.113 45.055 78.7489 44.7916 79.2178 44.3228C79.6866 43.8539 79.95 43.218 79.95 42.555V30.125L79.915 29.545C79.7729 28.3278 79.1887 27.2053 78.2734 26.3904C77.3581 25.5756 76.1754 25.1253 74.95 25.125H61.03C61.76 26.39 62.23 27.84 62.34 29.38L62.365 30.13H74.95V42.555C74.95 43.218 75.2134 43.8539 75.6822 44.3228C76.1511 44.7916 76.787 45.055 77.45 45.055ZM52.37 25.125C53.5954 25.1253 54.7781 25.5756 55.6934 26.3904C56.6087 27.2053 57.1928 28.3278 57.335 29.545L57.365 30.125V42.555C57.365 43.218 57.1016 43.8539 56.6328 44.3228C56.1639 44.7916 55.528 45.055 54.865 45.055C54.202 45.055 53.5661 44.7916 53.0972 44.3228C52.6284 43.8539 52.365 43.218 52.365 42.555V30.125H27.525V42.555C27.525 43.218 27.2616 43.8539 26.7928 44.3228C26.3239 44.7916 25.688 45.055 25.025 45.055C24.362 45.055 23.7261 44.7916 23.2572 44.3228C22.7884 43.8539 22.525 43.218 22.525 42.555V30.125C22.5252 28.9003 22.9748 27.7183 23.7886 26.8031C24.6024 25.888 25.7237 25.3033 26.94 25.16L27.525 25.125H52.365H52.37ZM74.44 12.71C74.44 10.1725 73.432 7.73901 71.6377 5.94476C69.8435 4.1505 67.41 3.1425 64.8725 3.1425C62.335 3.1425 59.9015 4.1505 58.1073 5.94476C56.313 7.73901 55.305 10.1725 55.305 12.71C55.305 15.2475 56.313 17.681 58.1073 19.4752C59.9015 21.2695 62.335 22.2775 64.8725 22.2775C67.41 22.2775 69.8435 21.2695 71.6377 19.4752C73.432 17.681 74.44 15.2475 74.44 12.71ZM60.305 12.71C60.305 11.4986 60.7862 10.3369 61.6428 9.48029C62.4994 8.62372 63.6611 8.1425 64.8725 8.1425C66.0839 8.1425 67.2456 8.62372 68.1022 9.48029C68.9588 10.3369 69.44 11.4986 69.44 12.71C69.44 13.9214 68.9588 15.0831 68.1022 15.9397C67.2456 16.7963 66.0839 17.2775 64.8725 17.2775C63.6611 17.2775 62.4994 16.7963 61.6428 15.9397C60.7862 15.0831 60.305 13.9214 60.305 12.71ZM15.08 3.14C17.6175 3.14 20.051 4.148 21.8452 5.94226C23.6395 7.73651 24.6475 10.17 24.6475 12.7075C24.6475 15.245 23.6395 17.6785 21.8452 19.4727C20.051 21.267 17.6175 22.275 15.08 22.275C12.5425 22.275 10.109 21.267 8.31476 19.4727C6.5205 17.6785 5.5125 15.245 5.5125 12.7075C5.5125 10.17 6.5205 7.73651 8.31476 5.94226C10.109 4.148 12.5425 3.14 15.08 3.14ZM15.08 8.14C13.8686 8.14 12.7069 8.62122 11.8503 9.47779C10.9937 10.3344 10.5125 11.4961 10.5125 12.7075C10.5125 13.9189 10.9937 15.0806 11.8503 15.9372C12.7069 16.7938 13.8686 17.275 15.08 17.275C16.2914 17.275 17.4531 16.7938 18.3097 15.9372C19.1663 15.0806 19.6475 13.9189 19.6475 12.7075C19.6475 11.4961 19.1663 10.3344 18.3097 9.47779C17.4531 8.62122 16.2914 8.14 15.08 8.14ZM2.5 50.055C1.83696 50.055 1.20107 50.3184 0.732234 50.7872C0.263393 51.2561 0 51.892 0 52.555V57.555C0 60.8702 1.31696 64.0496 3.66117 66.3938C6.00537 68.738 9.18479 70.055 12.5 70.055H67.5C70.8152 70.055 73.9946 68.738 76.3388 66.3938C78.683 64.0496 80 60.8702 80 57.555V52.555C80 51.892 79.7366 51.2561 79.2678 50.7872C78.7989 50.3184 78.163 50.055 77.5 50.055H2.5ZM5 57.555V55.055H75V57.555C75 59.5441 74.2098 61.4518 72.8033 62.8583C71.3968 64.2648 69.4891 65.055 67.5 65.055H12.5C10.5109 65.055 8.60322 64.2648 7.1967 62.8583C5.79018 61.4518 5 59.5441 5 57.555Z" fill="#095073"/>
</svg>
