<svg width="100" height="100" viewBox="0 0 100 100" fill="none" xmlns="http://www.w3.org/2000/svg">
<g clip-path="url(#clip0_535_1664)">
<path d="M83.3333 25.6125C82.4414 25.4042 81.5367 25.2552 80.625 25.1667C79.3716 18.8176 76.176 13.015 71.4802 8.5618C66.7844 4.10857 60.8207 1.22485 54.4141 0.309624C48.0076 -0.605598 41.4749 0.492929 35.7201 3.45321C29.9652 6.41349 25.2727 11.0892 22.2917 16.8333C20.3699 17.0619 18.4819 17.5164 16.6667 18.1875C11.7958 19.8972 7.57613 23.0776 4.59092 27.2892C1.60571 31.5008 0.00231934 36.5356 0.00231934 41.6979C0.00231934 46.8602 1.60571 51.895 4.59092 56.1066C7.57613 60.3182 11.7958 63.4986 16.6667 65.2083V56.025C14.1341 54.575 12.0295 52.4818 10.5658 49.9572C9.10214 47.4326 8.33129 44.5661 8.33129 41.6479C8.33129 38.7297 9.10214 35.8632 10.5658 33.3386C12.0295 30.814 14.1341 28.7208 16.6667 27.2708C18.658 26.1056 20.873 25.3744 23.1667 25.125L27.625 24.6667L29.7083 20.7083C31.8853 16.491 35.3208 13.0557 39.5383 10.8789C43.7557 8.70221 48.5461 7.89196 53.2448 8.56059C57.9435 9.22922 62.3177 11.3436 65.7606 14.6104C69.2034 17.8772 71.5442 22.1345 72.4583 26.7917L73.7084 33.0417L80.0833 33.5C81.1942 33.5872 82.2879 33.8269 83.3333 34.2125C85.7649 35.0486 87.8748 36.623 89.3685 38.716C90.8621 40.809 91.665 43.3162 91.665 45.8875C91.665 48.4588 90.8621 50.966 89.3685 53.059C87.8748 55.152 85.7649 56.7264 83.3333 57.5625V66.2458C88.032 65.3089 92.2607 62.7722 95.2993 59.0678C98.338 55.3635 99.9987 50.7204 99.9987 45.9292C99.9987 41.1379 98.338 36.4949 95.2993 32.7905C92.2607 29.0861 88.032 26.5495 83.3333 25.6125Z" fill="#00569E"/>
<path d="M25 41.6666V62.5H75V41.6666H25ZM54.1667 54.1666H29.1667V50H54.1667V54.1666ZM60.4167 54.1666C60.0046 54.1666 59.6018 54.0444 59.2592 53.8155C58.9166 53.5866 58.6496 53.2612 58.4919 52.8805C58.3342 52.4999 58.293 52.081 58.3734 51.6769C58.4537 51.2727 58.6522 50.9015 58.9435 50.6102C59.2349 50.3188 59.6061 50.1204 60.0102 50.04C60.4144 49.9596 60.8332 50.0009 61.2139 50.1585C61.5946 50.3162 61.92 50.5833 62.1489 50.9259C62.3778 51.2685 62.5 51.6712 62.5 52.0833C62.5 52.6358 62.2805 53.1657 61.8898 53.5564C61.4991 53.9471 60.9692 54.1666 60.4167 54.1666ZM68.75 54.1666C68.338 54.1666 67.9352 54.0444 67.5926 53.8155C67.25 53.5866 66.9829 53.2612 66.8253 52.8805C66.6676 52.4999 66.6263 52.081 66.7067 51.6769C66.7871 51.2727 66.9855 50.9015 67.2769 50.6102C67.5682 50.3188 67.9394 50.1204 68.3436 50.04C68.7477 49.9596 69.1666 50.0009 69.5473 50.1585C69.9279 50.3162 70.2533 50.5833 70.4822 50.9259C70.7111 51.2685 70.8333 51.6712 70.8333 52.0833C70.8333 52.6358 70.6138 53.1657 70.2231 53.5564C69.8324 53.9471 69.3025 54.1666 68.75 54.1666ZM25 70.8333V91.6666H75V70.8333H25ZM54.1667 83.3333H29.1667V79.1666H54.1667V83.3333ZM60.4167 83.3333C60.0046 83.3333 59.6018 83.2111 59.2592 82.9822C58.9166 82.7533 58.6496 82.4279 58.4919 82.0472C58.3342 81.6665 58.293 81.2476 58.3734 80.8435C58.4537 80.4394 58.6522 80.0682 58.9435 79.7768C59.2349 79.4855 59.6061 79.287 60.0102 79.2067C60.4144 79.1263 60.8332 79.1675 61.2139 79.3252C61.5946 79.4829 61.92 79.7499 62.1489 80.0925C62.3778 80.4351 62.5 80.8379 62.5 81.25C62.5 81.8025 62.2805 82.3324 61.8898 82.7231C61.4991 83.1138 60.9692 83.3333 60.4167 83.3333ZM68.75 83.3333C68.338 83.3333 67.9352 83.2111 67.5926 82.9822C67.25 82.7533 66.9829 82.4279 66.8253 82.0472C66.6676 81.6665 66.6263 81.2476 66.7067 80.8435C66.7871 80.4394 66.9855 80.0682 67.2769 79.7768C67.5682 79.4855 67.9394 79.287 68.3436 79.2067C68.7477 79.1263 69.1666 79.1675 69.5473 79.3252C69.9279 79.4829 70.2533 79.7499 70.4822 80.0925C70.7111 80.4351 70.8333 80.8379 70.8333 81.25C70.8333 81.8025 70.6138 82.3324 70.2231 82.7231C69.8324 83.1138 69.3025 83.3333 68.75 83.3333Z" fill="#00569E"/>
</g>
<defs>
<clipPath id="clip0_535_1664">
<rect width="100" height="100" fill="white"/>
</clipPath>
</defs>
</svg>
