<svg width="100" height="100" viewBox="0 0 100 100" fill="none" xmlns="http://www.w3.org/2000/svg">
<path d="M87.5 45.8333V37.5H79.1667V29.1667C79.1601 26.9586 78.28 24.8428 76.7186 23.2814C75.1572 21.72 73.0414 20.8399 70.8333 20.8333H62.5V12.5H54.1667V20.8333H45.8333V12.5H37.5V20.8333H29.1667C26.9586 20.8399 24.8428 21.72 23.2814 23.2814C21.72 24.8428 20.8399 26.9586 20.8333 29.1667V37.5H12.5V45.8333H20.8333V54.1667H12.5V62.5H20.8333V70.8333C20.8399 73.0414 21.72 75.1572 23.2814 76.7186C24.8428 78.28 26.9586 79.1601 29.1667 79.1667H37.5V87.5H45.8333V79.1667H54.1667V87.5H62.5V79.1667H70.8333C73.0414 79.1601 75.1572 78.28 76.7186 76.7186C78.28 75.1572 79.1601 73.0414 79.1667 70.8333V62.5H87.5V54.1667H79.1667V45.8333H87.5ZM70.8333 70.8333H29.1667V29.1667H70.8333V70.8333Z" fill="#00569E"/>
<path d="M47.3374 33.3334H41.7333L33.3583 66.6667H37.6374L39.5708 58.8542H49.2208L51.1041 66.6667H55.5291L47.3374 33.3334ZM40.1333 55.5167L44.3749 37.2917H44.5666L48.6624 55.5167H40.1333ZM59.3499 33.3334H63.5166V66.6667H59.3499V33.3334Z" fill="#00569E"/>
</svg>
