<svg width="100" height="100" viewBox="0 0 100 100" fill="none" xmlns="http://www.w3.org/2000/svg">
<path d="M42.5 22.5C42.5 20.5109 43.2902 18.6032 44.6967 17.1967C46.1032 15.7902 48.0109 15 50 15C51.9891 15 53.8968 15.7902 55.3033 17.1967C56.7098 18.6032 57.5 20.5109 57.5 22.5C57.5 24.4891 56.7098 26.3968 55.3033 27.8033C53.8968 29.2098 51.9891 30 50 30C48.0109 30 46.1032 29.2098 44.6967 27.8033C43.2902 26.3968 42.5 24.4891 42.5 22.5ZM50 10C46.6848 10 43.5054 11.317 41.1612 13.6612C38.817 16.0054 37.5 19.1848 37.5 22.5C37.5 25.8152 38.817 28.9946 41.1612 31.3388C43.5054 33.683 46.6848 35 50 35C53.3152 35 56.4946 33.683 58.8388 31.3388C61.183 28.9946 62.5 25.8152 62.5 22.5C62.5 19.1848 61.183 16.0054 58.8388 13.6612C56.4946 11.317 53.3152 10 50 10ZM72.5 25C72.5 23.6739 73.0268 22.4021 73.9645 21.4645C74.9021 20.5268 76.1739 20 77.5 20C78.8261 20 80.0979 20.5268 81.0355 21.4645C81.9732 22.4021 82.5 23.6739 82.5 25C82.5 26.3261 81.9732 27.5979 81.0355 28.5355C80.0979 29.4732 78.8261 30 77.5 30C76.1739 30 74.9021 29.4732 73.9645 28.5355C73.0268 27.5979 72.5 26.3261 72.5 25ZM77.5 15C74.8478 15 72.3043 16.0536 70.4289 17.9289C68.5536 19.8043 67.5 22.3478 67.5 25C67.5 27.6522 68.5536 30.1957 70.4289 32.0711C72.3043 33.9464 74.8478 35 77.5 35C80.1522 35 82.6957 33.9464 84.5711 32.0711C86.4464 30.1957 87.5 27.6522 87.5 25C87.5 22.3478 86.4464 19.8043 84.5711 17.9289C82.6957 16.0536 80.1522 15 77.5 15ZM22.5 20C21.1739 20 19.9021 20.5268 18.9645 21.4645C18.0268 22.4021 17.5 23.6739 17.5 25C17.5 26.3261 18.0268 27.5979 18.9645 28.5355C19.9021 29.4732 21.1739 30 22.5 30C23.8261 30 25.0979 29.4732 26.0355 28.5355C26.9732 27.5979 27.5 26.3261 27.5 25C27.5 23.6739 26.9732 22.4021 26.0355 21.4645C25.0979 20.5268 23.8261 20 22.5 20ZM12.5 25C12.5 22.3478 13.5536 19.8043 15.4289 17.9289C17.3043 16.0536 19.8478 15 22.5 15C25.1522 15 27.6957 16.0536 29.5711 17.9289C31.4464 19.8043 32.5 22.3478 32.5 25C32.5 27.6522 31.4464 30.1957 29.5711 32.0711C27.6957 33.9464 25.1522 35 22.5 35C19.8478 35 17.3043 33.9464 15.4289 32.0711C13.5536 30.1957 12.5 27.6522 12.5 25ZM25 75C25.165 75 25.335 75 25.5 74.99C25.84 76.68 26.355 78.315 27.02 79.865C24.8989 80.1533 22.7407 79.9842 20.6903 79.3692C18.64 78.7542 16.745 77.7074 15.1328 76.2993C13.5205 74.8912 12.2283 73.1543 11.343 71.2054C10.4577 69.2565 9.99977 67.1406 10 65V46.25C10 42.8 12.8 40 16.25 40H26.895C25.8932 41.4955 25.2671 43.2108 25.07 45H16.25C15.9185 45 15.6005 45.1317 15.3661 45.3661C15.1317 45.6005 15 45.9185 15 46.25V65C15 67.6522 16.0536 70.1957 17.9289 72.0711C19.8043 73.9464 22.3478 75 25 75ZM85 47.5C87.5063 49.379 89.2158 52.1306 89.79 55.21L90 55.25V46.25C90 42.8 87.2 40 83.75 40H73.105C74.085 41.46 74.73 43.165 74.93 45H83.75C84.0815 45 84.3995 45.1317 84.6339 45.3661C84.8683 45.6005 85 45.9185 85 46.25V47.5ZM77.5 50H67.5C65.5109 50 63.6032 50.7902 62.1967 52.1967C60.7902 53.6032 60 55.5109 60 57.5V60H57.5C55.5109 60 53.6032 60.7902 52.1967 62.1967C50.7902 63.6032 50 65.5109 50 67.5V75H60V72.5C60 71.837 60.2634 71.2011 60.7322 70.7322C61.2011 70.2634 61.837 70 62.5 70C63.163 70 63.7989 70.2634 64.2678 70.7322C64.7366 71.2011 65 71.837 65 72.5V75H80V72.5C80 71.837 80.2634 71.2011 80.7322 70.7322C81.2011 70.2634 81.837 70 82.5 70C83.163 70 83.7989 70.2634 84.2678 70.7322C84.7366 71.2011 85 71.837 85 72.5V75H95V67.5C95 65.5109 94.2098 63.6032 92.8033 62.1967C91.3968 60.7902 89.4891 60 87.5 60H85V57.5C85 55.5109 84.2098 53.6032 82.8033 52.1967C81.3968 50.7902 79.4891 50 77.5 50ZM36.25 45C35.9185 45 35.6005 45.1317 35.3661 45.3661C35.1317 45.6005 35 45.9185 35 46.25V70C35 76.53 39.175 82.09 45 84.15V87.5C45 88.15 45.05 88.785 45.145 89.405C40.8192 88.3207 36.9795 85.8224 34.2357 82.3068C31.4918 78.7912 30.001 74.4597 30 70V46.25C30 42.8 32.8 40 36.25 40H63.75C66.775 40 69.3 42.15 69.875 45H36.25ZM65 60V57.5C65 56.837 65.2634 56.2011 65.7322 55.7322C66.2011 55.2634 66.837 55 67.5 55H77.5C78.163 55 78.7989 55.2634 79.2678 55.7322C79.7366 56.2011 80 56.837 80 57.5V60H65ZM85 80V82.5C85 83.163 84.7366 83.7989 84.2678 84.2678C83.7989 84.7366 83.163 85 82.5 85C81.837 85 81.2011 84.7366 80.7322 84.2678C80.2634 83.7989 80 83.163 80 82.5V80H65V82.5C65 83.163 64.7366 83.7989 64.2678 84.2678C63.7989 84.7366 63.163 85 62.5 85C61.837 85 61.2011 84.7366 60.7322 84.2678C60.2634 83.7989 60 83.163 60 82.5V80H50V87.5C50 89.4891 50.7902 91.3968 52.1967 92.8033C53.6032 94.2098 55.5109 95 57.5 95H87.5C89.4891 95 91.3968 94.2098 92.8033 92.8033C94.2098 91.3968 95 89.4891 95 87.5V80H85Z" fill="white"/>
</svg>
