<svg width="100" height="100" viewBox="0 0 100 100" fill="none" xmlns="http://www.w3.org/2000/svg">
<g clip-path="url(#clip0_86_54)">
<path fill-rule="evenodd" clip-rule="evenodd" d="M27.4998 40.7499C27.4998 40.7499 29.1998 40.5208 31.6665 39.8624C38.1707 38.127 49.9998 33.4166 49.9998 22.0874C49.9998 20.4344 49.6742 18.7976 49.0417 17.2704C48.4091 15.7432 47.4819 14.3556 46.313 13.1867C45.1442 12.0179 43.7565 11.0907 42.2294 10.4581C40.7022 9.82553 39.0653 9.49994 37.4123 9.49994H25.0873C23.4208 9.4785 21.7667 9.78822 20.2208 10.4111C18.6749 11.034 17.2682 11.9577 16.0821 13.1286C14.8961 14.2995 13.9544 15.6943 13.3116 17.232C12.6689 18.7697 12.3379 20.4198 12.3379 22.0864C12.3379 23.753 12.6689 25.4031 13.3116 26.9408C13.9544 28.4785 14.8961 29.8733 16.0821 31.0442C17.2682 32.2151 18.6749 33.1388 20.2208 33.7617C21.7667 34.3846 23.4208 34.6943 25.0873 34.6729H27.4998V40.7499ZM31.6665 30.5062H25.0873C23.9705 30.5238 22.8613 30.319 21.8244 29.9037C20.7874 29.4885 19.8435 28.8711 19.0475 28.0875C18.2514 27.3039 17.6193 26.3698 17.1878 25.3395C16.7563 24.3092 16.534 23.2034 16.534 22.0864C16.534 20.9694 16.7563 19.8636 17.1878 18.8333C17.6193 17.8031 18.2514 16.8689 19.0475 16.0853C19.8435 15.3017 20.7874 14.6843 21.8244 14.2691C22.8613 13.8538 23.9705 13.649 25.0873 13.6666H37.4123C38.5182 13.6666 39.6132 13.8844 40.6348 14.3076C41.6565 14.7308 42.5848 15.3511 43.3668 16.133C44.1487 16.915 44.769 17.8433 45.1922 18.8649C45.6153 19.8866 45.8332 20.9816 45.8332 22.0874C45.8332 27.4687 42.0665 31.052 36.9394 33.5249C35.2377 34.3335 33.4745 35.0057 31.6665 35.5354V30.5062ZM30.2082 63.6666C34.8123 63.6666 38.5415 59.9374 38.5415 55.3333C38.5415 50.7291 34.8123 46.9999 30.2082 46.9999C25.604 46.9999 21.8748 50.7291 21.8748 55.3333C21.8748 59.9374 25.604 63.6666 30.2082 63.6666ZM34.3748 55.3333C34.3748 56.4383 33.9358 57.4981 33.1544 58.2796C32.373 59.061 31.3132 59.4999 30.2082 59.4999C29.1031 59.4999 28.0433 59.061 27.2619 58.2796C26.4805 57.4981 26.0415 56.4383 26.0415 55.3333C26.0415 54.2282 26.4805 53.1684 27.2619 52.387C28.0433 51.6056 29.1031 51.1666 30.2082 51.1666C31.3132 51.1666 32.373 51.6056 33.1544 52.387C33.9358 53.1684 34.3748 54.2282 34.3748 55.3333ZM12.4998 76.7229C12.4998 70.8104 24.2977 67.8333 30.2082 67.8333C36.1186 67.8333 47.9165 70.8124 47.9165 76.7229V84.4999H12.4998V76.7229ZM16.6665 80.3333V76.7229C16.6665 76.702 16.6665 76.6604 16.7207 76.5562C16.7873 76.427 16.9394 76.1999 17.2686 75.8958C17.954 75.2604 19.1019 74.5666 20.6915 73.927C23.879 72.6458 27.7748 71.9999 30.2082 71.9999C32.6394 71.9999 36.5394 72.6458 39.7248 73.927C41.3123 74.5666 42.4623 75.2604 43.1477 75.8958C43.4769 76.1999 43.629 76.427 43.6957 76.5541C43.7498 76.6583 43.7498 76.7041 43.7498 76.7208V80.3333H16.6665ZM78.1248 55.3333C78.1248 59.9374 74.3957 63.6666 69.7915 63.6666C65.1873 63.6666 61.4582 59.9374 61.4582 55.3333C61.4582 50.7291 65.1873 46.9999 69.7915 46.9999C74.3957 46.9999 78.1248 50.7291 78.1248 55.3333ZM69.7915 59.4999C70.8966 59.4999 71.9564 59.061 72.7378 58.2796C73.5192 57.4981 73.9582 56.4383 73.9582 55.3333C73.9582 54.2282 73.5192 53.1684 72.7378 52.387C71.9564 51.6056 70.8966 51.1666 69.7915 51.1666C68.6864 51.1666 67.6266 51.6056 66.8452 52.387C66.0638 53.1684 65.6248 54.2282 65.6248 55.3333C65.6248 56.4383 66.0638 57.4981 66.8452 58.2796C67.6266 59.061 68.6864 59.4999 69.7915 59.4999ZM52.0832 76.7229C52.0832 70.8104 63.8811 67.8333 69.7915 67.8333C75.7019 67.8333 87.4998 70.8124 87.4998 76.7229V84.4999H52.0832V76.7229ZM56.2498 80.3333V76.7229C56.2498 76.702 56.2498 76.6604 56.304 76.5562C56.3707 76.427 56.5227 76.1999 56.8498 75.8958C57.5373 75.2604 58.6873 74.5666 60.2748 73.927C63.4623 72.6458 67.3582 71.9999 69.7915 71.9999C72.2227 71.9999 76.1227 72.6458 79.3082 73.927C80.8957 74.5666 82.0457 75.2604 82.7332 75.8958C83.0602 76.1999 83.2123 76.427 83.279 76.5541C83.3332 76.6583 83.3332 76.7041 83.3332 76.7208V80.3333H56.2498ZM69.9998 41.8041C72.4373 42.5708 74.1665 42.8333 74.1665 42.8333V36.7562H74.9123C76.5788 36.7776 78.233 36.4679 79.7789 35.845C81.3247 35.2221 82.7315 34.2984 83.9175 33.1275C85.1036 31.9566 86.0453 30.5619 86.688 29.0241C87.3308 27.4864 87.6618 25.8364 87.6618 24.1697C87.6618 22.5031 87.3308 20.853 86.688 19.3153C86.0453 17.7776 85.1036 16.3828 83.9175 15.212C82.7315 14.0411 81.3247 13.1174 79.7789 12.4945C78.233 11.8716 76.5788 11.5618 74.9123 11.5833H66.754C63.4156 11.5833 60.2139 12.9095 57.8533 15.2701C55.4927 17.6307 54.1665 20.8324 54.1665 24.1708C54.1665 35.2041 64.1394 39.9624 69.9998 41.8041ZM74.9123 32.5895H69.9998V37.4083C68.677 36.9358 67.3914 36.3648 66.154 35.6999C61.8123 33.3437 58.3332 29.8083 58.3332 24.1687C58.3337 21.9357 59.2211 19.7944 60.8003 18.2156C62.3794 16.6369 64.521 15.7499 66.754 15.7499H74.9123C76.0292 15.7324 77.1384 15.9372 78.1753 16.3524C79.2122 16.7677 80.1562 17.3851 80.9522 18.1687C81.7482 18.9523 82.3804 19.8864 82.8119 20.9167C83.2434 21.9469 83.4656 23.0527 83.4656 24.1697C83.4656 25.2867 83.2434 26.3925 82.8119 27.4228C82.3804 28.4531 81.7482 29.3872 80.9522 30.1708C80.1562 30.9544 79.2122 31.5718 78.1753 31.987C77.1384 32.4023 76.0292 32.6071 74.9123 32.5895Z" fill="#095073"/>
</g>
<defs>
<clipPath id="clip0_86_54">
<rect width="100" height="100" fill="white"/>
</clipPath>
</defs>
</svg>
