<svg width="100" height="100" viewBox="0 0 100 100" fill="none" xmlns="http://www.w3.org/2000/svg">
<path d="M10 21.59V40C9.99993 43.5291 10.747 47.0182 12.1922 50.2379C13.6373 53.4575 15.7478 56.3347 18.3847 58.6802C21.0216 61.0257 24.1252 62.7863 27.4914 63.8463C30.8575 64.9062 34.41 65.2415 37.915 64.83C38.865 66.72 40.025 68.49 41.365 70.1L30.68 80.785C30.2246 81.2565 29.9726 81.888 29.9783 82.5435C29.984 83.199 30.2469 83.826 30.7105 84.2896C31.174 84.7531 31.801 85.016 32.4565 85.0217C33.112 85.0274 33.7435 84.7754 34.215 84.32L44.9 73.635C48.916 76.9801 53.8022 79.1114 58.986 79.7793C64.1698 80.4471 69.4366 79.6239 74.1694 77.406C78.9021 75.1881 82.9048 71.6674 85.7086 67.2564C88.5123 62.8454 90.0009 57.7267 90 52.5V32.05C90 28.15 86.85 25 82.95 25H62.5C60.125 25 57.82 25.3 55.625 25.865C53.33 22.5132 50.252 19.7718 46.6579 17.8785C43.0639 15.9852 39.0622 14.9971 35 15H16.59C12.95 15 10 17.95 10 21.59ZM48.455 70.08L64.27 54.27C64.7394 53.8012 65.0034 53.1652 65.0039 52.5018C65.0044 51.8384 64.7413 51.2019 64.2725 50.7325C63.8037 50.2631 63.1677 49.9991 62.5043 49.9986C61.8409 49.9981 61.2044 50.2612 60.735 50.73L44.915 66.55C42.2683 63.2394 40.6105 59.2485 40.1325 55.037C39.6546 50.8254 40.376 46.5646 42.2137 42.7451C44.0513 38.9256 46.9304 35.7028 50.5195 33.448C54.1085 31.1932 58.2614 29.9979 62.5 30H82.95C83.2192 30 83.4858 30.053 83.7345 30.1561C83.9832 30.2591 84.2092 30.4101 84.3996 30.6004C84.5899 30.7908 84.7409 31.0168 84.8439 31.2655C84.947 31.5142 85 31.7808 85 32.05V52.5C85.0004 56.7373 83.8042 60.8885 81.5493 64.4759C79.2943 68.0633 76.0722 70.941 72.2538 72.7779C68.4353 74.6148 64.1759 75.336 59.9656 74.8588C55.7553 74.3815 51.7653 72.725 48.455 70.08ZM35 20C41.38 20 47.065 22.99 50.725 27.64C45.3605 30.19 40.9612 34.4017 38.18 39.65L29.27 30.73C29.0376 30.4976 28.7616 30.3132 28.4579 30.1874C28.1542 30.0616 27.8287 29.9968 27.5 29.9968C27.1713 29.9968 26.8458 30.0616 26.5421 30.1874C26.2384 30.3132 25.9624 30.4976 25.73 30.73C25.4976 30.9624 25.3132 31.2384 25.1874 31.5421C25.0616 31.8458 24.9968 32.1713 24.9968 32.5C24.9968 32.8287 25.0616 33.1542 25.1874 33.4579C25.3132 33.7616 25.4976 34.0376 25.73 34.27L36.13 44.67C35.378 47.2119 34.9974 49.8492 35 52.5C35 55.09 35.36 57.6 36.03 59.975C33.3203 60.1147 30.6105 59.7017 28.0655 58.7609C25.5205 57.8201 23.1936 56.3714 21.2263 54.5027C19.259 52.6341 17.6925 50.3848 16.6221 47.8915C15.5517 45.3983 14.9998 42.7133 15 40V21.59C15 20.71 15.71 20 16.59 20H35Z" fill="#00569E"/>
</svg>
