<svg width="102" height="102" viewBox="0 0 102 102" fill="none" xmlns="http://www.w3.org/2000/svg">
<path d="M50.5673 2H10.0945C7.94774 2 5.88886 2.85282 4.37084 4.37084C2.85282 5.88886 2 7.94774 2 10.0945V69.4545C2 71.6013 2.85282 73.6602 4.37084 75.1782C5.88886 76.6963 7.94774 77.5491 10.0945 77.5491H91.04C93.1868 77.5491 95.2457 76.6963 96.7637 75.1782C98.2817 73.6602 99.1345 71.6013 99.1345 69.4545V55.9636M50.5673 77.5491V99.1345M23.5855 99.1345H77.5491" stroke="black" stroke-width="4" stroke-linecap="round" stroke-linejoin="round"/>
<path d="M84.7142 7H98.9999V21.2857H84.7142V7ZM84.7142 28.4286H98.9999V42.7143H84.7142V28.4286ZM63.2856 7H77.5714V21.2857H63.2856V7ZM63.2856 28.4286H77.5714V42.7143H63.2856V28.4286Z" fill="black"/>
</svg>
