<svg width="100" height="100" viewBox="0 0 100 100" fill="none" xmlns="http://www.w3.org/2000/svg">
<path d="M25 48.3613V75.0002H51.6389L46.0833 69.4446H30.5556V53.9168L25 48.3613Z" fill="black"/>
<path d="M96.8613 89.6947L88.889 81.6114V88.8892H11.1113V77.3614H16.6668V72.9169H11.1113V54.4447H16.6668V50.0003H11.1113V32.2225H16.6668V27.7781H11.1113V12.2503L55.389 56.2781V48.4447L10.3057 3.58361C9.91718 3.19186 9.42079 2.9247 8.87982 2.81617C8.33886 2.70764 7.77783 2.76267 7.26826 2.97425C6.7587 3.18582 6.32368 3.54435 6.01868 4.00413C5.71367 4.46391 5.5525 5.0041 5.55571 5.55583V91.6669C5.55571 92.4037 5.84837 93.1102 6.3693 93.6311C6.89024 94.1521 7.59678 94.4447 8.33349 94.4447H94.889C95.4408 94.4479 95.981 94.2868 96.4407 93.9818C96.9005 93.6768 97.259 93.2417 97.4706 92.7322C97.6822 92.2226 97.7372 91.6616 97.6287 91.1206C97.5202 90.5796 97.253 90.0833 96.8613 89.6947Z" fill="black"/>
<path d="M66.6666 83.3335H77.7778C79.2512 83.3335 80.6643 82.7482 81.7061 81.7064C82.748 80.6645 83.3333 79.2514 83.3333 77.778V24.1669L76.9444 12.4169C76.4503 11.5608 75.7367 10.8521 74.8774 10.3638C74.018 9.8755 73.0439 9.62533 72.0555 9.63909C71.0448 9.64711 70.0554 9.93071 69.194 10.4593C68.3325 10.988 67.6315 11.7416 67.1666 12.6391L61.1111 24.2224V77.778C61.1111 79.2514 61.6964 80.6645 62.7383 81.7064C63.7801 82.7482 65.1932 83.3335 66.6666 83.3335ZM66.6666 25.5558L72.0555 15.0835L77.7778 25.5835V66.6669H66.6666V25.5558ZM66.6666 71.1946H77.7778V77.9724H66.6666V71.1946Z" fill="black"/>
</svg>
