<svg width="100" height="95" viewBox="0 0 100 95" fill="none" xmlns="http://www.w3.org/2000/svg">
<rect y="0.000244141" width="98.8095" height="3.57143" rx="1.78571" fill="black"/>
<rect y="22.6193" width="98.8095" height="3.57143" rx="1.78571" fill="black"/>
<rect x="2.38086" y="84.524" width="46.4286" height="3.57143" rx="1.78571" fill="black"/>
<rect y="88.0955" width="88.0952" height="3.57143" rx="1.78571" transform="rotate(-90 0 88.0955)" fill="black"/>
<rect x="95.238" y="44.0479" width="44.0476" height="3.57143" rx="1.78571" transform="rotate(-90 95.238 44.0479)" fill="black"/>
<circle cx="76.1906" cy="13.0955" r="3.57143" fill="black"/>
<circle cx="65.4762" cy="13.0955" r="3.57143" fill="black"/>
<circle cx="86.9047" cy="13.0955" r="3.57143" fill="black"/>
<path d="M76.2533 81.6094C69.9711 81.6094 64.9453 76.5836 64.9453 70.3014C64.9453 64.0192 69.9711 58.9935 76.2533 58.9935C82.5355 58.9935 87.5612 64.0192 87.5612 70.3014C87.5612 76.5836 82.5355 81.6094 76.2533 81.6094ZM76.2533 61.5063C71.3532 61.5063 67.4582 65.4013 67.4582 70.3014C67.4582 75.2015 71.3532 79.0965 76.2533 79.0965C81.1534 79.0965 85.0483 75.2015 85.0483 70.3014C85.0483 65.4013 81.1534 61.5063 76.2533 61.5063Z" fill="black"/>
<path d="M79.6456 94.1735H72.8608L70.9762 88.3939C69.7197 88.017 68.4633 87.5144 67.3325 86.8862L61.8042 89.6503L57.0297 84.8759L59.7939 79.3475C59.1656 78.2167 58.6631 76.9603 58.2861 75.7039L52.3809 73.6936V66.9088L58.1605 65.0241C58.5374 63.7677 59.04 62.5113 59.6682 61.3805L56.904 55.8521L61.6785 51.0777L67.2068 53.8418C68.3376 53.2136 69.5941 52.711 70.8505 52.3341L72.8608 46.4288H79.6456L81.5303 52.2085C82.7867 52.5854 84.0431 53.088 85.1739 53.7162L90.7023 50.952L95.4767 55.7265L92.7126 61.2548C93.3408 62.3856 93.8434 63.642 94.2203 64.8985L99.9999 66.7831V73.5679L94.2203 75.4526C93.8434 76.709 93.3408 77.9655 92.7126 79.0962L95.4767 84.6246L90.7023 89.3991L85.1739 86.6349C84.0431 87.2631 82.7867 87.7657 81.5303 88.1426L79.6456 94.1735ZM74.6198 91.6606H77.8866L79.6456 86.258L80.2738 86.1323C81.7815 85.7554 83.1636 85.1272 84.5457 84.3733L85.1739 83.9964L90.1997 86.5092L92.4613 84.2476L89.9484 79.2219L90.3253 78.5937C91.0792 77.3372 91.7074 75.8295 92.0843 74.3218L92.21 73.6936L97.6127 71.9345V68.6678L92.21 66.9088L92.0843 66.2806C91.7074 64.7728 91.0792 63.3908 90.3253 62.0087L89.9484 61.3805L92.4613 56.3547L90.1997 54.0931L85.1739 56.606L84.5457 56.2291C83.1636 55.4752 81.7815 54.847 80.2738 54.47L79.6456 54.3444L77.8866 48.9417H74.6198L72.8608 54.3444L72.2326 54.47C70.7249 54.847 69.3428 55.4752 67.9607 56.2291L67.3325 56.606L62.3067 54.0931L60.0451 56.3547L62.558 61.3805L62.1811 62.0087C61.4272 63.2651 60.799 64.7728 60.4221 66.2806L60.2964 66.9088L54.8937 68.6678V71.9345L60.2964 73.6936L60.4221 74.3218C60.799 75.8295 61.4272 77.2116 62.1811 78.5937L62.558 79.2219L60.0451 84.2476L62.3067 86.5092L67.3325 83.9964L67.9607 84.3733C69.3428 85.1272 70.7249 85.7554 72.2326 86.1323L72.8608 86.258L74.6198 91.6606Z" fill="black"/>
</svg>
