<svg width="104" height="102" viewBox="0 0 104 102" fill="none" xmlns="http://www.w3.org/2000/svg">
<path d="M50.5673 2H10.0945C7.94774 2 5.88886 2.85282 4.37084 4.37084C2.85282 5.88886 2 7.94774 2 10.0945V69.4545C2 71.6013 2.85282 73.6602 4.37084 75.1782C5.88886 76.6963 7.94774 77.5491 10.0945 77.5491H91.04C93.1868 77.5491 95.2457 76.6963 96.7637 75.1782C98.2817 73.6602 99.1345 71.6013 99.1345 69.4545V55.9636M50.5673 77.5491V99.1345M23.5855 99.1345H77.5491" stroke="black" stroke-width="4" stroke-linecap="round" stroke-linejoin="round"/>
<path d="M85.6436 28.9818C90.1141 28.9818 93.7382 25.3578 93.7382 20.8873C93.7382 16.4168 90.1141 12.7927 85.6436 12.7927C81.1731 12.7927 77.5491 16.4168 77.5491 20.8873C77.5491 25.3578 81.1731 28.9818 85.6436 28.9818Z" stroke="black" stroke-width="4"/>
<path d="M85.6435 39.7745V28.9818M85.6435 12.7927V2M69.2871 30.3309L78.6336 24.9345M92.6534 16.84L102 11.4436M69.2871 11.4436L78.6336 16.84M92.6534 24.9345L102 30.3309" stroke="black" stroke-width="4" stroke-linecap="round" stroke-linejoin="round"/>
</svg>
