<svg width="107" height="119" viewBox="0 0 107 119" fill="none" xmlns="http://www.w3.org/2000/svg">
<path d="M50.5673 19H10.0945C7.94774 19 5.88886 19.8528 4.37084 21.3708C2.85282 22.8889 2 24.9477 2 27.0945V86.4545C2 88.6013 2.85282 90.6602 4.37084 92.1782C5.88886 93.6963 7.94774 94.5491 10.0945 94.5491H91.04C93.1868 94.5491 95.2457 93.6963 96.7637 92.1782C98.2817 90.6602 99.1345 88.6013 99.1345 86.4545V72.9636M50.5673 94.5491V116.135M23.5855 116.135H77.5491" stroke="black" stroke-width="4" stroke-linecap="round" stroke-linejoin="round"/>
<path fill-rule="evenodd" clip-rule="evenodd" d="M43.6761 60.3604L33 49.9012V46.3735L45.7096 58.9737C47.5051 60.4404 45.6338 62.8175 43.6762 60.3604H43.6761ZM59.2541 57.8319C62.1494 52.9014 64.7927 46.3491 66.3479 40H62.3898C61.5994 47.4103 59.7567 51.7835 58.3105 58.1931C57.8568 58.2582 57.3962 58.2582 56.9425 58.1931C55.4962 51.7835 53.6535 47.4103 52.8632 40H48.905C50.4601 46.3491 53.1034 52.9014 55.9987 57.8318C52.2591 54.7108 46.7189 44.2918 45.7187 40H44.26C45.4067 44.6646 51.1808 53.2188 54.5247 57.5065C49.4279 52.2992 44.8147 45.5177 43.1084 40H33V43.6199L48.6185 59.0589L53.9508 69.147C56.043 73.4233 50.9297 70.4129 42.0429 65.4364L33 56.5168V74H67V49.8463C64.96 52.8806 63.1599 54.8525 60.7282 57.5066C62.4886 55.2493 64.9223 51.8096 67 48.3775V46.3599C64.7132 50.9192 61.5704 56.0008 59.2541 57.8319ZM61.0481 60.4229L54.4312 60.4269L55.343 64.4189L60.1612 64.4351L61.0481 60.4228V60.4229Z" fill="#00A310"/>
<rect x="74" y="41" width="32" height="32" fill="#310048" stroke="#CA87FF" stroke-width="2"/>
<path d="M80.0435 64H77.714L82.9483 49.4545H85.4838L90.7182 64H88.3887L84.2765 52.0966H84.1628L80.0435 64ZM80.4341 58.304H87.9909V60.1506H80.4341V58.304ZM97.1742 64.2202C96.0994 64.2202 95.1737 63.9905 94.3972 63.5312C93.6254 63.0672 93.0288 62.4162 92.6074 61.5781C92.1908 60.7353 91.9824 59.7481 91.9824 58.6165C91.9824 57.4991 92.1908 56.5142 92.6074 55.6619C93.0288 54.8097 93.6159 54.1444 94.3688 53.6662C95.1264 53.188 96.0118 52.9489 97.025 52.9489C97.6406 52.9489 98.2372 53.0507 98.8148 53.2543C99.3925 53.4579 99.9109 53.7775 100.37 54.2131C100.829 54.6487 101.192 55.2145 101.457 55.9105C101.722 56.6018 101.855 57.4422 101.855 58.4318V59.1847H93.1827V57.5938H99.7736C99.7736 57.035 99.66 56.5402 99.4327 56.1094C99.2054 55.6738 98.8858 55.3305 98.4739 55.0795C98.0667 54.8286 97.5885 54.7031 97.0392 54.7031C96.4426 54.7031 95.9218 54.8499 95.4767 55.1435C95.0364 55.4323 94.6955 55.8111 94.454 56.2798C94.2173 56.7438 94.0989 57.2481 94.0989 57.7926V59.0355C94.0989 59.7647 94.2267 60.3849 94.4824 60.8963C94.7428 61.4077 95.1051 61.7983 95.5691 62.0682C96.0331 62.3333 96.5752 62.4659 97.1955 62.4659C97.598 62.4659 97.9649 62.4091 98.2963 62.2955C98.6278 62.1771 98.9142 62.0019 99.1557 61.7699C99.3972 61.5379 99.5819 61.2514 99.7097 60.9105L101.72 61.2727C101.559 61.8646 101.27 62.383 100.853 62.8281C100.441 63.2685 99.9228 63.6117 99.2978 63.858C98.6775 64.0994 97.9696 64.2202 97.1742 64.2202Z" fill="#CA87FF"/>
<rect x="74" y="1" width="32" height="32" fill="#422800" stroke="#FF7A00" stroke-width="2"/>
<path d="M83.2857 24H80.9561L86.1905 9.45455H88.726L93.9604 24H91.6309L87.5186 12.0966H87.405L83.2857 24ZM83.6763 18.304H91.2331V20.1506H83.6763V18.304ZM95.9881 24V13.0909H98.1117V24H95.9881ZM97.0605 11.4077C96.6912 11.4077 96.374 11.2846 96.1088 11.0384C95.8484 10.7874 95.7182 10.4891 95.7182 10.1435C95.7182 9.79309 95.8484 9.49479 96.1088 9.24858C96.374 8.99763 96.6912 8.87216 97.0605 8.87216C97.4299 8.87216 97.7447 8.99763 98.0051 9.24858C98.2703 9.49479 98.4029 9.79309 98.4029 10.1435C98.4029 10.4891 98.2703 10.7874 98.0051 11.0384C97.7447 11.2846 97.4299 11.4077 97.0605 11.4077Z" fill="#FF7A00"/>
<rect x="34" y="1" width="32" height="32" fill="#01003E" stroke="#019FE7" stroke-width="2"/>
<path d="M39.8402 24V9.45455H45.0249C46.1565 9.45455 47.094 9.66051 47.8374 10.0724C48.5807 10.4844 49.1371 11.0478 49.5064 11.7628C49.8757 12.473 50.0604 13.2732 50.0604 14.1634C50.0604 15.0582 49.8733 15.8632 49.4993 16.5781C49.13 17.2884 48.5713 17.8518 47.8232 18.2685C47.0798 18.6804 46.1446 18.8864 45.0178 18.8864H41.4524V17.0256H44.8189C45.5339 17.0256 46.1139 16.9025 46.5589 16.6562C47.004 16.4053 47.3307 16.0644 47.5391 15.6335C47.7474 15.2027 47.8516 14.7126 47.8516 14.1634C47.8516 13.6141 47.7474 13.1264 47.5391 12.7003C47.3307 12.2741 47.0017 11.9403 46.5518 11.6989C46.1068 11.4574 45.5196 11.3366 44.7905 11.3366H42.0348V24H39.8402ZM60.6374 15.7543L58.7127 16.0952C58.6322 15.849 58.5044 15.6146 58.3292 15.392C58.1587 15.1695 57.9267 14.9872 57.6332 14.8452C57.3396 14.7031 56.9727 14.6321 56.5323 14.6321C55.931 14.6321 55.4291 14.767 55.0266 15.0369C54.6242 15.3021 54.4229 15.6454 54.4229 16.0668C54.4229 16.4313 54.5579 16.7249 54.8278 16.9474C55.0977 17.17 55.5333 17.3523 56.1346 17.4943L57.8675 17.892C58.8713 18.1241 59.6194 18.4815 60.1119 18.9645C60.6043 19.4474 60.8505 20.0748 60.8505 20.8466C60.8505 21.5 60.6611 22.0824 60.2823 22.5938C59.9083 23.1004 59.3851 23.4981 58.7127 23.7869C58.0451 24.0758 57.271 24.2202 56.3903 24.2202C55.1687 24.2202 54.172 23.9598 53.4002 23.4389C52.6284 22.9134 52.1549 22.1676 51.9798 21.2017L54.0323 20.8892C54.1602 21.4242 54.4229 21.8291 54.8207 22.1037C55.2184 22.3736 55.7369 22.5085 56.3761 22.5085C57.0721 22.5085 57.6284 22.3641 58.0451 22.0753C58.4618 21.7817 58.6701 21.4242 58.6701 21.0028C58.6701 20.6619 58.5423 20.3755 58.2866 20.1435C58.0356 19.9115 57.6497 19.7363 57.1289 19.6179L55.2823 19.2131C54.2643 18.9811 53.5115 18.6117 53.0238 18.1051C52.5408 17.5985 52.2994 16.9569 52.2994 16.1804C52.2994 15.5365 52.4793 14.973 52.8391 14.4901C53.199 14.0071 53.6961 13.6307 54.3306 13.3608C54.9651 13.0862 55.6919 12.9489 56.511 12.9489C57.69 12.9489 58.618 13.2045 59.2951 13.7159C59.9722 14.2225 60.4196 14.902 60.6374 15.7543Z" fill="#019FE7"/>
</svg>
