<svg width="633" height="668" viewBox="0 0 633 668" fill="none" xmlns="http://www.w3.org/2000/svg">
<path d="M46.7452 251.893H37.7773C17.6827 251.893 1.40771 268.209 1.40771 288.354V488.636C1.40771 508.78 17.6827 525.096 37.7773 525.096H161.334C181.429 525.096 197.704 508.78 197.704 488.636" stroke="#263238" stroke-width="1.1031" stroke-miterlimit="10" stroke-linecap="round" stroke-linejoin="round" stroke-dasharray="4.41 4.41"/>
<path d="M187.573 62.7661V23.309C187.573 10.9891 197.538 1 209.827 1H370.418C382.707 1 392.672 10.9891 392.672 23.309" stroke="#263238" stroke-width="1.1031" stroke-miterlimit="10" stroke-linecap="round" stroke-linejoin="round" stroke-dasharray="4.41 4.41"/>
<path d="M631.981 115.875V415.715C631.981 436.193 615.54 452.675 595.113 452.675H69.165C48.7382 452.675 32.2971 436.193 32.2971 415.715V115.875C32.2971 115.042 32.2971 114.21 32.4632 113.211C33.7918 94.0652 49.7346 78.915 69.165 78.915H595.113C614.543 78.915 630.486 94.0652 631.815 113.211C631.981 114.21 631.981 115.042 631.981 115.875Z" fill="#F6FCFF" stroke="#263238" stroke-width="1.1031" stroke-miterlimit="10" stroke-linecap="round" stroke-linejoin="round"/>
<path d="M581.329 438.69H84.7757C65.6775 438.69 50.2329 423.207 50.2329 404.061V127.196H615.872V404.061C615.872 423.207 600.427 438.69 581.329 438.69Z" fill="#263238"/>
<path opacity="0.2" d="M615.872 127.196V404.061C615.872 423.207 600.593 438.69 581.661 438.69H84.4436C65.5115 438.69 50.2329 423.207 50.2329 404.061V127.196H615.872Z" fill="#F6FCFF"/>
<path d="M631.815 113.377H32.4637C33.7923 94.0652 49.7352 78.915 69.1655 78.915H595.113C614.544 78.915 630.486 94.0652 631.815 113.377Z" fill="#023887" stroke="#263238" stroke-width="1.1031" stroke-miterlimit="10"/>
<path d="M106.033 96.063C106.033 99.7257 103.044 102.556 99.556 102.556C95.9024 102.556 93.0792 99.5592 93.0792 96.063C93.0792 92.4004 96.0685 89.5701 99.556 89.5701C103.21 89.5701 106.033 92.5669 106.033 96.063Z" fill="#263238"/>
<path d="M133.601 96.063C133.601 99.7257 130.611 102.556 127.124 102.556C123.47 102.556 120.647 99.5592 120.647 96.063C120.647 92.4004 123.636 89.5701 127.124 89.5701C130.777 89.5701 133.601 92.5669 133.601 96.063Z" fill="#263238"/>
<path d="M154.692 102.556C158.269 102.556 161.169 99.649 161.169 96.063C161.169 92.4771 158.269 89.5701 154.692 89.5701C151.115 89.5701 148.215 92.4771 148.215 96.063C148.215 99.649 151.115 102.556 154.692 102.556Z" fill="#263238"/>
<path d="M615.872 127.196V404.061C615.872 423.207 600.427 438.69 581.329 438.69H84.7757C68.0025 438.69 54.0526 426.703 50.8972 410.72C50.399 408.556 50.2329 406.392 50.2329 404.061V127.196H615.872Z" stroke="#263238" stroke-width="1.1031" stroke-miterlimit="10"/>
<path d="M615.374 169.983C612.883 168.651 610.391 167.485 607.734 166.819L604.579 152.835H591.459L588.304 166.819C585.647 167.485 582.99 168.651 580.665 169.983L568.708 162.324L559.408 171.647L566.881 183.634C565.552 186.132 564.39 188.629 563.725 191.293L549.775 194.456V207.608L563.725 210.771C564.39 213.435 565.552 216.099 566.881 218.596L559.241 230.583L568.541 239.906L580.499 232.248C582.99 233.58 585.481 234.745 588.138 235.411L591.293 249.23H604.413L607.568 235.411C610.225 234.579 612.883 233.58 615.208 232.248L615.872 232.581V169.65L615.374 169.983ZM598.102 218.263C588.636 218.263 580.997 210.605 580.997 201.115C580.997 191.626 588.636 183.967 598.102 183.967C607.568 183.967 615.208 191.626 615.208 201.115C615.041 210.605 607.402 218.263 598.102 218.263Z" fill="#263238"/>
<path d="M377.726 183.468V155.665L348.497 149.172C346.836 143.511 344.677 138.017 341.854 132.856L345.342 127.196H207.336L210.824 132.69C208.001 137.851 205.676 143.345 204.181 149.005L174.953 155.498V183.301L204.181 189.794C205.676 195.455 208.001 200.949 210.824 206.11L194.715 231.416L214.311 251.061L239.554 234.912C244.702 237.742 250.183 240.073 255.829 241.571L262.306 270.873H290.04L296.517 241.571C302.163 239.906 307.644 237.742 312.626 234.912L337.869 251.061L357.465 231.416L341.522 206.11C344.345 200.949 346.67 195.455 348.165 189.794L377.726 183.468ZM276.422 205.444C256.66 205.444 240.551 189.295 240.551 169.483C240.551 149.671 256.66 133.522 276.422 133.522C296.185 133.522 312.294 149.671 312.294 169.483C312.294 189.295 296.185 205.444 276.422 205.444Z" fill="#263238"/>
<path d="M193.22 374.759L194.383 352.617L171.465 346.124C170.468 341.629 168.808 337.134 166.815 332.972L180.599 313.493L165.818 297.011L145.06 308.665C141.074 306.168 136.922 304.17 132.438 302.671L128.619 279.363L106.531 278.198L100.22 301.173C95.7364 302.172 91.2525 303.837 87.1007 305.835L67.6703 292.016L51.2293 306.833L63.0203 327.644C60.5293 331.64 58.5364 335.802 57.0418 340.297L50.3989 341.462V371.43L55.215 372.762C56.2114 377.257 57.8721 381.752 59.865 385.914L50.3989 399.233L51.0632 410.72L60.8614 421.708L81.6203 410.054C85.606 412.552 89.7578 414.716 94.2418 416.214L98.0614 438.856L98.2275 439.855L120.315 441.021L120.979 438.856L126.792 418.046C131.442 417.047 135.76 415.382 139.911 413.384L159.176 427.202L175.617 412.385L163.992 391.575C166.483 387.579 168.476 383.417 169.97 378.922L193.22 374.759ZM134.597 340.297C123.969 328.477 106.033 327.644 94.2418 338.133C82.4507 348.788 81.6203 366.768 92.0828 378.589C102.711 390.409 120.647 391.242 132.438 380.753C144.229 370.264 145.226 352.117 134.597 340.297Z" fill="#263238"/>
<path d="M369.588 341.795C370.418 338.299 370.916 334.803 370.916 331.307L386.693 322.983L382.375 306.834L364.44 307.666C362.613 304.669 360.454 301.839 357.963 299.342L363.277 282.194L348.829 273.869L336.706 287.022C333.384 286.189 329.731 285.69 326.243 285.69L317.94 269.707L301.831 274.036L302.661 292.016C299.672 293.848 296.849 296.012 294.358 298.509L277.252 293.182L268.949 307.666L282.234 319.819C281.404 323.316 280.906 326.812 280.906 330.308L264.963 338.632L269.281 354.781L287.217 353.949C289.043 356.946 291.202 359.776 293.693 362.273L288.379 379.421L302.827 387.745L314.784 374.593C318.272 375.426 321.759 375.925 325.247 375.925L333.55 391.908L349.659 387.579L348.995 372.262L348.829 369.599C351.818 367.767 354.642 365.603 357.299 363.106L374.404 368.433L381.545 356.113L382.708 353.949L369.588 341.795ZM331.724 351.618C320.265 354.781 308.474 347.955 305.318 336.468C302.163 324.98 308.972 313.16 320.431 309.997C331.89 306.834 343.681 313.659 346.836 325.147C349.825 336.634 343.183 348.455 331.724 351.618Z" fill="#263238"/>
<path d="M553.595 370.098L557.249 347.955L534.829 338.965C534.331 334.304 533.168 329.642 531.674 325.147L547.782 307.167L534.829 288.853L512.575 298.343C508.922 295.346 504.936 292.849 500.618 290.851L499.29 266.711L477.202 263.048L468.234 285.357C463.584 285.856 458.934 287.022 454.45 288.52L436.515 272.371L418.247 285.357L427.713 307.499C425.056 310.829 422.897 314.325 421.07 317.988C420.738 318.488 420.572 318.987 420.24 319.486L396.159 320.818L392.506 342.961L396.159 344.459L414.925 351.951C415.424 356.613 416.42 361.274 418.081 365.769L401.972 383.75L414.925 402.063L437.179 392.573C440.833 395.57 444.818 398.068 449.136 400.065L450.465 424.039L472.552 427.702L481.52 405.559C486.17 405.06 490.82 403.895 495.304 402.396L513.24 418.545L531.508 405.393L522.041 383.084C525.031 379.421 527.522 375.259 529.681 371.097L553.595 370.098ZM491.65 369.099C478.697 378.422 460.595 375.426 451.295 362.44C441.995 349.454 444.984 331.307 457.938 321.984C470.891 312.661 488.993 315.657 498.293 328.643C507.593 341.795 504.604 359.776 491.65 369.099Z" fill="#263238"/>
<path d="M254.169 490.966H80.458C68.5008 490.966 58.7026 481.144 58.7026 469.157V228.086C58.7026 216.099 68.5008 206.276 80.458 206.276H254.169C266.126 206.276 275.924 216.099 275.924 228.086V469.157C275.924 481.144 266.292 490.966 254.169 490.966Z" fill="#023887" stroke="#263238" stroke-width="1.1031" stroke-miterlimit="10"/>
<path opacity="0.2" d="M254.169 490.966H80.458C68.5008 490.966 58.7026 481.144 58.7026 469.157V228.086C58.7026 216.099 68.5008 206.276 80.458 206.276H254.169C266.126 206.276 275.924 216.099 275.924 228.086V469.157C275.924 481.144 266.292 490.966 254.169 490.966Z" fill="black"/>
<path d="M296.185 249.562V490.633C296.185 502.62 286.387 512.443 274.43 512.443H100.719C88.7617 512.443 78.9635 502.62 78.9635 490.633V249.562C78.9635 237.575 88.7617 227.753 100.719 227.753H274.43C286.387 227.753 296.185 237.575 296.185 249.562Z" fill="#F6FCFF" stroke="#263238" stroke-width="1.1031" stroke-miterlimit="10" stroke-linecap="round" stroke-linejoin="round"/>
<path d="M296.185 249.562V262.548H78.9635V249.562C78.9635 237.576 88.7617 227.753 100.719 227.753H274.43C286.387 227.753 296.185 237.576 296.185 249.562Z" fill="#023887" stroke="#263238" stroke-width="1.1031" stroke-miterlimit="10"/>
<path d="M152.865 277.366H99.3903V286.356H152.865V277.366Z" fill="#023887"/>
<path d="M152.865 357.945H99.3903V366.935H152.865V357.945Z" fill="#023887"/>
<path d="M152.865 431.032H99.3903V440.022H152.865V431.032Z" fill="#023887"/>
<path d="M251.179 299.675H99.3903V306.334H251.179V299.675Z" fill="#263238"/>
<path d="M223.778 312.327H99.3903V318.82H223.778V312.327Z" fill="#263238"/>
<path d="M240.053 324.647H99.3903V331.14H240.053V324.647Z" fill="#263238"/>
<path d="M240.053 337.134H99.3903V343.627H240.053V337.134Z" fill="#263238"/>
<path d="M251.179 372.762H99.3903V379.421H251.179V372.762Z" fill="#263238"/>
<path d="M223.778 385.415H99.3903V391.908H223.778V385.415Z" fill="#263238"/>
<path d="M240.053 397.735H99.3903V404.227H240.053V397.735Z" fill="#263238"/>
<path d="M251.179 453.008H99.3903V459.667H251.179V453.008Z" fill="#263238"/>
<path d="M223.778 465.494H99.3903V471.987H223.778V465.494Z" fill="#263238"/>
<path d="M240.053 477.98H99.3903V484.473H240.053V477.98Z" fill="#263238"/>
<path d="M540.974 60.6017V157.996C540.974 172.313 529.349 183.967 515.067 183.967H291.203C276.921 183.967 265.296 172.313 265.296 157.996V60.6017C265.296 46.284 276.921 34.63 291.203 34.63H515.067C529.349 34.63 540.974 46.284 540.974 60.6017Z" fill="#F6FCFF" stroke="#222221" stroke-width="1.1031" stroke-miterlimit="10"/>
<path d="M540.974 60.6017V62.766H265.296V60.6017C265.296 46.284 276.921 34.63 291.203 34.63H515.067C529.349 34.63 540.974 46.284 540.974 60.6017Z" fill="#023887" stroke="#263238" stroke-width="1.1031" stroke-miterlimit="10"/>
<path d="M305.651 53.2764C304.156 54.7747 301.499 54.7747 300.004 53.2764C298.51 51.778 298.51 49.1142 300.004 47.6158C301.499 46.1175 304.156 46.1175 305.651 47.6158C307.312 49.2807 307.312 51.778 305.651 53.2764Z" fill="#263238"/>
<path d="M324.251 53.2764C322.756 54.7747 320.099 54.7747 318.604 53.2764C317.11 51.778 317.11 49.1142 318.604 47.6158C320.099 46.1175 322.756 46.1175 324.251 47.6158C325.745 49.2807 325.745 51.778 324.251 53.2764Z" fill="#263238"/>
<path d="M342.685 53.2764C341.19 54.7747 338.533 54.7747 337.038 53.2764C335.544 51.778 335.544 49.1142 337.038 47.6158C338.533 46.1175 341.19 46.1175 342.685 47.6158C344.179 49.2807 344.179 51.778 342.685 53.2764Z" fill="#263238"/>
<path d="M372.91 80.7465H282.733V158.828H372.91V80.7465Z" stroke="#263238" stroke-width="1.1031" stroke-miterlimit="10" stroke-linecap="round" stroke-linejoin="round" stroke-dasharray="4.41 4.41"/>
<path d="M490.654 80.7465H386.86V86.2405H490.654V80.7465Z" fill="#263238"/>
<path d="M466.408 92.0674H386.86V97.5614H466.408V92.0674Z" fill="#263238"/>
<path d="M505.435 103.388H386.86V108.882H505.435V103.388Z" fill="#263238"/>
<path d="M487.831 114.543H386.86V120.037H487.831V114.543Z" fill="#263238"/>
<path d="M409.943 626.985C409.943 626.985 361.783 640.803 355.14 643.301C348.995 645.465 332.388 651.292 319.933 649.461C318.77 649.294 317.442 648.961 316.445 648.628C303.824 644.799 298.177 641.303 296.517 633.478C294.856 625.487 301.167 619.66 307.145 615.997C313.124 612.168 346.006 608.338 346.006 608.338L353.977 610.669L409.943 626.985Z" fill="#023887"/>
<path d="M319.933 649.294C318.77 649.127 317.442 648.794 316.445 648.461C303.824 644.632 298.177 641.136 296.517 633.311C294.856 625.32 301.167 619.493 307.145 615.83C313.124 612.001 346.006 608.172 346.006 608.172L353.977 610.503C346.836 613.833 320.099 615.664 314.286 618.994C308.474 622.323 305.651 628.65 309.138 637.307C310.799 641.802 315.781 646.297 319.933 649.294Z" fill="#F6FCFF"/>
<path d="M402.636 628.983C402.636 628.983 366.432 638.306 352.15 644.466C337.868 650.459 310.466 653.123 300.668 640.637C290.87 628.317 299.506 617.495 309.304 615.164C319.102 612.834 338.699 609.004 349.493 610.503" stroke="#263238" stroke-width="1.1031" stroke-miterlimit="10" stroke-linecap="round" stroke-linejoin="round"/>
<path d="M320.597 648.628C320.597 648.628 302.163 638.472 308.308 624.321C312.792 613.833 337.37 616.163 349.493 610.336" stroke="#263238" stroke-width="1.1031" stroke-miterlimit="10" stroke-linecap="round" stroke-linejoin="round"/>
<path d="M556.584 651.625C556.086 656.619 554.425 661.281 549.443 664.278C546.122 666.275 541.472 667.441 534.663 667.274C517.724 667.108 486.004 654.954 486.004 654.954L456.277 638.472L471.722 613.999L475.874 607.34L486.834 609.837C486.834 609.837 495.802 614.998 504.936 618.994C514.07 623.156 536.157 623.988 543.963 630.315C551.768 636.475 557.415 643.3 556.584 651.625Z" fill="#023887"/>
<path d="M556.584 651.625C556.086 656.619 554.425 661.281 549.443 664.278C550.44 660.448 551.104 655.121 548.613 649.46C545.291 641.969 534.497 635.476 520.215 634.31C506.098 633.145 495.138 626.485 489.491 623.489C485.007 621.158 475.707 616.163 471.722 613.999L475.873 607.34L486.834 609.837C486.834 609.837 495.802 614.998 504.936 618.994C514.07 623.156 536.157 623.988 543.963 630.315C551.768 636.475 557.415 643.3 556.584 651.625Z" fill="#F6FCFF"/>
<path d="M462.754 643.134C483.845 655.287 508.091 664.111 532.338 666.941C537.818 667.607 543.963 667.607 547.616 663.612C549.609 661.281 550.44 658.118 550.107 655.121C549.443 647.463 542.966 641.469 535.991 638.306C529.016 635.309 521.211 634.477 513.738 632.812C506.265 631.147 499.124 628.483 492.315 624.987C487 622.157 481.686 618.827 475.874 617.495C469.895 616.163 462.92 617.828 459.765 622.989" stroke="#263238" stroke-width="1.1031" stroke-miterlimit="10" stroke-linecap="round" stroke-linejoin="round"/>
<path d="M545.79 665.609C551.27 662.779 555.754 657.618 556.584 651.458C557.581 644.299 553.595 636.974 547.782 632.479C541.97 627.984 534.829 625.986 527.688 624.488C520.547 622.989 513.24 621.99 506.431 619.326C495.968 615.164 485.672 607.173 474.877 610.003" stroke="#263238" stroke-width="1.1031" stroke-miterlimit="10" stroke-linecap="round" stroke-linejoin="round"/>
<path d="M496.3 385.248L445.981 366.102L445.317 365.936C445.317 365.936 445.483 364.604 445.649 362.606C445.981 358.611 446.147 351.951 444.32 349.787C441.497 346.457 433.526 349.287 425.886 345.625C418.081 342.129 403.799 348.455 403.799 348.455C403.799 348.455 393.502 346.624 388.852 354.116C386.527 360.109 387.358 369.099 387.358 369.099C387.358 369.099 387.026 369.266 386.361 369.432C380.383 371.596 347.833 383.916 340.858 388.911C333.218 394.405 324.749 449.845 322.092 466.16C319.435 482.476 314.618 497.126 316.943 502.787C319.435 508.447 354.476 535.418 374.57 542.41C394.665 549.403 466.242 547.405 466.242 547.405C466.242 547.405 467.404 547.072 469.563 546.406C481.686 542.577 524.533 526.428 547.284 488.636C547.284 488.636 525.363 416.215 496.3 385.248ZM360.454 478.647C356.801 481.31 358.793 491.466 358.793 491.466L352.483 485.972L368.259 447.014L375.068 476.982C375.068 476.815 364.108 475.983 360.454 478.647ZM487 503.453C485.34 504.285 491.983 485.639 488.827 481.31C485.672 476.982 476.04 477.481 476.04 477.481L476.87 472.32C477.036 471.821 482.517 443.019 482.517 443.019L484.343 440.688C484.343 440.688 503.94 474.318 507.427 486.138C507.427 486.305 486.004 503.453 487 503.453Z" fill="#023887"/>
<path d="M401.474 263.714L375.567 291.35C375.567 291.35 371.913 294.514 373.408 302.505C374.902 310.496 378.224 317.489 380.715 317.988C383.206 318.488 386.693 318.488 386.693 318.488C386.693 318.488 392.34 330.641 396.159 335.303C396.159 335.303 397.488 353.949 396.824 359.11C396.824 359.11 406.124 367.268 414.925 368.267C423.727 369.266 437.345 355.78 437.345 355.78L440.666 339.298C440.666 339.298 448.638 327.145 449.136 323.982C449.634 320.818 453.288 321.651 455.115 319.986C456.941 318.321 461.093 311.329 461.758 304.503C462.422 297.843 462.422 290.019 454.616 292.349C447.807 290.518 452.125 276.2 452.125 276.2L440.334 265.712L401.474 263.714Z" fill="#F6FCFF"/>
<path opacity="0.5" d="M446.147 365.936C445.815 366.935 445.317 367.934 444.818 368.933C440.5 377.09 421.901 392.407 421.901 392.407L416.254 375.093L413.099 392.407C406.788 389.743 387.856 373.261 387.856 373.261C387.856 373.261 387.192 371.763 386.361 369.266C387.025 369.099 387.358 368.933 387.358 368.933C387.358 368.933 386.527 359.942 388.852 353.949C393.336 346.457 403.799 348.288 403.799 348.288C403.799 348.288 418.081 341.962 425.886 345.458C433.692 348.954 441.663 346.291 444.32 349.62C447.143 352.95 445.483 365.769 445.483 365.769L446.147 365.936Z" fill="#F6FCFF"/>
<path opacity="0.2" d="M496.3 385.248L445.981 366.102L445.317 365.936C445.317 365.936 445.483 364.604 445.649 362.606L444.652 369.099L437.179 379.255C437.179 379.255 449.8 383.75 460.429 389.577C467.902 393.572 472.054 401.564 471.058 409.888L461.758 489.301L457.938 534.419L469.397 546.406C481.52 542.577 524.366 526.428 547.118 488.636C547.284 488.636 525.363 416.214 496.3 385.248ZM487 503.453C485.34 504.285 491.983 485.639 488.827 481.31C485.672 476.982 476.04 477.481 476.04 477.481L476.87 472.32C477.036 471.821 482.517 443.019 482.517 443.019L484.343 440.688C484.343 440.688 503.94 474.318 507.427 486.138C507.427 486.305 486.004 503.453 487 503.453Z" fill="black"/>
<path opacity="0.2" d="M378.39 481.31L370.584 455.172C370.584 455.172 356.634 407.224 347.002 395.404L349.493 429.2C349.493 429.2 341.19 469.49 333.551 481.477C325.911 493.464 324.251 496.46 333.551 496.46C342.85 496.46 365.436 514.441 365.436 514.441L363.775 499.457L378.39 481.31ZM358.793 491.466L352.483 485.972L368.259 447.014L375.068 476.982C375.068 476.982 364.274 476.149 360.62 478.813C356.8 481.31 358.793 491.466 358.793 491.466Z" fill="black"/>
<path d="M395.993 335.303C395.993 335.303 397.488 349.454 395.993 355.947" stroke="#263238" stroke-width="1.1031" stroke-miterlimit="10" stroke-linecap="round" stroke-linejoin="round"/>
<path d="M438.507 353.949C438.507 353.949 438.507 347.123 440.002 340.464" stroke="#263238" stroke-width="1.1031" stroke-miterlimit="10" stroke-linecap="round" stroke-linejoin="round"/>
<path d="M442.327 274.202C442.327 274.202 450.797 285.024 450.465 293.015C449.966 301.173 449.302 310.829 449.634 320.152C449.8 329.642 434.522 349.287 426.717 351.119C418.911 352.95 412.102 353.283 406.954 348.288C401.972 343.294 396.824 336.302 390.347 327.311C383.704 318.321 385.365 298.676 385.365 298.676" stroke="#263238" stroke-width="1.1031" stroke-miterlimit="10" stroke-linecap="round" stroke-linejoin="round"/>
<path d="M421.9 306.001C421.402 308.998 421.236 311.995 421.236 314.991C421.236 317.489 421.734 320.152 423.395 321.984C424.392 322.983 425.72 323.649 425.886 324.981C426.052 326.146 425.222 327.311 424.059 327.811C423.063 328.477 421.9 328.81 420.904 329.642" stroke="#263238" stroke-width="1.1031" stroke-miterlimit="10" stroke-linecap="round" stroke-linejoin="round"/>
<path d="M408.283 330.807C408.283 330.807 409.279 337.134 417.749 338.466" stroke="#263238" stroke-width="1.1031" stroke-miterlimit="10" stroke-linecap="round" stroke-linejoin="round"/>
<path d="M409.113 310.829C409.113 312.66 408.282 314.159 407.286 314.159C406.29 314.159 405.459 312.66 405.459 310.829C405.459 308.998 406.29 307.499 407.286 307.499C408.449 307.499 409.113 308.998 409.113 310.829Z" fill="#263238"/>
<path d="M434.522 311.662C434.522 313.493 433.692 314.991 432.695 314.991C431.699 314.991 430.868 313.493 430.868 311.662C430.868 309.83 431.699 308.332 432.695 308.332C433.858 308.332 434.522 309.83 434.522 311.662Z" fill="#263238"/>
<path d="M429.54 303.67C429.54 303.67 437.843 295.346 444.818 304.669" stroke="#263238" stroke-width="2.2062" stroke-miterlimit="10" stroke-linecap="round" stroke-linejoin="round"/>
<path d="M411.936 303.837C411.936 303.837 406.622 298.01 398.484 303.837" stroke="#263238" stroke-width="2.2062" stroke-miterlimit="10" stroke-linecap="round" stroke-linejoin="round"/>
<path d="M396.658 343.127C396.658 343.127 401.64 357.112 413.099 361.108C424.392 365.103 439.504 344.459 439.504 344.459L438.674 341.795C438.674 341.795 428.876 354.615 417.915 352.451C406.954 350.286 396.16 335.469 396.16 335.469L396.658 343.127Z" fill="#263238"/>
<path d="M386.527 317.988C386.527 317.988 379.718 320.319 378.058 315.158C376.231 309.83 370.086 296.012 375.567 291.35C380.881 286.689 385.199 297.51 385.199 297.51" stroke="#263238" stroke-width="1.1031" stroke-miterlimit="10" stroke-linecap="round" stroke-linejoin="round"/>
<path d="M449.634 320.818C449.634 320.818 455.945 322.15 457.772 316.823C459.599 311.495 465.743 297.677 460.263 293.015C454.949 288.354 450.631 299.175 450.631 299.175" stroke="#263238" stroke-width="1.1031" stroke-miterlimit="10" stroke-linecap="round" stroke-linejoin="round"/>
<path d="M385.199 310.829C387.025 310.663 390.181 308.998 391.177 307.333C392.174 305.668 392.506 303.837 392.838 302.005C393.502 298.509 393.834 294.847 393.834 291.35C393.834 290.019 393.834 288.52 394.167 287.188C394.665 285.856 395.495 284.525 396.492 283.526C398.817 280.695 401.64 278.365 403.965 275.534C406.124 272.704 407.784 269.041 407.286 265.545C407.286 265.545 422.565 279.53 444.652 275.201C456.443 272.871 467.902 262.382 466.574 249.396C466.075 244.734 462.588 241.405 458.27 240.239C452.458 238.741 447.143 241.904 441.829 243.902C432.197 247.565 422.731 241.238 412.933 240.239C404.629 239.407 394.333 240.406 390.015 248.73C390.015 248.73 374.902 250.561 368.426 262.881C361.783 275.201 374.404 292.349 374.404 292.349C374.404 292.349 379.386 286.189 385.863 298.676L385.199 310.829Z" fill="#263238"/>
<path d="M443.324 271.039C443.324 271.039 439.504 291.35 449.635 301.173C449.635 301.173 451.793 295.013 454.118 293.515C454.118 293.515 459.765 282.86 452.292 271.039C444.818 259.219 443.324 271.039 443.324 271.039Z" fill="#263238"/>
<path opacity="0.2" d="M461.924 247.898C460.429 253.558 455.779 257.887 450.299 260.051C436.183 265.878 422.565 259.385 408.449 258.22C396.99 257.221 384.202 267.543 383.372 279.53" stroke="#F6FCFF" stroke-width="1.1031" stroke-miterlimit="10" stroke-linecap="round" stroke-linejoin="round"/>
<path opacity="0.2" d="M374.736 276.2C374.902 266.877 381.047 257.887 389.683 254.391" stroke="#F6FCFF" stroke-width="1.1031" stroke-miterlimit="10" stroke-linecap="round" stroke-linejoin="round"/>
<path d="M392.838 353.949C392.838 353.949 402.138 364.271 414.759 368.933C414.759 368.933 431.699 364.105 440.168 352.284" stroke="#263238" stroke-width="1.1031" stroke-miterlimit="10" stroke-linecap="round" stroke-linejoin="round"/>
<path d="M410.026 324.437C417.53 320.987 420.823 312.092 417.381 304.57C413.94 297.048 405.067 293.746 397.564 297.196C390.06 300.646 386.767 309.541 390.209 317.063C393.65 324.585 402.523 327.887 410.026 324.437Z" stroke="#263238" stroke-width="1.1031" stroke-miterlimit="10" stroke-linecap="round" stroke-linejoin="round"/>
<path d="M438.967 325.686C447.16 324.677 452.986 317.201 451.98 308.988C450.973 300.775 443.516 294.935 435.323 295.943C427.131 296.952 421.305 304.428 422.311 312.641C423.317 320.854 430.774 326.695 438.967 325.686Z" stroke="#263238" stroke-width="1.1031" stroke-miterlimit="10" stroke-linecap="round" stroke-linejoin="round"/>
<path d="M395.993 348.455C395.993 348.455 391.509 349.454 388.852 354.115C386.195 358.777 387.856 373.428 387.856 373.428C387.856 373.428 401.474 386.913 413.099 392.573L416.586 373.261L421.9 392.573C421.9 392.573 439.836 379.754 444.818 369.099C444.818 369.099 446.479 356.613 444.818 352.45C443.157 348.288 439.504 348.455 439.504 348.455" stroke="#263238" stroke-width="1.1031" stroke-miterlimit="10" stroke-linecap="round" stroke-linejoin="round"/>
<path d="M374.736 477.481C374.736 477.481 369.422 441.687 362.281 427.036" stroke="#263238" stroke-width="1.1031" stroke-miterlimit="10" stroke-linecap="round" stroke-linejoin="round"/>
<path d="M347.002 395.404C347.002 395.404 353.811 404.893 357.963 413.884" stroke="#263238" stroke-width="1.1031" stroke-miterlimit="10" stroke-linecap="round" stroke-linejoin="round"/>
<path d="M487 422.041C488.827 414.882 490.82 408.722 492.813 404.56" stroke="#263238" stroke-width="1.1031" stroke-miterlimit="10" stroke-linecap="round" stroke-linejoin="round"/>
<path d="M475.874 477.481C475.874 477.481 479.693 453.008 484.343 432.696" stroke="#263238" stroke-width="1.1031" stroke-miterlimit="10" stroke-linecap="round" stroke-linejoin="round"/>
<path d="M482.517 443.018C486.17 438.19 491.484 434.528 497.297 432.863" stroke="#263238" stroke-width="1.1031" stroke-miterlimit="10" stroke-linecap="round" stroke-linejoin="round"/>
<path d="M445.483 365.769C445.483 365.769 476.372 378.089 496.466 385.248C496.466 385.248 521.045 408.39 547.45 488.636C547.45 488.636 523.37 529.425 477.368 542.41" stroke="#263238" stroke-width="1.1031" stroke-miterlimit="10" stroke-linecap="round" stroke-linejoin="round"/>
<path d="M485.174 504.785L507.427 486.138C507.427 486.138 519.218 477.148 531.341 483.308" stroke="#263238" stroke-width="1.1031" stroke-miterlimit="10" stroke-linecap="round" stroke-linejoin="round"/>
<path d="M484.343 440.854C484.343 440.854 502.777 467.991 507.427 486.305" stroke="#263238" stroke-width="1.1031" stroke-miterlimit="10" stroke-linecap="round" stroke-linejoin="round"/>
<path d="M358.96 492.465L352.483 486.305C352.483 486.305 342.851 484.64 331.89 491.965" stroke="#263238" stroke-width="1.1031" stroke-miterlimit="10" stroke-linecap="round" stroke-linejoin="round"/>
<path d="M352.483 486.305C352.483 486.305 360.62 459.667 368.426 446.015" stroke="#263238" stroke-width="1.1031" stroke-miterlimit="10" stroke-linecap="round" stroke-linejoin="round"/>
<path d="M387.358 369.099C387.358 369.099 342.85 385.914 338.533 390.742C334.215 395.57 317.608 489.302 317.109 499.957C316.777 509.613 351.32 531.089 368.592 540.08" stroke="#263238" stroke-width="1.1031" stroke-miterlimit="10" stroke-linecap="round" stroke-linejoin="round"/>
<path d="M548.447 353.949H497.629C491.65 353.949 486.834 349.121 486.834 343.127V313.326C486.834 307.333 491.65 302.505 497.629 302.505H548.447C554.425 302.505 559.242 307.333 559.242 313.326V343.127C559.408 349.121 554.592 353.949 548.447 353.949Z" fill="#F6FCFF" stroke="#263238" stroke-width="1.1031" stroke-miterlimit="10" stroke-linecap="round" stroke-linejoin="round"/>
<path d="M510.25 317.988L496.466 326.645L509.254 338.133" stroke="#263238" stroke-width="1.1031" stroke-miterlimit="10" stroke-linecap="round" stroke-linejoin="round"/>
<path d="M535.659 338.965L548.281 328.31L533.832 318.82" stroke="#263238" stroke-width="1.1031" stroke-miterlimit="10" stroke-linecap="round" stroke-linejoin="round"/>
<path d="M517.059 345.625L527.356 313.326" stroke="#263238" stroke-width="1.1031" stroke-miterlimit="10" stroke-linecap="round" stroke-linejoin="round"/>
<path d="M420.572 400.731C420.572 402.396 419.243 403.728 417.583 403.728C415.922 403.728 414.593 402.396 414.593 400.731C414.593 399.067 415.922 397.735 417.583 397.735C419.243 397.735 420.572 399.067 420.572 400.731Z" fill="#263238"/>
<path d="M472.22 557.561H370.917C369.588 557.561 368.592 556.562 368.592 555.23C368.592 553.898 369.588 552.899 370.917 552.899H472.22C473.549 552.899 474.545 553.898 474.545 555.23C474.545 556.395 473.383 557.561 472.22 557.561Z" fill="#263238"/>
<path d="M475.708 549.569L489.326 485.639C490.156 481.477 487.001 477.481 482.683 477.481H364.274C359.956 477.481 356.801 481.477 357.631 485.639L369.754 547.405C370.418 550.568 373.076 552.732 376.231 552.899L468.899 555.063C472.22 555.063 475.043 552.899 475.708 549.569Z" fill="#F6FCFF" stroke="#263238" stroke-width="1.1031" stroke-miterlimit="10" stroke-linecap="round" stroke-linejoin="round"/>
<path d="M432.529 514.274C432.529 519.435 428.377 523.764 423.063 523.764C417.749 523.764 413.597 519.602 413.597 514.274C413.597 508.947 417.749 504.785 423.063 504.785C428.377 504.785 432.529 509.113 432.529 514.274Z" fill="#263238"/>
<path d="M451.129 483.475H465.079" stroke="#263238" stroke-width="1.1031" stroke-miterlimit="10" stroke-linecap="round" stroke-linejoin="round"/>
<path d="M383.87 483.475H437.345" stroke="#263238" stroke-width="1.1031" stroke-miterlimit="10" stroke-linecap="round" stroke-linejoin="round"/>
<path d="M475.874 617.495L465.079 645.964C465.079 645.964 437.511 638.972 402.304 631.813C365.436 624.155 326.908 614.498 306.979 579.37C304.488 575.041 302.994 570.047 303.99 565.219C306.813 553.065 322.59 549.736 333.052 548.57C339.529 547.738 346.172 547.571 352.649 547.405C355.97 547.405 367.097 545.574 369.754 547.571C369.754 547.571 376.729 552.732 382.542 555.23C388.354 557.727 474.545 552.899 474.545 552.899C474.545 552.899 477.036 547.405 477.202 542.577C490.654 535.751 522.041 529.924 535.327 532.421C556.086 536.417 568.209 548.57 566.05 561.39C563.725 574.043 517.724 608.172 475.874 617.495Z" fill="#263238"/>
<path d="M475.874 617.495C475.874 617.495 449.634 610.503 428.377 596.019C406.954 581.534 390.347 564.719 360.454 568.216" stroke="#F6FCFF" stroke-width="1.1031" stroke-miterlimit="10" stroke-linecap="round" stroke-linejoin="round"/>
<path d="M423.395 592.522C436.847 588.693 446.811 579.87 457.606 571.379C469.065 562.389 481.188 553.898 494.308 547.238" stroke="#F6FCFF" stroke-width="1.1031" stroke-miterlimit="10" stroke-linecap="round" stroke-linejoin="round"/>
<path d="M418.745 313.326H422.731" stroke="#263238" stroke-width="1.1031" stroke-miterlimit="10" stroke-linecap="round" stroke-linejoin="round"/>
</svg>
