<svg width="20" height="20" viewBox="0 0 20 20" fill="none" xmlns="http://www.w3.org/2000/svg">
<path d="M2.5 1.875V18.125H9.375V15.625H10.625V18.125H17.5V1.875H2.5ZM3.75 3.125H16.25V16.875H11.875V14.375H8.125V16.875H3.75V3.125ZM5 4.375V5.625H7.5V4.375H5ZM8.75 4.375V5.625H11.25V4.375H8.75ZM12.5 4.375V5.625H15V4.375H12.5ZM5 6.875V8.125H7.5V6.875H5ZM8.75 6.875V8.125H11.25V6.875H8.75ZM12.5 6.875V8.125H15V6.875H12.5ZM5 9.375V10.625H7.5V9.375H5ZM8.75 9.375V10.625H11.25V9.375H8.75ZM12.5 9.375V10.625H15V9.375H12.5ZM5 11.875V13.125H7.5V11.875H5ZM8.75 11.875V13.125H11.25V11.875H8.75ZM12.5 11.875V13.125H15V11.875H12.5ZM5 14.375V15.625H7.5V14.375H5ZM12.5 14.375V15.625H15V14.375H12.5Z" fill="white"/>
</svg>
