<svg width="20" height="20" viewBox="0 0 20 20" fill="none" xmlns="http://www.w3.org/2000/svg">
<path d="M1.875 3.125V14.375C1.875 15.7563 2.99375 16.875 4.375 16.875H15.625C17.0063 16.875 18.125 15.7563 18.125 14.375V7.5H14.375V3.125H1.875ZM3.125 4.375H13.125V14.375C13.125 14.8313 13.2644 15.2563 13.4769 15.625H4.375C3.63063 15.625 3.125 15.1194 3.125 14.375V4.375ZM4.375 5.625V8.75H11.875V5.625H4.375ZM5.625 6.875H10.625V7.5H5.625V6.875ZM14.375 8.75H16.875V14.375C16.875 15.1194 16.3694 15.625 15.625 15.625C14.8806 15.625 14.375 15.1194 14.375 14.375V8.75ZM4.375 9.375V10.625H7.5V9.375H4.375ZM8.75 9.375V10.625H11.875V9.375H8.75ZM4.375 11.25V12.5H7.5V11.25H4.375ZM8.75 11.25V12.5H11.875V11.25H8.75ZM4.375 13.125V14.375H7.5V13.125H4.375ZM8.75 13.125V14.375H11.875V13.125H8.75Z" fill="white"/>
</svg>
