<svg width="100" height="100" viewBox="0 0 100 100" fill="none" xmlns="http://www.w3.org/2000/svg">
<g clip-path="url(#clip0_178_446)">
<path fill-rule="evenodd" clip-rule="evenodd" d="M20.8335 37.5C20.8335 29.7646 23.9064 22.3459 29.3762 16.8761C34.846 11.4063 42.2647 8.33337 50.0002 8.33337C57.7356 8.33337 65.1543 11.4063 70.6241 16.8761C76.0939 22.3459 79.1668 29.7646 79.1668 37.5V41.8125C86.2335 42.825 91.6668 48.9042 91.6668 56.25V57.2917C91.6663 59.0984 91.3042 60.8868 90.6019 62.5515C89.8996 64.2161 88.8713 65.7234 87.5776 66.9845C86.2838 68.2457 84.7508 69.2352 83.0687 69.8947C81.3867 70.5543 79.5897 70.8706 77.7835 70.825C74.7002 79.6584 66.8585 85.6125 58.396 87.1209C56.4377 87.8375 54.121 87.5 52.0835 87.5C50.4259 87.5 48.8362 86.8416 47.6641 85.6695C46.492 84.4974 45.8335 82.9076 45.8335 81.25C45.8335 79.5924 46.492 78.0027 47.6641 76.8306C48.8362 75.6585 50.4259 75 52.0835 75H56.2502C57.2286 74.9998 58.1933 75.2293 59.0668 75.6701C59.9403 76.1108 60.6982 76.7505 61.2793 77.5375C66.6793 74.9667 70.8335 69.5375 70.8335 62.5V37.5C70.8335 31.9747 68.6386 26.6757 64.7316 22.7687C60.8246 18.8616 55.5255 16.6667 50.0002 16.6667C44.4748 16.6667 39.1758 18.8616 35.2688 22.7687C31.3618 26.6757 29.1668 31.9747 29.1668 37.5V63.5417C29.1668 65.4756 28.3986 67.3302 27.0312 68.6977C25.6637 70.0652 23.809 70.8334 21.8752 70.8334C18.2837 70.8334 14.8393 69.4067 12.2998 66.8671C9.7602 64.3276 8.3335 60.8832 8.3335 57.2917V56.25C8.3326 52.7426 9.59583 49.3523 11.8916 46.7007C14.1875 44.049 17.362 42.3136 20.8335 41.8125V37.5ZM20.8335 50.3542C19.6144 50.7852 18.559 51.5837 17.8128 52.6397C17.0665 53.6956 16.6662 54.957 16.6668 56.25V57.2917C16.6668 59.8125 18.4585 61.9167 20.8335 62.3959V50.3542ZM79.1668 50.3542V62.3959C81.5418 61.9125 83.3335 59.8125 83.3335 57.2917V56.25C83.3342 54.957 82.9338 53.6956 82.1876 52.6397C81.4413 51.5837 80.3859 50.7852 79.1668 50.3542Z" fill="white"/>
</g>
<defs>
<clipPath id="clip0_178_446">
<rect width="100" height="100" fill="white"/>
</clipPath>
</defs>
</svg>
