<svg width="90" height="90" viewBox="0 0 90 90" fill="none" xmlns="http://www.w3.org/2000/svg">
<path opacity="0.2" d="M70.3125 53.7539L57.375 66.6914C57.0224 67.0211 56.5952 67.2605 56.1298 67.3891C55.6645 67.5177 55.175 67.5316 54.7031 67.4297L34.3125 62.332C33.94 62.2282 33.5929 62.0487 33.293 61.8047L14.0625 46.793L25.5234 25.2422L43.5586 19.9687C44.1994 19.785 44.8847 19.8348 45.4922 20.1094L57.6562 25.6289H50.3789C50.0137 25.6276 49.6518 25.6984 49.314 25.8371C48.9762 25.9759 48.669 26.1799 48.4102 26.4375L34.6289 40.1836C34.3475 40.4725 34.1307 40.8178 33.9928 41.1968C33.8549 41.5757 33.799 41.9796 33.8289 42.3818C33.8589 42.784 33.9738 43.1752 34.1663 43.5296C34.3588 43.884 34.6243 44.1934 34.9453 44.4375L36.8438 45.8789C38.7934 47.334 41.161 48.1201 43.5938 48.1201C46.0265 48.1201 48.3941 47.334 50.3438 45.8789L54.8438 42.5039L70.3125 53.7539Z" fill="#023887"/>
<path d="M88.3476 37.6875L79.6992 21.1289C79.0164 19.8254 77.8499 18.8415 76.4501 18.388C75.0502 17.9345 73.5284 18.0476 72.2109 18.7031L64.0195 22.8164H58.2539L46.6523 17.543C45.433 17.0112 44.0686 16.912 42.7851 17.2617L25.6641 22.2539L17.7891 18.3164C16.4659 17.6728 14.944 17.5698 13.5461 18.0292C12.1483 18.4886 10.9842 19.4743 10.3008 20.7773L1.65234 37.3359C1.30462 37.9951 1.09137 38.7169 1.02498 39.4592C0.958597 40.2016 1.04039 40.9497 1.26562 41.6601C1.74204 43.0941 2.7655 44.2818 4.11328 44.9648L12.5508 49.1836L31.5352 64.0195C32.1542 64.5112 32.8746 64.8594 33.6445 65.0391L54.0351 70.1367C54.4717 70.2493 54.9203 70.3083 55.3711 70.3125C56.8704 70.3004 58.3067 69.7082 59.3789 68.6601L72.3164 55.7226H72.3516C72.3516 55.6875 72.3867 55.6875 72.3867 55.6523H72.457L77.6953 49.4297L85.8867 45.3164C86.5563 44.9902 87.1535 44.5326 87.6427 43.9709C88.1319 43.4093 88.5032 42.7549 88.7344 42.0469C88.9605 41.3306 89.0428 40.5767 88.9765 39.8285C88.9101 39.0804 88.6964 38.3527 88.3476 37.6875ZM69.8555 49.9219L56.4961 40.2187C56.0087 39.8669 55.4214 39.6805 54.8204 39.6869C54.2193 39.6932 53.6361 39.8919 53.1562 40.2539L48.6562 43.6289C47.189 44.7083 45.4152 45.2905 43.5937 45.2905C41.7723 45.2905 39.9985 44.7083 38.5312 43.6289L36.6328 42.1875L50.3789 28.4414H63L72.5625 46.793L69.8555 49.9219ZM15.293 23.3789L21.4805 26.4726L12.832 43.0312L6.64453 39.9375L15.293 23.3789ZM55.3711 64.6875L35.0156 59.5898L17.6484 46.0195L27.2109 27.668L44.332 22.6758L47.0391 23.9062L46.4062 24.4336L32.6602 38.2148C32.0854 38.7814 31.6402 39.4658 31.3551 40.2208C31.07 40.9759 30.9518 41.7837 31.0086 42.5887C31.0654 43.3938 31.2959 44.177 31.6841 44.8846C32.0724 45.5921 32.6092 46.2072 33.2578 46.6875L35.1562 48.1289C37.595 49.9438 40.5538 50.9239 43.5937 50.9239C46.6337 50.9239 49.5925 49.9438 52.0312 48.1289L54.8789 45.9844L65.9883 54.0703L55.3711 64.6875ZM83.3555 40.289L77.168 43.418L68.5195 26.8594L74.707 23.7305L83.3555 40.289ZM42.1172 75.5156C41.9617 76.126 41.6081 76.6676 41.1119 77.0557C40.6157 77.4437 40.0049 77.6563 39.375 77.6601C39.1483 77.6594 38.923 77.6238 38.707 77.5547L28.0898 74.918C27.2287 74.7005 26.4327 74.2784 25.7695 73.6875L17.8594 66.7969C17.5824 66.5568 17.3554 66.2645 17.1913 65.9367C17.0273 65.6089 16.9294 65.252 16.9033 64.8864C16.8771 64.5207 16.9233 64.1535 17.0391 63.8057C17.1549 63.458 17.338 63.1364 17.5781 62.8594C17.8182 62.5824 18.1105 62.3553 18.4383 62.1913C18.7661 62.0272 19.123 61.9294 19.4886 61.9033C19.8543 61.8771 20.2214 61.9233 20.5692 62.0391C20.917 62.1549 21.2386 62.338 21.5156 62.5781L29.4609 69.4687L40.043 72.1055C40.7667 72.2885 41.3896 72.7485 41.7775 73.3863C42.1655 74.0241 42.2874 74.7888 42.1172 75.5156Z" fill="#023887"/>
</svg>
