<svg width="45" height="45" viewBox="0 0 45 45" fill="none" xmlns="http://www.w3.org/2000/svg">
<rect width="45" height="45" rx="12" fill="#005E93"/>
<path d="M30.785 12.8438H13.4013C12.9833 12.8438 12.6455 13.2068 12.6455 13.6562V32.3438C12.6455 32.7932 12.9833 33.1562 13.4013 33.1562H30.785C31.2031 33.1562 31.5409 32.7932 31.5409 32.3438V13.6562C31.5409 13.2068 31.2031 12.8438 30.785 12.8438ZM28.6026 18.7725H27.0934C25.91 18.7725 25.6809 19.3768 25.6809 20.2654V22.223H28.5058L28.1373 25.2877H25.6809V33.1562H22.7356V25.2902H20.2721V22.223H22.7356V19.9633C22.7356 17.3404 24.226 15.9109 26.4037 15.9109C27.4477 15.9109 28.3428 15.9947 28.605 16.0328V18.7725H28.6026Z" fill="white"/>
</svg>
