<svg width="45" height="45" viewBox="0 0 45 45" fill="none" xmlns="http://www.w3.org/2000/svg">
<rect width="45" height="45" rx="12" fill="#01B313"/>
<path fill-rule="evenodd" clip-rule="evenodd" d="M28.8662 25.5805C28.5434 25.4191 26.9606 24.6413 26.666 24.5329C26.3713 24.4257 26.1568 24.3726 25.9412 24.6954C25.7267 25.0161 25.1103 25.7419 24.9229 25.9564C24.7344 26.172 24.547 26.198 24.2252 26.0377C23.9035 25.8752 22.8656 25.5361 21.6361 24.4398C20.6795 23.5861 20.0327 22.532 19.8453 22.2092C19.6579 21.8874 19.8247 21.713 19.9861 21.5527C20.1313 21.4086 20.3079 21.1768 20.4693 20.9894C20.6307 20.8009 20.6838 20.6665 20.7911 20.4509C20.8994 20.2364 20.8452 20.049 20.764 19.8876C20.6838 19.7262 20.0403 18.1413 19.7717 17.4967C19.5106 16.8695 19.2452 16.955 19.048 16.9442C18.8595 16.9355 18.645 16.9334 18.4305 16.9334C18.216 16.9334 17.8672 17.0135 17.5725 17.3364C17.2767 17.6581 16.4458 18.437 16.4458 20.0219C16.4458 21.6058 17.5985 23.1365 17.7599 23.3521C17.9213 23.5666 20.0295 26.8188 23.2589 28.213C24.0281 28.5445 24.6271 28.7428 25.0941 28.8901C25.8654 29.136 26.5674 29.1013 27.1221 29.0179C27.7396 28.9258 29.0266 28.239 29.2952 27.4872C29.5628 26.7353 29.5628 26.0908 29.4826 25.9564C29.4025 25.8221 29.188 25.7419 28.8651 25.5805H28.8662ZM22.9924 33.6004H22.9881C21.0699 33.6008 19.1871 33.0851 17.5367 32.1076L17.1467 31.8758L13.0929 32.9396L14.1752 28.9876L13.9206 28.5824C12.8482 26.8755 12.2807 24.8999 12.2837 22.8841C12.2858 16.9799 17.0893 12.1765 22.9967 12.1765C25.8567 12.1765 28.5456 13.2923 30.567 15.316C31.5641 16.3089 32.3544 17.4897 32.8922 18.7901C33.4299 20.0904 33.7045 21.4845 33.7 22.8917C33.6979 28.7958 28.8944 33.6004 22.9924 33.6004ZM32.1054 13.7787C30.9118 12.5772 29.4916 11.6245 27.9271 10.9759C26.3626 10.3273 24.6849 9.99558 22.9913 10C15.8912 10 10.1105 15.7796 10.1083 22.883C10.105 25.1437 10.6981 27.3652 11.8276 29.3234L10 36L16.8293 34.2082C18.7185 35.2375 20.8356 35.7768 22.987 35.7768H22.9924C30.0925 35.7768 35.8732 29.9973 35.8754 22.8928C35.8806 21.1998 35.5501 19.5226 34.903 17.9582C34.2559 16.3938 33.305 14.9733 32.1054 13.7787Z" fill="white"/>
</svg>
