<svg width="45" height="45" viewBox="0 0 45 45" fill="none" xmlns="http://www.w3.org/2000/svg">
<rect width="45" height="45" rx="12" fill="#0083CD"/>
<path fill-rule="evenodd" clip-rule="evenodd" d="M18.9839 19.0597H23.4753V21.4647C24.1222 20.0815 25.7814 18.8387 28.2738 18.8387C33.0517 18.8387 34.186 21.5921 34.186 26.6439V36H29.3488V27.7944C29.3488 24.9175 28.7019 23.2951 27.0548 23.2951C24.7704 23.2951 23.8211 25.0436 23.8211 27.7931V36H18.9839V19.0597ZM10.6893 35.779H15.5265V18.8387H10.6893V35.779ZM16.2194 13.315C16.2196 13.7509 16.1392 14.1824 15.9829 14.5846C15.8266 14.9867 15.5974 15.3515 15.3088 15.6576C14.724 16.2824 13.9324 16.6321 13.1079 16.63C12.2848 16.6294 11.4951 16.2806 10.9094 15.6589C10.6218 15.3517 10.3935 14.9866 10.2374 14.5844C10.0814 14.1822 10.0007 13.7508 10 13.315C10 12.4349 10.3265 11.5925 10.9106 10.9711C11.4958 10.3486 12.2859 9.99961 13.1091 10C13.9339 10 14.7247 10.3497 15.3088 10.9711C15.8917 11.5925 16.2194 12.4349 16.2194 13.315Z" fill="white"/>
</svg>
