<svg width="45" height="45" viewBox="0 0 45 45" fill="none" xmlns="http://www.w3.org/2000/svg">
<rect width="45" height="45" rx="12" fill="url(#paint0_linear_260_831)"/>
<path d="M22.9967 18.6648C20.6096 18.6648 18.6616 20.6129 18.6616 23C18.6616 25.3871 20.6096 27.3352 22.9967 27.3352C25.3839 27.3352 27.3319 25.3871 27.3319 23C27.3319 20.6129 25.3839 18.6648 22.9967 18.6648ZM35.999 23C35.999 21.2048 36.0153 19.4258 35.9145 17.6339C35.8137 15.5525 35.3388 13.7052 33.8168 12.1832C32.2915 10.6579 30.4475 10.1863 28.3661 10.0855C26.5709 9.98471 24.792 10.001 23 10.001C21.2048 10.001 19.4258 9.98471 17.6339 10.0855C15.5525 10.1863 13.7052 10.6612 12.1832 12.1832C10.6579 13.7085 10.1863 15.5525 10.0855 17.6339C9.98471 19.4291 10.001 21.208 10.001 23C10.001 24.792 9.98471 26.5742 10.0855 28.3661C10.1863 30.4475 10.6612 32.2948 12.1832 33.8168C13.7085 35.3421 15.5525 35.8137 17.6339 35.9145C19.4291 36.0153 21.208 35.999 23 35.999C24.7952 35.999 26.5742 36.0153 28.3661 35.9145C30.4475 35.8137 32.2948 35.3388 33.8168 33.8168C35.3421 32.2915 35.8137 30.4475 35.9145 28.3661C36.0185 26.5742 35.999 24.7952 35.999 23ZM22.9967 29.6703C19.3055 29.6703 16.3265 26.6912 16.3265 23C16.3265 19.3088 19.3055 16.3297 22.9967 16.3297C26.688 16.3297 29.667 19.3088 29.667 23C29.667 26.6912 26.688 29.6703 22.9967 29.6703ZM29.9402 17.6144C29.0784 17.6144 28.3824 16.9184 28.3824 16.0566C28.3824 15.1947 29.0784 14.4988 29.9402 14.4988C30.802 14.4988 31.498 15.1947 31.498 16.0566C31.4982 16.2612 31.4581 16.4639 31.3799 16.653C31.3017 16.8421 31.187 17.014 31.0423 17.1587C30.8976 17.3034 30.7258 17.4181 30.5366 17.4963C30.3475 17.5745 30.1448 17.6146 29.9402 17.6144Z" fill="white"/>
<defs>
<linearGradient id="paint0_linear_260_831" x1="40" y1="2" x2="2.69016e-06" y2="43" gradientUnits="userSpaceOnUse">
<stop stop-color="#A80097"/>
<stop offset="0.45734" stop-color="#FF0642" stop-opacity="0.779393"/>
<stop offset="1" stop-color="#C800FA" stop-opacity="0.506017"/>
</linearGradient>
</defs>
</svg>
