<svg width="45" height="45" viewBox="0 0 45 45" fill="none" xmlns="http://www.w3.org/2000/svg">
<rect width="45" height="45" rx="12" fill="#7AC7F2"/>
<path d="M33.8263 15.3483C32.9849 15.7491 32.0809 16.02 31.1306 16.1424C32.1112 15.5117 32.8447 14.519 33.1945 13.3495C32.2732 13.9378 31.265 14.3518 30.2136 14.5737C29.5065 13.7622 28.57 13.2242 27.5494 13.0435C26.5288 12.8627 25.4813 13.0492 24.5694 13.5741C23.6575 14.0989 22.9323 14.9327 22.5064 15.946C22.0805 16.9593 21.9777 18.0954 22.214 19.1779C20.3474 19.0771 18.5212 18.5556 16.8542 17.647C15.1872 16.7385 13.7165 15.4633 12.5376 13.9042C12.1345 14.6517 11.9027 15.5184 11.9027 16.4414C11.9023 17.2723 12.0926 18.0905 12.4568 18.8233C12.8211 19.5562 13.348 20.1811 13.9908 20.6425C13.2453 20.617 12.5163 20.4005 11.8644 20.011V20.076C11.8643 21.2413 12.2393 22.3709 12.9258 23.2729C13.6122 24.1749 14.5678 24.7938 15.6304 25.0246C14.9388 25.2258 14.2138 25.2555 13.5101 25.1113C13.8099 26.114 14.3939 26.9909 15.1803 27.6191C15.9667 28.2474 16.9162 28.5955 17.8958 28.6148C16.2328 30.0182 14.1791 30.7794 12.065 30.776C11.6905 30.7762 11.3163 30.7526 10.9443 30.7056C13.0903 32.1889 15.5884 32.9761 18.1397 32.973C26.7761 32.973 31.4974 25.2835 31.4974 18.6145C31.4974 18.3979 31.4924 18.179 31.4833 17.9624C32.4017 17.2484 33.1944 16.3644 33.8243 15.3515L33.8263 15.3483Z" fill="white"/>
</svg>
