<svg width="45" height="45" viewBox="0 0 45 45" fill="none" xmlns="http://www.w3.org/2000/svg">
<rect width="45" height="45" rx="12" fill="black"/>
<path d="M30.7278 15.56C30.5523 15.4692 30.3815 15.3698 30.216 15.2619C29.7349 14.9438 29.2938 14.5691 28.9022 14.1457C27.9212 13.0238 27.555 11.8857 27.4209 11.0896H27.4256C27.3135 10.4275 27.3597 10 27.3678 10H22.902V27.2658C22.902 27.4969 22.902 27.7269 22.8927 27.9533C22.8927 27.9811 22.8893 28.0065 22.8881 28.0377C22.8881 28.0492 22.8881 28.0631 22.8847 28.0758V28.0862C22.8378 28.7056 22.6394 29.3039 22.3069 29.8285C21.9745 30.3532 21.5182 30.7881 20.9782 31.095C20.4148 31.4155 19.7776 31.5836 19.1294 31.5826C17.0496 31.5826 15.3627 29.8864 15.3627 27.7916C15.3627 25.6956 17.0496 23.9994 19.1294 23.9994C19.5235 23.9994 19.9152 24.0618 20.2895 24.1843L20.2953 19.6364C19.1583 19.4897 18.0033 19.5804 16.9032 19.9025C15.803 20.2247 14.7816 20.7714 13.9034 21.5083C13.1337 22.1767 12.4865 22.9744 11.9911 23.8654C11.8028 24.19 11.091 25.4969 11.0055 27.6159C10.9512 28.8176 11.3128 30.0655 11.485 30.5797V30.5912C11.5925 30.894 12.013 31.9292 12.6971 32.8016C13.2487 33.5018 13.9004 34.1169 14.6313 34.6272V34.6156L14.6417 34.6272C16.8024 36.0946 19.1999 35.9987 19.1999 35.9987C19.6147 35.9814 21.0047 35.9987 22.5831 35.2511C24.3336 34.4215 25.3296 33.1864 25.3296 33.1864C25.9664 32.4482 26.4728 31.6069 26.827 30.6987C27.2314 29.6357 27.3655 28.3624 27.3655 27.854V18.6924C27.4198 18.7248 28.1419 19.202 28.1419 19.202C28.1419 19.202 29.1818 19.8687 30.8029 20.302C31.9653 20.6105 33.5333 20.6763 33.5333 20.6763V16.2429C32.9844 16.303 31.8694 16.1296 30.7267 15.5612L30.7278 15.56Z" fill="white"/>
</svg>
