<svg width="100" height="100" viewBox="0 0 100 100" fill="none" xmlns="http://www.w3.org/2000/svg">
<path d="M50.0002 45.8334C55.5255 45.8334 60.8246 48.0283 64.7316 51.9353C68.6386 55.8423 70.8335 61.1414 70.8335 66.6667V91.6667H62.5002V66.6667C62.5003 63.4783 61.2821 60.4104 59.0948 58.0906C56.9075 55.7708 53.9164 54.3746 50.7335 54.1875L50.0002 54.1667C46.8118 54.1665 43.7439 55.3847 41.4241 57.5721C39.1043 59.7594 37.708 62.7505 37.521 65.9334L37.5002 66.6667V91.6667H29.1668V66.6667C29.1668 61.1414 31.3618 55.8423 35.2688 51.9353C39.1758 48.0283 44.4748 45.8334 50.0002 45.8334ZM22.9168 58.3334C24.0793 58.3334 25.2085 58.4709 26.2918 58.725C25.5794 60.8459 25.1575 63.0535 25.0377 65.2875L25.0002 66.6667V67.025C24.5212 66.8537 24.0231 66.7417 23.5168 66.6917L22.9168 66.6667C21.3632 66.6668 19.8652 67.2455 18.7151 68.2901C17.565 69.3347 16.8451 70.7702 16.696 72.3167L16.6668 72.9167V91.6667H8.3335V72.9167C8.3335 69.049 9.86995 65.3396 12.6049 62.6047C15.3398 59.8698 19.0491 58.3334 22.9168 58.3334ZM77.0835 58.3334C80.9512 58.3334 84.6606 59.8698 87.3955 62.6047C90.1304 65.3396 91.6668 69.049 91.6668 72.9167V91.6667H83.3335V72.9167C83.3334 71.363 82.7547 69.8651 81.7101 68.715C80.6655 67.5648 79.23 66.845 77.6835 66.6959L77.0835 66.6667C76.3543 66.6667 75.6543 66.7917 75.0002 67.0209V66.6667C75.0002 63.8917 74.5502 61.225 73.7127 58.7334C74.8163 58.4662 75.948 58.3319 77.0835 58.3334ZM22.9168 33.3334C25.6795 33.3334 28.329 34.4308 30.2825 36.3843C32.236 38.3379 33.3335 40.9874 33.3335 43.75C33.3335 46.5127 32.236 49.1622 30.2825 51.1157C28.329 53.0692 25.6795 54.1667 22.9168 54.1667C20.1542 54.1667 17.5046 53.0692 15.5511 51.1157C13.5976 49.1622 12.5002 46.5127 12.5002 43.75C12.5002 40.9874 13.5976 38.3379 15.5511 36.3843C17.5046 34.4308 20.1542 33.3334 22.9168 33.3334ZM77.0835 33.3334C79.8462 33.3334 82.4957 34.4308 84.4492 36.3843C86.4027 38.3379 87.5002 40.9874 87.5002 43.75C87.5002 46.5127 86.4027 49.1622 84.4492 51.1157C82.4957 53.0692 79.8462 54.1667 77.0835 54.1667C74.3208 54.1667 71.6713 53.0692 69.7178 51.1157C67.7643 49.1622 66.6668 46.5127 66.6668 43.75C66.6668 40.9874 67.7643 38.3379 69.7178 36.3843C71.6713 34.4308 74.3208 33.3334 77.0835 33.3334ZM22.9168 41.6667C22.3643 41.6667 21.8344 41.8862 21.4437 42.2769C21.053 42.6676 20.8335 43.1975 20.8335 43.75C20.8335 44.3026 21.053 44.8325 21.4437 45.2232C21.8344 45.6139 22.3643 45.8334 22.9168 45.8334C23.4694 45.8334 23.9993 45.6139 24.39 45.2232C24.7807 44.8325 25.0002 44.3026 25.0002 43.75C25.0002 43.1975 24.7807 42.6676 24.39 42.2769C23.9993 41.8862 23.4694 41.6667 22.9168 41.6667ZM77.0835 41.6667C76.531 41.6667 76.0011 41.8862 75.6104 42.2769C75.2197 42.6676 75.0002 43.1975 75.0002 43.75C75.0002 44.3026 75.2197 44.8325 75.6104 45.2232C76.0011 45.6139 76.531 45.8334 77.0835 45.8334C77.636 45.8334 78.1659 45.6139 78.5566 45.2232C78.9473 44.8325 79.1668 44.3026 79.1668 43.75C79.1668 43.1975 78.9473 42.6676 78.5566 42.2769C78.1659 41.8862 77.636 41.6667 77.0835 41.6667ZM50.0002 8.33337C54.4204 8.33337 58.6597 10.0893 61.7853 13.2149C64.9109 16.3405 66.6668 20.5798 66.6668 25C66.6668 29.4203 64.9109 33.6595 61.7853 36.7852C58.6597 39.9108 54.4204 41.6667 50.0002 41.6667C45.5799 41.6667 41.3407 39.9108 38.2151 36.7852C35.0894 33.6595 33.3335 29.4203 33.3335 25C33.3335 20.5798 35.0894 16.3405 38.2151 13.2149C41.3407 10.0893 45.5799 8.33337 50.0002 8.33337ZM50.0002 16.6667C47.79 16.6667 45.6704 17.5447 44.1076 19.1075C42.5448 20.6703 41.6668 22.7899 41.6668 25C41.6668 27.2102 42.5448 29.3298 44.1076 30.8926C45.6704 32.4554 47.79 33.3334 50.0002 33.3334C52.2103 33.3334 54.3299 32.4554 55.8927 30.8926C57.4555 29.3298 58.3335 27.2102 58.3335 25C58.3335 22.7899 57.4555 20.6703 55.8927 19.1075C54.3299 17.5447 52.2103 16.6667 50.0002 16.6667Z" fill="white"/>
</svg>
