<svg width="100" height="64" viewBox="0 0 100 64" fill="none" xmlns="http://www.w3.org/2000/svg">
<path d="M8.33333 38.8889C9.49074 38.8889 10.3009 38.4259 10.7639 37.5C11.2269 36.5741 11.2269 35.6482 10.7639 34.7222C10.3009 33.7963 9.49074 33.3333 8.33333 33.3333C7.17593 33.3333 6.36574 33.7963 5.90278 34.7222C5.43981 35.6482 5.43981 36.5741 5.90278 37.5C6.36574 38.4259 7.17593 38.8889 8.33333 38.8889ZM72.2656 36.3715C71.9763 35.9954 71.4193 35.272 70.5946 34.2014C69.77 33.1308 69.1696 32.3495 68.7934 31.8576C68.4172 31.3657 67.8675 30.6568 67.1441 29.7309C66.4207 28.805 65.8058 28.0382 65.2995 27.4306C64.7931 26.8229 64.2072 26.1429 63.5417 25.3906C62.8762 24.6383 62.2251 23.9294 61.5885 23.2639L56.1632 29.3403C53.7616 32.0602 50.7451 33.3912 47.1137 33.3333C43.4823 33.2755 40.5093 31.8576 38.1944 29.0799C36.5451 27.0833 35.7277 24.7975 35.7422 22.2222C35.7567 19.647 36.603 17.3756 38.2812 15.408L45.9635 6.46701C45.327 6.14873 44.5891 5.91001 43.75 5.75087C42.9109 5.59172 42.2237 5.50492 41.6884 5.49045C41.1531 5.47598 40.3356 5.48322 39.2361 5.51215C38.1366 5.54109 37.4277 5.55556 37.1094 5.55556C34.4473 5.55556 32.1615 6.51042 30.2517 8.42014L23.3941 15.2778H16.6667V38.8889C16.8113 38.8889 17.1152 38.8817 17.5781 38.8672C18.0411 38.8527 18.3594 38.8527 18.533 38.8672C18.7066 38.8817 18.9887 38.9106 19.3793 38.954C19.77 38.9974 20.0665 39.0625 20.2691 39.1493C20.4716 39.2361 20.7248 39.3591 21.0286 39.5182C21.3325 39.6774 21.6001 39.8727 21.8316 40.1042L34.7222 52.7778C38.0498 55.9896 41.3339 57.5955 44.5746 57.5955C46.8316 57.5955 48.64 56.9155 50 55.5556C51.6493 56.1343 53.2769 56.0185 54.8828 55.2083C56.4887 54.3982 57.5376 53.1684 58.0295 51.5191C60.1707 51.6927 62.0081 51.0561 63.5417 49.6094C64.1204 49.0885 64.6412 48.4303 65.1042 47.6346C65.5671 46.8388 65.7697 46.1082 65.7118 45.4427C66.0012 45.7321 66.6233 45.8767 67.5781 45.8767C68.8223 45.8767 69.9363 45.5729 70.9201 44.9653C71.9039 44.3576 72.6201 43.5909 73.0686 42.6649C73.5171 41.739 73.6907 40.7046 73.5894 39.5616C73.4881 38.4187 73.0469 37.3553 72.2656 36.3715ZM79.1667 38.8889H83.3333V16.6667H79.2969L72.4826 8.85417C70.5729 6.65509 68.1279 5.55556 65.1476 5.55556H57.8993C55.3241 5.55556 53.2118 6.52488 51.5625 8.46354L42.4913 19.0104C41.6811 19.9653 41.276 21.0503 41.276 22.2656C41.276 23.4809 41.6667 24.566 42.4479 25.5208C43.6921 26.9965 45.2836 27.7488 47.2222 27.7778C49.1609 27.8067 50.7668 27.0978 52.0399 25.651L60.4167 16.1892C61.14 15.5237 61.9141 15.2127 62.7387 15.2561C63.5634 15.2995 64.2433 15.6901 64.7786 16.428C65.3139 17.1658 65.4369 17.9832 65.1476 18.8802C65.6105 19.43 66.4207 20.3414 67.5781 21.6146C68.7355 22.8877 69.6036 23.8715 70.1823 24.566C71.0214 25.6076 72.215 27.134 73.763 29.145C75.3111 31.156 76.2442 32.3785 76.5625 32.8125C78.0671 34.7222 78.9352 36.7477 79.1667 38.8889ZM91.6667 38.8889C92.8241 38.8889 93.6343 38.4259 94.0972 37.5C94.5602 36.5741 94.5602 35.6482 94.0972 34.7222C93.6343 33.7963 92.8241 33.3333 91.6667 33.3333C90.5093 33.3333 89.6991 33.7963 89.2361 34.7222C88.7731 35.6482 88.7731 36.5741 89.2361 37.5C89.6991 38.4259 90.5093 38.8889 91.6667 38.8889ZM100 13.8889V41.6667C100 42.419 99.7251 43.07 99.1753 43.6198C98.6256 44.1696 97.9745 44.4444 97.2222 44.4444H78.3854C77.6042 46.3252 76.4178 47.866 74.8264 49.0668C73.2349 50.2677 71.4265 51.0127 69.401 51.3021C68.4462 52.691 67.2815 53.8701 65.9071 54.8394C64.5327 55.8087 63.0498 56.467 61.4583 56.8142C60.2431 58.3478 58.7312 59.5269 56.9227 60.3516C55.1143 61.1762 53.2552 61.5307 51.3455 61.4149C49.6094 62.3987 47.7865 62.9702 45.8767 63.1293C43.967 63.2885 42.1224 63.0859 40.3429 62.5217C38.5634 61.9575 36.8707 61.1835 35.2648 60.1997C33.6589 59.2159 32.1615 58.044 30.7726 56.684L18.316 44.4444H2.77778C2.02546 44.4444 1.37442 44.1696 0.824653 43.6198C0.274884 43.07 0 42.419 0 41.6667V12.5C0 11.7477 0.274884 11.0966 0.824653 10.5469C1.37442 9.99711 2.02546 9.72222 2.77778 9.72222H21.0503C21.4554 9.31713 22.1354 8.62269 23.0903 7.63889C24.0451 6.65509 24.7323 5.96065 25.1519 5.55556C25.5715 5.15046 26.208 4.57176 27.0616 3.81944C27.9152 3.06713 28.6458 2.5246 29.2535 2.19184C29.8611 1.85909 30.599 1.49016 31.467 1.08507C32.3351 0.679977 33.2321 0.397859 34.158 0.238715C35.0839 0.0795718 36.0677 0 37.1094 0H42.1875C45.0521 0 47.6707 0.810185 50.0434 2.43056C52.4161 0.810185 55.0347 0 57.8993 0H65.1476C66.1603 0 67.1296 0.0868056 68.0555 0.260417C68.9815 0.434028 69.7989 0.643808 70.5078 0.889757C71.2167 1.13571 71.9618 1.5191 72.743 2.03993C73.5243 2.56076 74.1681 3.00926 74.6745 3.38542C75.1808 3.76157 75.8029 4.33304 76.5408 5.09983C77.2786 5.86661 77.8429 6.47425 78.2335 6.92274C78.6241 7.37124 79.2173 8.06568 80.013 9.00608C80.8087 9.94647 81.4091 10.6481 81.8142 11.1111H97.2222C97.9745 11.1111 98.6256 11.386 99.1753 11.9358C99.7251 12.4855 100 13.1366 100 13.8889Z" fill="#095073"/>
</svg>
