<svg width="97" height="100" viewBox="0 0 97 100" fill="none" xmlns="http://www.w3.org/2000/svg">
<path d="M90.3845 11.5384H49.9999V1.92307C49.9999 1.41304 49.7973 0.923902 49.4367 0.563256C49.076 0.202609 48.5869 0 48.0769 0C47.5668 0 47.0777 0.202609 46.717 0.563256C46.3564 0.923902 46.1538 1.41304 46.1538 1.92307V11.5384H5.76922C4.23913 11.5384 2.77171 12.1463 1.68977 13.2282C0.607827 14.3102 0 15.7776 0 17.3077V74.9999C0 76.53 0.607827 77.9974 1.68977 79.0794C2.77171 80.1613 4.23913 80.7691 5.76922 80.7691H28.7019L15.8173 96.8749C15.5007 97.271 15.3533 97.7762 15.4074 98.2804C15.4614 98.7846 15.7124 99.2471 16.1057 99.5672C16.4413 99.8513 16.868 100.005 17.3077 99.9999C17.5947 100.002 17.8784 99.9377 18.1368 99.8127C18.3952 99.6877 18.6214 99.505 18.7981 99.2787L33.6057 80.7691H62.548L77.3557 99.2787C77.5323 99.505 77.7586 99.6877 78.017 99.8127C78.2754 99.9377 78.559 100.002 78.8461 99.9999C79.2857 100.005 79.7125 99.8513 80.048 99.5672C80.4413 99.2471 80.6923 98.7846 80.7464 98.2804C80.8004 97.7762 80.6531 97.271 80.3364 96.8749L67.4518 80.7691H90.3845C91.9146 80.7691 93.382 80.1613 94.464 79.0794C95.5459 77.9974 96.1537 76.53 96.1537 74.9999V17.3077C96.1537 15.7776 95.5459 14.3102 94.464 13.2282C93.382 12.1463 91.9146 11.5384 90.3845 11.5384ZM92.3076 74.9999C92.3076 75.5099 92.105 75.9991 91.7443 76.3597C91.3837 76.7204 90.8945 76.923 90.3845 76.923H5.76922C5.25919 76.923 4.77005 76.7204 4.40941 76.3597C4.04876 75.9991 3.84615 75.5099 3.84615 74.9999V17.3077C3.84615 16.7976 4.04876 16.3085 4.40941 15.9479C4.77005 15.5872 5.25919 15.3846 5.76922 15.3846H90.3845C90.8945 15.3846 91.3837 15.5872 91.7443 15.9479C92.105 16.3085 92.3076 16.7976 92.3076 17.3077V74.9999ZM34.6153 48.0769V59.6153C34.6153 60.1253 34.4127 60.6145 34.0521 60.9751C33.6914 61.3358 33.2023 61.5384 32.6923 61.5384C32.1822 61.5384 31.6931 61.3358 31.3324 60.9751C30.9718 60.6145 30.7692 60.1253 30.7692 59.6153V48.0769C30.7692 47.5668 30.9718 47.0777 31.3324 46.717C31.6931 46.3564 32.1822 46.1538 32.6923 46.1538C33.2023 46.1538 33.6914 46.3564 34.0521 46.717C34.4127 47.0777 34.6153 47.5668 34.6153 48.0769ZM49.9999 40.3846V59.6153C49.9999 60.1253 49.7973 60.6145 49.4367 60.9751C49.076 61.3358 48.5869 61.5384 48.0769 61.5384C47.5668 61.5384 47.0777 61.3358 46.717 60.9751C46.3564 60.6145 46.1538 60.1253 46.1538 59.6153V40.3846C46.1538 39.8745 46.3564 39.3854 46.717 39.0247C47.0777 38.6641 47.5668 38.4615 48.0769 38.4615C48.5869 38.4615 49.076 38.6641 49.4367 39.0247C49.7973 39.3854 49.9999 39.8745 49.9999 40.3846ZM65.3845 32.6923V59.6153C65.3845 60.1253 65.1819 60.6145 64.8213 60.9751C64.4606 61.3358 63.9715 61.5384 63.4615 61.5384C62.9514 61.5384 62.4623 61.3358 62.1016 60.9751C61.741 60.6145 61.5384 60.1253 61.5384 59.6153V32.6923C61.5384 32.1822 61.741 31.6931 62.1016 31.3324C62.4623 30.9718 62.9514 30.7692 63.4615 30.7692C63.9715 30.7692 64.4606 30.9718 64.8213 31.3324C65.1819 31.6931 65.3845 32.1822 65.3845 32.6923Z" fill="black"/>
</svg>
