<svg width="25" height="30" viewBox="0 0 25 30" fill="none" xmlns="http://www.w3.org/2000/svg">
<path d="M12.5 0C9.186 0.00368622 6.00885 1.24658 3.66549 3.45603C1.32214 5.66548 0.00392292 8.66108 1.32987e-05 11.7857C-0.00395589 14.3392 0.880672 16.8233 2.51819 18.8571C2.51819 18.8571 2.8591 19.2804 2.91478 19.3414L12.5 30L22.0898 19.3361C22.1398 19.2793 22.4818 18.8571 22.4818 18.8571L22.4829 18.8539C24.1197 16.821 25.0039 14.338 25 11.7857C24.9961 8.66108 23.6779 5.66548 21.3345 3.45603C18.9912 1.24658 15.814 0.00368622 12.5 0ZM12.5 16.0714C11.601 16.0714 10.7222 15.8201 9.97468 15.3492C9.22719 14.8782 8.64459 14.2089 8.30055 13.4258C7.95652 12.6427 7.8665 11.781 8.04189 10.9496C8.21728 10.1183 8.65019 9.35462 9.28588 8.75526C9.92157 8.15589 10.7315 7.74771 11.6132 7.58235C12.495 7.41698 13.4089 7.50185 14.2395 7.82623C15.07 8.15061 15.7799 8.69992 16.2794 9.4047C16.7789 10.1095 17.0455 10.9381 17.0455 11.7857C17.0439 12.9219 16.5646 14.0112 15.7125 14.8146C14.8603 15.618 13.7051 16.07 12.5 16.0714Z" fill="#019FE7"/>
</svg>
