<svg width="80" height="80" viewBox="0 0 80 80" fill="none" xmlns="http://www.w3.org/2000/svg">
<path d="M34.6475 71.94C34.657 72.0399 34.6913 72.1358 34.7472 72.2192C34.803 72.3025 34.8787 72.3707 34.9675 72.4175C36.0934 73.0091 37.2557 73.5285 38.4475 73.9725C38.9245 74.0651 39.4073 74.1252 39.8925 74.1525H40.0225C40.5077 74.1252 40.9904 74.0651 41.4675 73.9725C42.6592 73.5284 43.8216 73.009 44.9475 72.4175C45.0361 72.3705 45.1117 72.3023 45.1675 72.219C45.2234 72.1357 45.2577 72.0398 45.2675 71.94L39.925 72.42L34.6475 71.94Z" fill="url(#paint0_linear_8_559)"/>
<path d="M39.8775 74.5175C39.3139 74.521 38.7508 74.4843 38.1925 74.4075C38.6731 74.7861 39.2657 74.9945 39.8775 75H40.035C40.6476 74.9949 41.2412 74.7865 41.7225 74.4075C41.1633 74.4844 40.5994 74.5211 40.035 74.5175H39.8775Z" fill="url(#paint1_linear_8_559)"/>
<path d="M49.5225 67.095C49.2555 67.37 49.0554 67.7028 48.9375 68.0675C48.8475 68.52 48.6875 69.53 45.6225 71.5825L45.56 71.625C45.4919 71.6635 45.4198 71.6945 45.345 71.7175C43.5735 72.0868 41.767 72.262 39.9575 72.24C38.1472 72.2621 36.3399 72.0869 34.5675 71.7175C34.4937 71.6951 34.4225 71.6649 34.355 71.6275L34.2925 71.585C33.2362 70.9438 32.2906 70.1359 31.4925 69.1925C31.0825 68.645 30.56 68.55 30.5175 68.33C33.7189 68.6721 36.9449 68.7198 40.155 68.4725C43.3524 68.3914 46.5204 67.8405 49.5575 66.8375C49.5523 66.9241 49.5406 67.0102 49.5225 67.095Z" fill="url(#paint2_radial_8_559)"/>
<path d="M49.43 67.2C49.2413 67.336 49.0342 67.4446 48.815 67.5225C48.625 67.5925 48.2025 67.7175 48.2025 67.7175C42.8902 68.7747 37.4637 69.1411 32.0575 68.8075C31.7175 68.785 31.2575 68.7375 31.2575 68.7375C31.1394 68.7221 31.0225 68.6987 30.9075 68.6675C31.0317 68.7464 31.1488 68.8359 31.2575 68.935C31.6575 68.9675 32.055 68.9825 32.055 68.9825C37.6858 69.4233 43.3496 69.1519 48.9125 68.175L48.935 68.07C49.0314 67.746 49.2007 67.4484 49.43 67.2Z" fill="url(#paint3_linear_8_559)"/>
<path d="M45.56 71.625C45.4919 71.6635 45.4198 71.6945 45.345 71.7175C43.5735 72.0868 41.767 72.262 39.9575 72.24C38.1472 72.2621 36.3399 72.0869 34.5675 71.7175C34.4937 71.6951 34.4224 71.6649 34.355 71.6275L34.2925 71.585L34.22 71.5375C34.1996 71.5966 34.1996 71.6609 34.22 71.72C34.28 71.9025 34.5875 71.97 34.5875 71.97C36.3549 72.3389 38.1572 72.5141 39.9625 72.4925C41.7678 72.5141 43.5701 72.3389 45.3375 71.97C45.3375 71.97 45.6525 71.8975 45.705 71.72C45.7243 71.6607 45.7243 71.5968 45.705 71.5375L45.6325 71.585L45.56 71.625Z" fill="url(#paint4_linear_8_559)"/>
<path d="M49.86 63.75C49.86 63.75 49.9625 64.38 48.815 64.8075C48.625 64.8775 48.2025 65.0025 48.2025 65.0025C42.8902 66.0594 37.4637 66.4258 32.0575 66.0925C31.7175 66.07 31.2575 66.0225 31.2575 66.0225C30.5675 65.9275 30.09 65.6225 30.12 65.2525C30.12 65.2525 30.0375 64.63 31.285 64.63C37.0826 65.0062 42.9045 64.6094 48.5975 63.45C48.5975 63.45 49.21 63.275 49.21 63.045C49.2165 62.988 49.2051 62.9303 49.1775 62.88C49.1775 62.88 49.86 63.28 49.86 63.75Z" fill="url(#paint5_linear_8_559)"/>
<path d="M49.7325 61.015V60.9625C49.7025 61.1525 49.5375 61.5525 48.69 61.85C48.5 61.915 48.0775 62.0325 48.0775 62.0325C43.8894 62.9361 39.6113 63.3556 35.3275 63.2825C39.6058 63.4089 43.8844 63.0389 48.0775 62.18C48.0775 62.18 48.5 62.0625 48.69 61.9975C49.8325 61.6075 49.7325 61.015 49.7325 61.015ZM49.7325 63.7275V63.675C49.7025 63.865 49.5375 64.265 48.69 64.5625C48.5 64.63 48.0775 64.745 48.0775 64.745C43.8894 65.6485 39.6113 66.0679 35.3275 65.995C39.6058 66.121 43.8843 65.751 48.0775 64.8925C48.0775 64.8925 48.5 64.775 48.69 64.71C49.8325 64.32 49.7325 63.7275 49.7325 63.7275Z" fill="white"/>
<path d="M49.7325 66.44V66.3875C49.7025 66.5775 49.5375 66.9775 48.69 67.275C48.5 67.34 48.0775 67.4575 48.0775 67.4575C43.8894 68.3611 39.6113 68.7806 35.3275 68.7075C39.6058 68.8337 43.8844 68.4637 48.0775 67.605C48.0775 67.605 48.5 67.4875 48.69 67.4225C49.8325 67.0325 49.7325 66.44 49.7325 66.44ZM49.7325 58.3025V58.25C49.7025 58.44 49.5375 58.84 48.69 59.1375C48.5 59.205 48.0775 59.32 48.0775 59.32C43.8894 60.2236 39.6113 60.6431 35.3275 60.57C39.6058 60.6964 43.8844 60.3264 48.0775 59.4675C48.0775 59.4675 48.5 59.35 48.69 59.285C49.8325 58.895 49.7325 58.3025 49.7325 58.3025Z" fill="white"/>
<path d="M31.0425 64.7025C31.0425 64.7025 30.4525 64.7025 30.44 64.9025C30.4275 65.1025 31.055 65.115 31.055 65.115C31.055 65.115 31.4925 65.115 31.805 65.1275C33.3525 65.095 36.7875 65.0325 40.3975 64.7125C35.96 64.895 31.8075 64.7075 31.0425 64.7025Z" fill="url(#paint6_linear_8_559)"/>
<path d="M50.0875 56.9475C50.9118 56.0988 51.5954 55.1241 52.1125 54.06C52.4345 53.1655 52.6035 52.2232 52.6125 51.2725C52.5896 48.76 53.1295 46.2742 54.1925 43.9975C55.5275 41.4625 61.2175 32.88 61.2175 25.3425C61.2654 22.583 60.7426 19.8433 59.6817 17.2954C58.6208 14.7475 57.0448 12.4463 55.0526 10.5363C53.0604 8.6262 50.6949 7.14846 48.1046 6.19576C45.5143 5.24307 42.7551 4.83597 40 5.00001C37.246 4.83742 34.488 5.24551 31.8991 6.1987C29.3101 7.15189 26.946 8.62963 24.9549 10.5393C22.9638 12.4489 21.3887 14.7493 20.3283 17.2962C19.2679 19.8431 18.745 22.5816 18.7925 25.34C18.7925 32.8775 24.4825 41.46 25.8175 43.995C26.8807 46.2716 27.4206 48.7575 27.3975 51.27C27.4064 52.2207 27.5754 53.163 27.8975 54.0575C28.4148 55.1215 29.0984 56.0962 29.9225 56.945C33.1827 57.734 36.5403 58.0456 39.89 57.87C43.3153 58.0255 46.7458 57.7151 50.0875 56.9475Z" fill="url(#paint7_radial_8_559)"/>
<defs>
<linearGradient id="paint0_linear_8_559" x1="34.6475" y1="73.0475" x2="45.265" y2="73.0475" gradientUnits="userSpaceOnUse">
<stop offset="0.034" stop-color="#636361"/>
<stop offset="0.178" stop-color="#6C6D70"/>
<stop offset="0.219" stop-color="#6F7175"/>
<stop offset="0.309" stop-color="#616366"/>
<stop offset="0.481" stop-color="#3C3D3F"/>
<stop offset="0.716" stop-color="#010101"/>
<stop offset="0.719"/>
<stop offset="1" stop-color="#636A6E"/>
</linearGradient>
<linearGradient id="paint1_linear_8_559" x1="38.1925" y1="74.7025" x2="41.72" y2="74.7025" gradientUnits="userSpaceOnUse">
<stop offset="0.034" stop-color="#9B9B98"/>
<stop offset="0.131" stop-color="#A4A5A7"/>
<stop offset="0.219" stop-color="#AEB1B8"/>
<stop offset="0.352" stop-color="#9FA4AB"/>
<stop offset="0.605" stop-color="#788188"/>
<stop offset="0.719" stop-color="#657076"/>
<stop offset="1" stop-color="#8B949A"/>
</linearGradient>
<radialGradient id="paint2_radial_8_559" cx="0" cy="0" r="1" gradientUnits="userSpaceOnUse" gradientTransform="translate(62.8234 48.8743) scale(51.0742 51.0742)">
<stop offset="0.034" stop-color="#70706E"/>
<stop offset="0.112" stop-color="#616261"/>
<stop offset="0.219" stop-color="#46474A"/>
<stop offset="0.408" stop-color="#48494C"/>
<stop offset="0.487" stop-color="#4E5053"/>
<stop offset="0.544" stop-color="#5A5C5F"/>
<stop offset="0.592" stop-color="#6A6E71"/>
<stop offset="0.633" stop-color="#7F8588"/>
<stop offset="0.667" stop-color="#979EA1"/>
<stop offset="0.719" stop-color="#3D4447"/>
<stop offset="1" stop-color="#656C70"/>
</radialGradient>
<linearGradient id="paint3_linear_8_559" x1="40.315" y1="70.27" x2="40.125" y2="67.2325" gradientUnits="userSpaceOnUse">
<stop offset="0.034" stop-color="#9B9B98"/>
<stop offset="0.109" stop-color="#A5A6A7"/>
<stop offset="0.219" stop-color="#BABCC4"/>
<stop offset="0.311" stop-color="#ABAEB5"/>
<stop offset="0.487" stop-color="#84898F"/>
<stop offset="0.719" stop-color="#485054"/>
<stop offset="1" stop-color="#8B949A"/>
</linearGradient>
<linearGradient id="paint4_linear_8_559" x1="34.2" y1="72.0125" x2="45.71" y2="72.0125" gradientUnits="userSpaceOnUse">
<stop offset="0.034" stop-color="#545453"/>
<stop offset="0.071" stop-color="#616262"/>
<stop offset="0.143" stop-color="#848589"/>
<stop offset="0.219" stop-color="#AEB1B8"/>
<stop offset="0.352" stop-color="#9FA4AB"/>
<stop offset="0.605" stop-color="#788188"/>
<stop offset="0.719" stop-color="#657076"/>
<stop offset="1" stop-color="#505659"/>
</linearGradient>
<linearGradient id="paint5_linear_8_559" x1="30.3975" y1="64.5325" x2="48.6875" y2="64.5325" gradientUnits="userSpaceOnUse">
<stop stop-color="#DDDAD6"/>
<stop offset="0.038" stop-color="#CECCC9"/>
<stop offset="0.112" stop-color="#A7A9A8"/>
<stop offset="0.212" stop-color="#697072"/>
<stop offset="0.264" stop-color="#465054"/>
<stop offset="0.303" stop-color="#636C6F"/>
<stop offset="0.398" stop-color="#A5AAAC"/>
<stop offset="0.478" stop-color="#D5D7D9"/>
<stop offset="0.539" stop-color="#F3F4F5"/>
<stop offset="0.573" stop-color="#FEFEFF"/>
<stop offset="0.62" stop-color="#F4F5F6"/>
<stop offset="0.699" stop-color="#DADCDF"/>
<stop offset="0.8" stop-color="#B0B4B9"/>
<stop offset="0.876" stop-color="#8B9298"/>
<stop offset="1" stop-color="#A7A9AC"/>
</linearGradient>
<linearGradient id="paint6_linear_8_559" x1="30.3975" y1="64.9175" x2="48.6875" y2="64.9175" gradientUnits="userSpaceOnUse">
<stop stop-color="#D2F3BA"/>
<stop offset="0.036" stop-color="#C5E4B1"/>
<stop offset="0.105" stop-color="#A4BD98"/>
<stop offset="0.199" stop-color="#6E7F71"/>
<stop offset="0.264" stop-color="#465054"/>
<stop offset="0.303" stop-color="#636C6F"/>
<stop offset="0.398" stop-color="#A5AAAC"/>
<stop offset="0.478" stop-color="#D5D7D9"/>
<stop offset="0.539" stop-color="#F3F4F5"/>
<stop offset="0.573" stop-color="#FEFEFF"/>
<stop offset="0.62" stop-color="#F4F5F6"/>
<stop offset="0.699" stop-color="#DADCDF"/>
<stop offset="0.8" stop-color="#B0B4B9"/>
<stop offset="0.876" stop-color="#8B9298"/>
<stop offset="1" stop-color="#A7A9AC"/>
</linearGradient>
<radialGradient id="paint7_radial_8_559" cx="0" cy="0" r="1" gradientUnits="userSpaceOnUse" gradientTransform="translate(40.3548 32.1895) scale(28.2419)">
<stop stop-color="#FFFFD1"/>
<stop offset="0.505" stop-color="#FFFF00"/>
<stop offset="0.568" stop-color="#FDF700"/>
<stop offset="0.664" stop-color="#F6E200"/>
<stop offset="0.782" stop-color="#EBBF00"/>
<stop offset="0.906" stop-color="#DE9200"/>
<stop offset="1" stop-color="#DA9819"/>
</radialGradient>
</defs>
</svg>
