<svg width="20" height="20" viewBox="0 0 20 20" fill="none" xmlns="http://www.w3.org/2000/svg">
<path d="M3.33366 17.5H4.16699V6.66669H3.33366C2.89163 6.66669 2.46771 6.84228 2.15515 7.15484C1.84259 7.4674 1.66699 7.89133 1.66699 8.33335V15.8334C1.66699 16.2754 1.84259 16.6993 2.15515 17.0119C2.46771 17.3244 2.89163 17.5 3.33366 17.5ZM16.667 6.66669H10.8337L11.7687 3.86002C11.8521 3.60953 11.8748 3.34281 11.835 3.08182C11.7951 2.82082 11.6938 2.57303 11.5395 2.35885C11.3851 2.14467 11.1821 1.97022 10.9471 1.84988C10.7121 1.72954 10.4518 1.66676 10.1878 1.66669H10.0003L5.83366 6.19835V17.5H15.0003L18.2603 10.3367L18.3337 10V8.33335C18.3337 7.89133 18.1581 7.4674 17.8455 7.15484C17.5329 6.84228 17.109 6.66669 16.667 6.66669Z" fill="#019FE7"/>
</svg>
