<svg width="30" height="30" viewBox="0 0 30 30" fill="none" xmlns="http://www.w3.org/2000/svg">
<path d="M15 19.6875C16.0355 19.6875 16.875 18.848 16.875 17.8125C16.875 16.777 16.0355 15.9375 15 15.9375C13.9645 15.9375 13.125 16.777 13.125 17.8125C13.125 18.848 13.9645 19.6875 15 19.6875Z" fill="#71717A"/>
<path d="M22.2909 17.3241C21.7117 15.8483 20.7121 14.575 19.4161 13.662C18.1201 12.7489 16.5846 12.2362 15 12.1875C13.4154 12.2362 11.8799 12.7489 10.5839 13.662C9.28791 14.575 8.28832 15.8483 7.70906 17.3241L7.5 17.8125L7.70906 18.3009C8.28832 19.7767 9.28791 21.05 10.5839 21.963C11.8799 22.8761 13.4154 23.3888 15 23.4375C16.5846 23.3888 18.1201 22.8761 19.4161 21.963C20.7121 21.05 21.7117 19.7767 22.2909 18.3009L22.5 17.8125L22.2909 17.3241ZM15 21.5625C14.2583 21.5625 13.5333 21.3426 12.9166 20.9305C12.2999 20.5185 11.8193 19.9328 11.5355 19.2476C11.2516 18.5623 11.1774 17.8083 11.3221 17.0809C11.4667 16.3535 11.8239 15.6853 12.3483 15.1609C12.8728 14.6364 13.541 14.2792 14.2684 14.1346C14.9958 13.9899 15.7498 14.0641 16.4351 14.348C17.1203 14.6318 17.706 15.1124 18.118 15.7291C18.5301 16.3458 18.75 17.0708 18.75 17.8125C18.7488 18.8067 18.3533 19.7598 17.6503 20.4628C16.9473 21.1658 15.9942 21.5613 15 21.5625Z" fill="#71717A"/>
<path d="M25.3125 2.8125H4.6875C4.19022 2.8125 3.71331 3.01004 3.36167 3.36167C3.01004 3.71331 2.8125 4.19022 2.8125 4.6875V25.3125C2.8125 25.8098 3.01004 26.2867 3.36167 26.6383C3.71331 26.99 4.19022 27.1875 4.6875 27.1875H25.3125C25.8098 27.1875 26.2867 26.99 26.6383 26.6383C26.99 26.2867 27.1875 25.8098 27.1875 25.3125V4.6875C27.1875 4.19022 26.99 3.71331 26.6383 3.36167C26.2867 3.01004 25.8098 2.8125 25.3125 2.8125ZM4.6875 4.6875H25.3125V8.4375H4.6875V4.6875ZM4.6875 25.3125V10.3125H25.3125V25.3125H4.6875Z" fill="#71717A"/>
</svg>
