<svg width="31" height="30" viewBox="0 0 31 30" fill="none" xmlns="http://www.w3.org/2000/svg">
<path d="M26.4781 4.02181C26.3515 3.89588 26.1917 3.80869 26.0173 3.77049C25.8429 3.7323 25.6613 3.74468 25.4937 3.80619L4.86869 11.3062C4.69082 11.3737 4.53768 11.4936 4.42961 11.6502C4.32155 11.8068 4.26367 11.9925 4.26367 12.1827C4.26367 12.373 4.32155 12.5587 4.42961 12.7153C4.53768 12.8719 4.69082 12.9918 4.86869 13.0593L12.9218 16.2749L18.8656 10.3124L20.1874 11.6343L14.2156 17.6062L17.4406 25.6593C17.51 25.8337 17.6303 25.9833 17.7857 26.0886C17.9412 26.1939 18.1247 26.2501 18.3124 26.2499C18.5019 26.2461 18.6857 26.1848 18.8397 26.0744C18.9937 25.9639 19.1106 25.8094 19.1749 25.6312L26.6749 5.00619C26.7388 4.84032 26.7542 4.65971 26.7194 4.48543C26.6845 4.31114 26.6008 4.15035 26.4781 4.02181Z" fill="#023887"/>
</svg>
