<svg width="50" height="50" viewBox="0 0 50 50" fill="none" xmlns="http://www.w3.org/2000/svg">
<g clip-path="url(#clip0_1344_91)">
<path d="M41.6667 16.6667H36.1112V9.72226C36.1112 9.35391 35.9648 9.00064 35.7044 8.74017C35.4439 8.4797 35.0906 8.33337 34.7223 8.33337H4.16672C3.79836 8.33337 3.4451 8.4797 3.18463 8.74017C2.92416 9.00064 2.77783 9.35391 2.77783 9.72226V34.7223C2.77783 35.0906 2.92416 35.4439 3.18463 35.7044C3.4451 35.9648 3.79836 36.1112 4.16672 36.1112H5.55561V11.1112H33.3334V27.3612C34.0416 27.1805 34.7692 27.0872 35.5001 27.0834H36.1112V19.4445H41.6667C42.4034 19.4445 43.11 19.7371 43.6309 20.2581C44.1518 20.779 44.4445 21.4856 44.4445 22.2223V23.6112H38.8889V26.3889H44.4445V33.3334H41.1112C40.6239 32.2015 39.8157 31.2373 38.7864 30.5597C37.757 29.8822 36.5518 29.5211 35.3195 29.5211C34.0872 29.5211 32.8819 29.8822 31.8526 30.5597C30.8233 31.2373 30.0151 32.2015 29.5278 33.3334H20.0417C19.5637 32.1932 18.7583 31.2205 17.7274 30.5382C16.6965 29.8558 15.4863 29.4945 14.2501 29.5C13.0754 29.526 11.9335 29.8915 10.9621 30.5524C9.99071 31.2133 9.23152 32.1414 8.77623 33.2245C8.32094 34.3076 8.18903 35.4994 8.39645 36.6558C8.60386 37.8123 9.14173 38.8839 9.94505 39.7413C10.7484 40.5987 11.7828 41.205 12.9233 41.4872C14.0638 41.7694 15.2617 41.7152 16.3721 41.3313C17.4825 40.9474 18.4579 40.2501 19.1806 39.3238C19.9033 38.3974 20.3423 37.2816 20.4445 36.1112H29.1667C29.3432 37.6302 30.0717 39.0315 31.2138 40.0486C32.3559 41.0656 33.8319 41.6276 35.3612 41.6276C36.8905 41.6276 38.3664 41.0656 39.5085 40.0486C40.6506 39.0315 41.3791 37.6302 41.5556 36.1112H45.8334C46.2017 36.1112 46.555 35.9648 46.8155 35.7044C47.0759 35.4439 47.2223 35.0906 47.2223 34.7223V22.2223C47.2223 20.7488 46.637 19.3358 45.5951 18.2939C44.5532 17.252 43.1401 16.6667 41.6667 16.6667ZM14.2501 38.8889C13.7989 38.9182 13.3465 38.8546 12.9208 38.7021C12.4952 38.5496 12.1054 38.3114 11.7755 38.0022C11.4456 37.6931 11.1826 37.3195 11.0029 36.9046C10.8231 36.4898 10.7303 36.0424 10.7303 35.5903C10.7303 35.1382 10.8231 34.6909 11.0029 34.276C11.1826 33.8612 11.4456 33.4876 11.7755 33.1784C12.1054 32.8692 12.4952 32.631 12.9208 32.4785C13.3465 32.326 13.7989 32.2624 14.2501 32.2917C14.7012 32.2624 15.1536 32.326 15.5793 32.4785C16.0049 32.631 16.3947 32.8692 16.7246 33.1784C17.0545 33.4876 17.3175 33.8612 17.4972 34.276C17.677 34.6909 17.7698 35.1382 17.7698 35.5903C17.7698 36.0424 17.677 36.4898 17.4972 36.9046C17.3175 37.3195 17.0545 37.6931 16.7246 38.0022C16.3947 38.3114 16.0049 38.5496 15.5793 38.7021C15.1536 38.8546 14.7012 38.9182 14.2501 38.8889ZM35.3195 38.8889C34.6732 38.8563 34.0508 38.6347 33.5292 38.2516C33.0077 37.8685 32.6101 37.3408 32.3857 36.7339C32.1613 36.1269 32.12 35.4675 32.2669 34.8373C32.4138 34.2071 32.7424 33.6339 33.212 33.1887C33.6816 32.7435 34.2716 32.4459 34.9087 32.3329C35.5458 32.2198 36.2021 32.2963 36.7962 32.5527C37.3903 32.8092 37.8961 33.2344 38.2508 33.7756C38.6055 34.3168 38.7936 34.9502 38.7917 35.5973C38.7663 36.4937 38.3865 37.3435 37.7357 37.9605C37.0849 38.5775 36.216 38.9113 35.3195 38.8889Z" fill="#00569E"/>
</g>
<defs>
<clipPath id="clip0_1344_91">
<rect width="50" height="50" fill="white"/>
</clipPath>
</defs>
</svg>
