<svg width="175" height="130" viewBox="0 0 175 130" fill="none" xmlns="http://www.w3.org/2000/svg">
<path d="M174.469 114.242H0V114.329H174.469V114.242Z" fill="#EBEBEB"/>
<path d="M29.8615 117.564H18.3047V117.651H29.8615V117.564Z" fill="#EBEBEB"/>
<path d="M74.5571 116.618H59.7168V116.706H74.5571V116.618Z" fill="#EBEBEB"/>
<path d="M39.3113 118.789H32.6152V118.876H39.3113V118.789Z" fill="#EBEBEB"/>
<path d="M156.986 120.219H151.672V120.306H156.986V120.219Z" fill="#EBEBEB"/>
<path d="M148.563 120.219H136.598V120.306H148.563V120.219Z" fill="#EBEBEB"/>
<path d="M115.788 117.707H107.473V117.794H115.788V117.707Z" fill="#EBEBEB"/>
<path d="M82.6972 98.6794H15.3245C14.796 98.6794 14.2893 98.4695 13.9156 98.0958C13.5419 97.7222 13.332 97.2154 13.332 96.687V1.97498C13.3366 1.44959 13.5486 0.947276 13.9217 0.577388C14.2949 0.2075 14.799 -2.01427e-05 15.3245 1.46642e-09H82.6972C83.2257 1.46643e-09 83.7324 0.209916 84.1061 0.58357C84.4797 0.957223 84.6897 1.464 84.6897 1.99243V96.687C84.6897 97.2154 84.4797 97.7222 84.1061 98.0958C83.7324 98.4695 83.2257 98.6794 82.6972 98.6794ZM15.3245 0.0697877C14.8195 0.0707101 14.3354 0.271731 13.9783 0.628825C13.6212 0.985919 13.4202 1.46998 13.4193 1.97498V96.687C13.4202 97.192 13.6212 97.676 13.9783 98.0331C14.3354 98.3902 14.8195 98.5912 15.3245 98.5922H82.6972C83.2022 98.5912 83.6863 98.3902 84.0434 98.0331C84.4005 97.676 84.6015 97.192 84.6024 96.687V1.97498C84.6015 1.46998 84.4005 0.985919 84.0434 0.628825C83.6863 0.271731 83.2022 0.0707101 82.6972 0.0697877H15.3245Z" fill="#EBEBEB"/>
<path d="M158.177 98.6794H90.7971C90.269 98.6785 89.7627 98.4683 89.3893 98.0948C89.0158 97.7214 88.8056 97.2151 88.8047 96.687V1.97498C88.8102 1.44987 89.0224 0.948089 89.3954 0.578396C89.7684 0.208702 90.272 0.000889193 90.7971 0H158.177C158.701 0.00181604 159.203 0.210147 159.575 0.579839C159.947 0.94953 160.158 1.45079 160.162 1.97498V96.687C160.162 97.2142 159.953 97.7199 159.581 98.0934C159.209 98.4668 158.704 98.6776 158.177 98.6794ZM90.7971 0.0697877C90.2921 0.0707101 89.8081 0.271731 89.451 0.628825C89.0939 0.985919 88.8928 1.46998 88.8919 1.97498V96.687C88.8928 97.192 89.0939 97.676 89.451 98.0331C89.8081 98.3902 90.2921 98.5912 90.7971 98.5922H158.177C158.682 98.5912 159.166 98.3902 159.523 98.0331C159.88 97.676 160.081 97.192 160.082 96.687V1.97498C160.081 1.46998 159.88 0.985919 159.523 0.628825C159.166 0.271731 158.682 0.0707101 158.177 0.0697877H90.7971Z" fill="#EBEBEB"/>
<path d="M107.298 49.3293L144.938 49.3293V11.5883L107.298 11.5883V49.3293Z" fill="#F0F0F0"/>
<path d="M107.297 11.5916H106.648V49.3326H107.297V11.5916Z" fill="#E0E0E0"/>
<path d="M110.623 46.946L141.615 46.946V13.9715L110.623 13.9715V46.946Z" fill="#FAFAFA"/>
<path d="M122.826 39.7787H132.641C134.77 39.7787 136.193 38.055 135.82 35.9404L133.911 25.0082C133.699 23.9505 133.136 22.9955 132.312 22.2987C131.489 21.6018 130.453 21.204 129.375 21.1699H119.584C117.455 21.1699 116.032 22.8937 116.405 25.0082L118.314 35.9404C118.524 36.9945 119.084 37.9468 119.903 38.6433C120.722 39.3398 121.751 39.7399 122.826 39.7787Z" fill="#F0F0F0"/>
<path d="M36.6284 60.7917H28.2539V112.452H36.6284V60.7917Z" fill="#F0F0F0"/>
<path d="M73.3755 112.456H29.1094V114.239H73.3755V112.456Z" fill="#F0F0F0"/>
<path d="M36.6285 112.456H74.1113V60.7954L36.6285 60.7954L36.6285 112.456Z" fill="#F5F5F5"/>
<path d="M38.1355 96.9175H72.6035V87.6916H38.1355V96.9175Z" fill="#F0F0F0"/>
<path d="M38.1355 108.99H72.6035V99.7646H38.1355V108.99Z" fill="#F0F0F0"/>
<path d="M68.5243 87.126H42.2145C41.9871 87.126 41.8027 87.3103 41.8027 87.5377V87.9809C41.8027 88.2083 41.9871 88.3926 42.2145 88.3926H68.5243C68.7517 88.3926 68.9361 88.2083 68.9361 87.9809V87.5377C68.9361 87.3103 68.7517 87.126 68.5243 87.126Z" fill="#F5F5F5"/>
<path d="M68.5243 99.2029H42.2145C41.9871 99.2029 41.8027 99.3872 41.8027 99.6146V100.058C41.8027 100.285 41.9871 100.47 42.2145 100.47H68.5243C68.7517 100.47 68.9361 100.285 68.9361 100.058V99.6146C68.9361 99.3872 68.7517 99.2029 68.5243 99.2029Z" fill="#F5F5F5"/>
<path d="M38.1355 72.865H72.6035V63.6391H38.1355V72.865Z" fill="#F0F0F0"/>
<path d="M38.1355 84.8477H72.6035V75.6218H38.1355V84.8477Z" fill="#F0F0F0"/>
<path d="M68.5243 63.0771H42.2145C41.9871 63.0771 41.8027 63.2615 41.8027 63.4889V63.932C41.8027 64.1594 41.9871 64.3438 42.2145 64.3438H68.5243C68.7517 64.3438 68.9361 64.1594 68.9361 63.932V63.4889C68.9361 63.2615 68.7517 63.0771 68.5243 63.0771Z" fill="#F5F5F5"/>
<path d="M68.5243 75.053H42.2145C41.9871 75.053 41.8027 75.2373 41.8027 75.4647V75.9079C41.8027 76.1353 41.9871 76.3196 42.2145 76.3196H68.5243C68.7517 76.3196 68.9361 76.1353 68.9361 75.9079V75.4647C68.9361 75.2373 68.7517 75.053 68.5243 75.053Z" fill="#F5F5F5"/>
<path d="M72.7534 8.74438H25.748V50.0097H72.7534V8.74438Z" fill="#E6E6E6"/>
<path d="M77.791 7.1394H22.7043C22.6431 7.1394 22.5825 7.15152 22.5259 7.17506C22.4694 7.1986 22.4181 7.2331 22.3749 7.27656C22.3318 7.32003 22.2977 7.3716 22.2746 7.42831C22.2515 7.48502 22.2398 7.54574 22.2402 7.60698C22.2402 7.73006 22.2891 7.84811 22.3762 7.93514C22.4632 8.02217 22.5812 8.07107 22.7043 8.07107H77.791C77.9144 8.07107 78.0328 8.02229 78.1204 7.93535C78.208 7.84842 78.2577 7.73038 78.2586 7.60698C78.2586 7.48297 78.2093 7.36404 78.1217 7.27635C78.034 7.18867 77.915 7.1394 77.791 7.1394Z" fill="#E6E6E6"/>
<path d="M74.7493 8.74438H26.6797V50.0097H74.7493V8.74438Z" fill="#F0F0F0"/>
<path d="M72.7534 50.0098H25.748V51.3322H74.1282L72.7534 50.0098Z" fill="#E6E6E6"/>
<path d="M78.0719 50.0098H30.0059L31.3772 51.3322H79.4468L78.0719 50.0098Z" fill="#F0F0F0"/>
<path d="M71.957 47.2182V11.5359L29.4739 11.5359V47.2182H71.957Z" fill="#FAFAFA"/>
<path d="M39.1191 47.2182L55.5052 11.5359H63.2447L46.8551 47.2182H39.1191Z" fill="white"/>
<path d="M48.5156 47.2182L64.9052 11.5359H67.92L51.5339 47.2182H48.5156Z" fill="white"/>
<path d="M71.957 47.2182V11.5359H71.6011V47.2182H71.957Z" fill="#E6E6E6"/>
<g opacity="0.4">
<path d="M29.506 6.30566H24.7012V40.3584H29.506V6.30566Z" fill="#F0F0F0"/>
<path d="M31.3789 6.30566H27.6348V40.3584H31.3789V6.30566Z" fill="#E6E6E6"/>
<path d="M34.3107 6.30566H29.5059V40.3584H34.3107V6.30566Z" fill="#F0F0F0"/>
<path d="M36.1855 6.30566H32.4414V40.3584H36.1855V6.30566Z" fill="#E6E6E6"/>
<path d="M39.1154 6.30566H34.3105V40.3584H39.1154V6.30566Z" fill="#F0F0F0"/>
</g>
<g opacity="0.4">
<path d="M70.1729 6.30566H67.4023V40.3584H70.1729V6.30566Z" fill="#F0F0F0"/>
<path d="M71.2463 6.30566H69.0898V40.3584H71.2463V6.30566Z" fill="#E6E6E6"/>
<path d="M72.9405 6.30566H70.1699V40.3584H72.9405V6.30566Z" fill="#F0F0F0"/>
<path d="M74.0178 6.30566H71.8613V40.3584H74.0178V6.30566Z" fill="#E6E6E6"/>
<path d="M75.71 6.30566H72.9395V40.3584H75.71V6.30566Z" fill="#F0F0F0"/>
</g>
<path d="M124.518 74.7459C124.477 75.2506 124.587 75.7562 124.833 76.1987C125.079 76.6413 125.451 77.0009 125.902 77.2321C126.352 77.4634 126.861 77.5558 127.364 77.4979C127.867 77.4399 128.342 77.2341 128.728 76.9065C129.114 76.5788 129.395 76.144 129.534 75.6571C129.673 75.1702 129.664 74.6529 129.51 74.1707C129.355 73.6885 129.061 73.2631 128.664 72.9481C128.267 72.6331 127.786 72.4427 127.282 72.401C126.604 72.346 125.933 72.562 125.415 73.0017C124.897 73.4413 124.574 74.0686 124.518 74.7459Z" fill="#E0E0E0"/>
<path d="M131.639 78.825C133.041 78.6188 134.01 77.3156 133.804 75.9143C133.597 74.5129 132.294 73.544 130.893 73.7502C129.491 73.9564 128.523 75.2596 128.729 76.6609C128.935 78.0623 130.238 79.0311 131.639 78.825Z" fill="#E0E0E0"/>
<path d="M133.196 76.6092C133.155 77.114 133.264 77.6196 133.511 78.0621C133.757 78.5046 134.129 78.8642 134.579 79.0955C135.03 79.3267 135.539 79.4192 136.042 79.3612C136.545 79.3033 137.02 79.0974 137.406 78.7698C137.792 78.4421 138.072 78.0074 138.211 77.5204C138.35 77.0335 138.342 76.5163 138.187 76.0341C138.033 75.5519 137.738 75.1264 137.342 74.8114C136.945 74.4964 136.464 74.306 135.96 74.2643C135.624 74.2362 135.286 74.2745 134.965 74.3772C134.645 74.4799 134.347 74.6449 134.091 74.8628C133.834 75.0807 133.623 75.3471 133.469 75.6468C133.316 75.9465 133.223 76.2735 133.196 76.6092Z" fill="#E0E0E0"/>
<path d="M119.755 76.0894C119.713 76.5941 119.823 77.0997 120.069 77.5423C120.315 77.9848 120.687 78.3444 121.138 78.5756C121.588 78.8069 122.097 78.8993 122.6 78.8414C123.104 78.7834 123.578 78.5776 123.964 78.25C124.35 77.9223 124.631 77.4875 124.77 77.0006C124.909 76.5137 124.901 75.9964 124.746 75.5142C124.591 75.032 124.297 74.6066 123.9 74.2916C123.504 73.9766 123.023 73.7862 122.518 73.7445C121.841 73.6895 121.169 73.9055 120.651 74.3452C120.133 74.7848 119.811 75.4121 119.755 76.0894Z" fill="#E0E0E0"/>
<path d="M139.825 78.823C141.226 78.6168 142.195 77.3136 141.989 75.9123C141.783 74.5109 140.48 73.5421 139.078 73.7483C137.677 73.9544 136.708 75.2576 136.914 76.659C137.121 78.0603 138.424 79.0292 139.825 78.823Z" fill="#E0E0E0"/>
<path d="M120.522 76.0797C121.598 75.159 121.724 73.5399 120.804 72.4634C119.883 71.387 118.264 71.2607 117.187 72.1813C116.111 73.102 115.985 74.7211 116.905 75.7975C117.826 76.874 119.445 77.0003 120.522 76.0797Z" fill="#E0E0E0"/>
<path d="M112.678 75.5064C112.637 76.0111 112.747 76.5167 112.993 76.9592C113.239 77.4018 113.611 77.7614 114.062 77.9926C114.512 78.2239 115.021 78.3163 115.524 78.2584C116.027 78.2004 116.502 77.9946 116.888 77.6669C117.274 77.3393 117.555 76.9045 117.694 76.4176C117.833 75.9307 117.825 75.4134 117.67 74.9312C117.515 74.449 117.221 74.0235 116.824 73.7085C116.428 73.3936 115.947 73.2032 115.442 73.1615C114.765 73.1065 114.093 73.3225 113.575 73.7622C113.057 74.2018 112.734 74.8291 112.678 75.5064Z" fill="#E0E0E0"/>
<path d="M109.75 76.1975C109.75 76.1975 110.19 86.6901 127.05 86.6901C143.911 86.6901 144.351 76.1975 144.351 76.1975H109.75Z" fill="#F0F0F0"/>
<path d="M153.972 86.6899H150.766V114.239H153.972V86.6899Z" fill="#E6E6E6"/>
<path d="M154.827 86.6899H152.939V114.239H154.827V86.6899Z" fill="#F0F0F0"/>
<path d="M140.33 86.6899H137.123V114.239H140.33V86.6899Z" fill="#E6E6E6"/>
<path d="M140.929 86.6899H139.041V114.239H140.929V86.6899Z" fill="#F0F0F0"/>
<path d="M109.89 90.0327H155.412V86.6934H109.89V90.0327Z" fill="#F0F0F0"/>
<path d="M95.9782 86.6899H92.7715V114.239H95.9782V86.6899Z" fill="#E6E6E6"/>
<path d="M96.5792 86.6899H94.6914V114.239H96.5792V86.6899Z" fill="#F0F0F0"/>
<path d="M92.1997 90.0327H108.52V86.6934H92.1997V90.0327Z" fill="#E6E6E6"/>
<path d="M109.619 86.6899H106.412V114.239H109.619V86.6899Z" fill="#E6E6E6"/>
<path d="M110.478 86.6899H108.59V114.239H110.478V86.6899Z" fill="#F0F0F0"/>
<path d="M87.2355 130C124.601 130 154.891 128.232 154.891 126.05C154.891 123.869 124.601 122.1 87.2355 122.1C49.8704 122.1 19.5801 123.869 19.5801 126.05C19.5801 128.232 49.8704 130 87.2355 130Z" fill="#F5F5F5"/>
<path d="M124.038 122.585C124.039 123.282 123.792 123.957 123.341 124.49C122.891 125.022 122.266 125.377 121.578 125.492C113.112 126.92 104.467 126.92 96.0012 125.492C95.3163 125.374 94.6952 125.017 94.2482 124.485C93.8011 123.953 93.5568 123.28 93.5586 122.585V94.3213H124.052L124.038 122.585Z" fill="#407BFF"/>
<path opacity="0.3" d="M93.541 94.8308V98.7982C95.3764 99.4787 101.403 99.9776 108.79 99.9776C116.177 99.9776 122.213 99.4787 124.038 98.7982V94.8308H93.541Z" fill="black"/>
<path d="M124.611 97.8561C124.611 98.7528 117.688 99.4786 108.79 99.4786C99.8922 99.4786 92.9693 98.7528 92.9693 97.8561L92.6797 94.3318H124.918L124.611 97.8561Z" fill="#407BFF"/>
<path d="M108.79 95.9508C117.688 95.9508 124.901 95.2259 124.901 94.3317C124.901 93.4375 117.688 92.7126 108.79 92.7126C99.8926 92.7126 92.6797 93.4375 92.6797 94.3317C92.6797 95.2259 99.8926 95.9508 108.79 95.9508Z" fill="#407BFF"/>
<path opacity="0.3" d="M108.79 95.9508C117.688 95.9508 124.901 95.2259 124.901 94.3317C124.901 93.4375 117.688 92.7126 108.79 92.7126C99.8926 92.7126 92.6797 93.4375 92.6797 94.3317C92.6797 95.2259 99.8926 95.9508 108.79 95.9508Z" fill="black"/>
<path opacity="0.2" d="M97.6321 120.596C97.3187 120.595 97.0183 120.47 96.7967 120.249C96.5751 120.027 96.4501 119.727 96.4492 119.413V103.209C96.4501 102.895 96.5751 102.595 96.7967 102.373C97.0183 102.152 97.3187 102.027 97.6321 102.026C97.9453 102.028 98.2451 102.153 98.4665 102.374C98.688 102.596 98.8132 102.896 98.815 103.209V119.413C98.8132 119.727 98.688 120.026 98.4665 120.248C98.2451 120.469 97.9453 120.594 97.6321 120.596Z" fill="black"/>
<path opacity="0.2" d="M119.952 120.596C119.639 120.595 119.339 120.47 119.117 120.249C118.895 120.027 118.77 119.727 118.77 119.413V103.209C118.77 102.895 118.895 102.595 119.117 102.373C119.339 102.152 119.639 102.027 119.952 102.026C120.266 102.028 120.565 102.153 120.787 102.374C121.008 102.596 121.133 102.896 121.135 103.209V119.413C121.133 119.727 121.008 120.026 120.787 120.248C120.565 120.469 120.266 120.594 119.952 120.596Z" fill="black"/>
<path opacity="0.2" d="M112.509 120.596C112.196 120.594 111.896 120.469 111.675 120.248C111.453 120.026 111.328 119.727 111.326 119.413V103.209C111.328 102.896 111.453 102.596 111.675 102.374C111.896 102.153 112.196 102.028 112.509 102.026C112.823 102.027 113.123 102.152 113.344 102.373C113.566 102.595 113.691 102.895 113.692 103.209V119.413C113.691 119.727 113.566 120.027 113.344 120.249C113.123 120.47 112.823 120.595 112.509 120.596Z" fill="black"/>
<path opacity="0.2" d="M105.072 120.596C104.758 120.594 104.459 120.469 104.237 120.248C104.016 120.026 103.891 119.727 103.889 119.413V103.209C103.891 102.896 104.016 102.596 104.237 102.374C104.459 102.153 104.758 102.028 105.072 102.026C105.385 102.027 105.685 102.152 105.907 102.373C106.129 102.595 106.254 102.895 106.254 103.209V119.413C106.254 119.727 106.129 120.027 105.907 120.249C105.685 120.47 105.385 120.595 105.072 120.596Z" fill="black"/>
<path d="M67.3026 29.3664C67.3026 29.6866 67.2076 29.9996 67.0297 30.2659C66.8518 30.5321 66.599 30.7397 66.3031 30.8622C66.0073 30.9848 65.6817 31.0168 65.3677 30.9543C65.0536 30.8919 64.7651 30.7377 64.5387 30.5112C64.3122 30.2848 64.158 29.9963 64.0956 29.6822C64.0331 29.3682 64.0652 29.0426 64.1877 28.7468C64.3102 28.4509 64.5178 28.1981 64.784 28.0202C65.0503 27.8423 65.3633 27.7473 65.6835 27.7473C66.1129 27.7473 66.5247 27.9179 66.8284 28.2215C67.132 28.5252 67.3026 28.937 67.3026 29.3664Z" fill="#263238"/>
<path d="M64.3818 29.6001C64.366 29.6005 64.3505 29.5965 64.3369 29.5885C64.3233 29.5804 64.3122 29.5687 64.305 29.5547C64.198 29.3581 64.1308 29.1424 64.1072 28.9199C64.0836 28.6973 64.104 28.4722 64.1673 28.2576C64.2307 28.0429 64.3357 27.8428 64.4764 27.6688C64.617 27.4947 64.7906 27.35 64.9872 27.243C65.1838 27.136 65.3995 27.0688 65.6221 27.0452C65.8446 27.0215 66.0697 27.042 66.2843 27.1053C66.499 27.1687 66.6991 27.2737 66.8732 27.4144C67.0472 27.555 67.1919 27.7286 67.2989 27.9252C67.3092 27.9457 67.3113 27.9694 67.3048 27.9914C67.2983 28.0134 67.2838 28.0321 67.264 28.0438C67.2539 28.0493 67.2429 28.0528 67.2314 28.0541C67.22 28.0553 67.2085 28.0543 67.1974 28.051C67.1864 28.0478 67.1761 28.0424 67.1672 28.0352C67.1583 28.028 67.1509 28.019 67.1454 28.0089C66.9515 27.6526 66.624 27.388 66.235 27.2731C65.846 27.1583 65.4272 27.2027 65.0709 27.3965C64.7147 27.5904 64.45 27.9179 64.3351 28.3069C64.2203 28.696 64.2647 29.1147 64.4586 29.471C64.4641 29.4811 64.4676 29.4921 64.4688 29.5035C64.47 29.515 64.469 29.5265 64.4658 29.5376C64.4625 29.5486 64.4571 29.5588 64.4499 29.5678C64.4427 29.5767 64.4338 29.5841 64.4237 29.5896C64.4107 29.5963 64.3964 29.5999 64.3818 29.6001Z" fill="#263238"/>
<path d="M62.8068 36.764C62.4914 36.7627 62.1825 36.674 61.9145 36.5078C61.6464 36.3415 61.4297 36.1043 61.2883 35.8223C61.147 35.5403 61.0866 35.2247 61.1138 34.9105C61.141 34.5963 61.2548 34.2957 61.4425 34.0422C61.5762 33.863 61.744 33.712 61.9362 33.5976C62.1284 33.4832 62.3412 33.4079 62.5625 33.3758C62.5738 33.3738 62.5854 33.3741 62.5965 33.3768C62.6076 33.3795 62.6181 33.3844 62.6273 33.3913C62.6364 33.3981 62.6441 33.4068 62.6497 33.4167C62.6554 33.4267 62.659 33.4377 62.6602 33.449C62.6632 33.4717 62.6573 33.4946 62.6436 33.5129C62.6299 33.5311 62.6095 33.5433 62.587 33.5468C62.1858 33.6055 61.8244 33.8212 61.5823 34.1465C61.3401 34.4717 61.2371 34.8798 61.2959 35.281C61.3547 35.6821 61.5704 36.0435 61.8956 36.2857C62.2208 36.5278 62.6289 36.6308 63.0301 36.572C63.0533 36.5683 63.0769 36.574 63.0959 36.5877C63.1149 36.6015 63.1276 36.6222 63.1313 36.6453C63.135 36.6684 63.1294 36.6921 63.1156 36.7111C63.1019 36.7301 63.0812 36.7428 63.058 36.7465C62.9747 36.7575 62.8908 36.7633 62.8068 36.764Z" fill="#263238"/>
<path d="M71.6045 39.4017C71.2772 39.4012 70.9571 39.3054 70.6833 39.126C70.6638 39.1131 70.6501 39.0933 70.6449 39.0705C70.6397 39.0478 70.6434 39.0239 70.6554 39.0039C70.6688 38.985 70.6889 38.9719 70.7116 38.9674C70.7343 38.9629 70.7579 38.9672 70.7775 38.9795C71.1176 39.2002 71.5314 39.2767 71.928 39.1923C72.3246 39.1079 72.6713 38.8694 72.8921 38.5293C73.1128 38.1892 73.1893 37.7754 73.1049 37.3788C73.0205 36.9823 72.782 36.6355 72.4419 36.4148C72.4225 36.4019 72.4087 36.382 72.4035 36.3593C72.3983 36.3365 72.4021 36.3127 72.414 36.2926C72.4274 36.2737 72.4475 36.2607 72.4702 36.2562C72.4929 36.2516 72.5165 36.2559 72.5361 36.2682C72.9144 36.5145 73.1796 36.9007 73.2738 37.3421C73.368 37.7835 73.2834 38.2443 73.0386 38.6235C72.9178 38.8122 72.7605 38.9748 72.5759 39.1019C72.3913 39.2289 72.1833 39.3178 71.9639 39.3633C71.8457 39.3881 71.7253 39.401 71.6045 39.4017Z" fill="#263238"/>
<path d="M64.7754 34.4155C66.0395 34.4155 67.0644 33.3906 67.0644 32.1264C67.0644 30.8622 66.0395 29.8374 64.7754 29.8374C63.5112 29.8374 62.4863 30.8622 62.4863 32.1264C62.4863 33.3906 63.5112 34.4155 64.7754 34.4155Z" fill="#263238"/>
<path d="M66.9242 37.3544C68.1097 36.1688 68.1097 34.2467 66.9242 33.0612C65.7386 31.8756 63.8165 31.8756 62.631 33.0612C61.4454 34.2467 61.4454 36.1688 62.631 37.3544C63.8165 38.5399 65.7386 38.5399 66.9242 37.3544Z" fill="#263238"/>
<path d="M65.097 42.4238C66.9509 42.4238 68.4538 40.9209 68.4538 39.067C68.4538 37.2131 66.9509 35.7102 65.097 35.7102C63.2431 35.7102 61.7402 37.2131 61.7402 39.067C61.7402 40.9209 63.2431 42.4238 65.097 42.4238Z" fill="#263238"/>
<path d="M71.7211 40.0657C72.147 38.2614 71.0295 36.4535 69.2252 36.0276C67.4209 35.6017 65.613 36.7192 65.1871 38.5235C64.7612 40.3278 65.8787 42.1358 67.683 42.5616C69.4874 42.9875 71.2953 41.87 71.7211 40.0657Z" fill="#263238"/>
<path d="M79.5872 46.22C79.5872 46.4921 79.5872 46.8376 79.6116 47.1516C79.636 47.4657 79.636 47.8007 79.657 48.1252C79.7023 48.7742 79.7477 49.4302 79.8175 50.0827C79.9431 51.3924 80.1187 52.6962 80.3444 53.9943C80.4037 54.3153 80.4561 54.6433 80.5223 54.9643L80.6759 55.7564C80.7143 55.882 80.6759 55.8576 80.627 55.8541C80.5782 55.8506 80.627 55.9169 80.8329 55.9169C81.3599 55.8641 81.8729 55.7163 82.3473 55.4808C82.6264 55.3551 82.9126 55.2191 83.1987 55.0725C83.4848 54.926 83.7744 54.7585 84.0361 54.6119L85.055 55.7878C84.812 56.0663 84.5533 56.3307 84.2804 56.5799C84.0117 56.8358 83.7273 57.0747 83.429 57.2952C83.1163 57.5305 82.7862 57.7417 82.4415 57.9268C82.0493 58.1409 81.6287 58.2983 81.1923 58.3944C80.9231 58.453 80.6475 58.4765 80.3723 58.4642C80.0364 58.4447 79.7073 58.3618 79.4023 58.2199C79.0778 58.0676 78.7889 57.8489 78.5543 57.5779C78.3529 57.3423 78.1882 57.0776 78.0658 56.7928C77.9711 56.5749 77.894 56.3496 77.8355 56.1193L77.6994 55.6099C77.6017 55.2609 77.5215 54.9294 77.4377 54.5875C77.1113 53.2157 76.8597 51.8272 76.684 50.4282C76.5968 49.7303 76.527 49.0324 76.4851 48.3171C76.4642 47.9682 76.4468 47.6192 76.4363 47.2493C76.4258 46.8795 76.4363 46.5515 76.4363 46.1362L79.5872 46.22Z" fill="#FFB573"/>
<path d="M77.8962 42.4586C80.8726 44.7371 80.754 49.0326 80.754 49.0326L75.4292 50.3062C75.4292 50.3062 73.7962 45.9863 74.4591 44.4057C75.15 42.7587 76.2213 41.1745 77.8962 42.4586Z" fill="#407BFF"/>
<path opacity="0.7" d="M77.8962 42.4586C80.8726 44.7371 80.754 49.0326 80.754 49.0326L75.4292 50.3062C75.4292 50.3062 73.7962 45.9863 74.4591 44.4057C75.15 42.7587 76.2213 41.1745 77.8962 42.4586Z" fill="white"/>
<path d="M83.8373 55.0132L84.7166 53.5337L86.9219 55.8925C86.9219 55.8925 85.3412 56.9044 83.7012 56.1821L83.8373 55.0132Z" fill="#FFB573"/>
<path d="M85.802 52.8254L88.6319 54.4934L86.9221 55.8926L84.7168 53.5338L85.802 52.8254Z" fill="#FFB573"/>
<path d="M61.2344 123.475L64.2771 123.768L66.1683 116.639L63.1221 116.346L61.2344 123.475Z" fill="#FFB573"/>
<path d="M45.6367 117.484L48.3689 118.914L51.6175 112.473L48.8853 111.042L45.6367 117.484Z" fill="#FFB573"/>
<path d="M49.0977 117.661L46.6552 115.18C46.6146 115.137 46.5593 115.11 46.5 115.105C46.4407 115.1 46.3816 115.117 46.3341 115.153L44.0905 116.803C44.0361 116.847 43.9914 116.902 43.9595 116.964C43.9276 117.026 43.909 117.094 43.9051 117.164C43.9011 117.233 43.9119 117.303 43.9366 117.368C43.9613 117.434 43.9995 117.493 44.0486 117.543C44.914 118.394 45.3746 118.761 46.4493 119.853C47.1123 120.523 48.4731 122.103 49.3873 123.032C50.3016 123.96 51.2646 123.105 50.968 122.637C49.6351 120.544 49.4118 119.228 49.328 118.164C49.3129 117.975 49.2313 117.797 49.0977 117.661Z" fill="#263238"/>
<path d="M64.7509 122.843H61.0626C60.9967 122.844 60.9327 122.866 60.8804 122.906C60.8282 122.947 60.7905 123.003 60.773 123.067L59.9844 125.966C59.9647 126.035 59.9615 126.108 59.975 126.178C59.9885 126.249 60.0183 126.315 60.0622 126.371C60.106 126.428 60.1625 126.474 60.2272 126.505C60.2919 126.536 60.3629 126.551 60.4346 126.549C61.7291 126.549 62.3432 126.549 63.9588 126.549H68.9033C70.2467 126.549 70.5293 125.192 69.971 125.066C67.4796 124.515 66.042 123.754 65.2743 123.028C65.1289 122.904 64.9423 122.838 64.7509 122.843Z" fill="#263238"/>
<path opacity="0.2" d="M66.1649 116.642L65.1913 120.317H62.0684L63.1187 116.349L66.1649 116.642Z" fill="black"/>
<path opacity="0.2" d="M48.8819 111.042L51.6176 112.476L49.9427 115.795L47.207 114.361L48.8819 111.042Z" fill="black"/>
<path d="M76.9944 42.0188C76.9944 42.0188 78.3413 42.6085 73.8261 60.4741L61.2853 59.3889C61.9378 54.3049 62.2135 51.1575 60.6816 40.4695C62.4694 40.2602 64.2699 40.1797 66.0692 40.2288C67.9767 40.2576 69.8797 40.4221 71.7639 40.7208C73.5282 41.0648 75.274 41.4981 76.9944 42.0188Z" fill="#407BFF"/>
<path opacity="0.7" d="M76.9944 42.0188C76.9944 42.0188 78.3413 42.6085 73.8261 60.4741L61.2853 59.3889C61.9378 54.3049 62.2135 51.1575 60.6816 40.4695C62.4694 40.2602 64.2699 40.1797 66.0692 40.2288C67.9767 40.2576 69.8797 40.4221 71.7639 40.7208C73.5282 41.0648 75.274 41.4981 76.9944 42.0188Z" fill="white"/>
<path d="M66.0707 40.1277C66.0707 40.1277 65.3729 40.1277 64.518 40.1277C64.012 40.9058 66.1475 43.1774 68.8622 45.4106C69.5182 43.3763 70.5511 43.3833 70.5511 43.3833L66.0707 40.1277Z" fill="white"/>
<path d="M71.762 40.6755C71.762 40.6755 72.0795 40.7209 72.8402 40.8954C73.3427 41.6735 73.6253 43.6206 72.1424 45.3164C71.5596 43.2228 70.5547 43.4112 70.5547 43.4112L71.762 40.6755Z" fill="white"/>
<path d="M67.1869 33.8643C67.3893 35.7276 67.4556 39.0983 66.0703 40.2289C66.0703 40.2289 67.5498 41.7433 70.5507 43.4112C72.728 41.9038 71.765 40.7209 71.765 40.7209C69.7621 40.0579 69.947 38.547 70.425 37.1512L67.1869 33.8643Z" fill="#FFB573"/>
<path opacity="0.2" d="M68.5095 35.2075L70.4251 37.1511C70.3076 37.4741 70.2188 37.8069 70.1599 38.1456C69.3923 37.9676 68.2757 37.1651 68.2617 36.3416C68.2751 35.9517 68.359 35.5675 68.5095 35.2075Z" fill="black"/>
<path d="M74.3821 27.7856C75.6661 28.9232 76.043 31.6937 74.8217 33.5745C74.455 31.6679 74.3075 29.7257 74.3821 27.7856Z" fill="#263238"/>
<path d="M66.7959 29.9524C66.5726 33.0195 66.4155 34.3141 67.7415 36.0832C69.7374 38.7456 73.5548 38.3443 74.6888 35.4063C75.7112 32.7578 75.9031 28.1868 73.0872 26.5747C72.4684 26.2135 71.7673 26.0171 71.051 26.0043C70.3346 25.9916 69.6269 26.1628 68.9957 26.5017C68.3644 26.8406 67.8307 27.3359 67.4455 27.94C67.0604 28.5442 66.8367 29.2371 66.7959 29.9524Z" fill="#FFB573"/>
<path d="M66.3871 32.4231C68.6552 32.3359 69.9114 29.3699 69.3426 28.1172C71.9143 29.4571 75.8084 30.5109 75.3757 28.7872C74.793 26.4598 71.9771 24.7535 68.5122 25.9957C66.5058 26.868 64.789 28.7872 66.3871 32.4231Z" fill="#263238"/>
<path d="M65.6973 32.4197C65.7942 33.0062 66.1175 33.5312 66.5976 33.8817C67.2396 34.3388 67.8259 33.8294 67.8712 33.0861C67.9131 32.4127 67.6305 31.3659 66.8767 31.2054C66.7117 31.1726 66.5411 31.1816 66.3804 31.2317C66.2197 31.2817 66.0742 31.3712 65.9569 31.4919C65.8397 31.6126 65.7545 31.7607 65.7092 31.9228C65.6638 32.0848 65.6598 32.2556 65.6973 32.4197Z" fill="#FFB573"/>
<path d="M73.8273 60.4742C73.8273 60.4742 76.6641 78.9854 75.0834 90.8771C73.8866 99.8623 66.1646 119.249 66.1646 119.249L61.1504 119.113C61.1504 119.113 66.3286 100.323 67.3999 92.9428C69.2318 80.3043 64.6432 59.6926 64.6432 59.6926L73.8273 60.4742Z" fill="#263238"/>
<path opacity="0.2" d="M68.9342 64.2671L66.2578 68.4857C67.0637 73.4877 67.5752 78.5328 67.7896 83.5947C71.5512 76.8602 69.7856 67.8297 68.9342 64.2671Z" fill="black"/>
<path d="M66.9463 119.528L60.6445 119.357L61.0284 117.33L67.5395 117.368L66.9463 119.528Z" fill="#407BFF"/>
<path d="M71.0837 60.2754C71.0837 60.2754 68.9901 80.772 64.2062 91.924C60.3365 100.927 51.1106 115.327 51.1106 115.327L47.4258 113.171C47.4258 113.171 53.3577 97.1581 56.2853 91.1563C63.428 76.4417 56.7843 64.6371 61.2856 59.4031L71.0837 60.2754Z" fill="#263238"/>
<path d="M51.5127 115.641L46.8125 113.063L47.5767 111.053L52.5839 113.879L51.5127 115.641Z" fill="#407BFF"/>
<path d="M61.1604 58.6388L60.4974 59.7135C60.4485 59.7938 60.5427 59.895 60.6893 59.9054L73.8407 61.043C73.9524 61.043 74.0536 61.0046 74.064 60.9348L74.2769 59.8217C74.2769 59.7449 74.1966 59.6716 74.0745 59.6612L61.3732 58.562C61.3341 58.5561 61.2942 58.56 61.257 58.5734C61.2199 58.5868 61.1866 58.6093 61.1604 58.6388Z" fill="#407BFF"/>
<path d="M62.7449 60.2055L62.3959 60.1776C62.3297 60.1776 62.2808 60.1322 62.2878 60.0903L62.5739 58.6457C62.5739 58.6004 62.6472 58.5725 62.7135 58.5794L63.0624 58.6073C63.1322 58.6073 63.1811 58.6527 63.1706 58.6946L62.8879 60.1392C62.874 60.1811 62.8077 60.2125 62.7449 60.2055Z" fill="#263238"/>
<path d="M72.8745 61.0811L72.5256 61.0532C72.4558 61.0532 72.407 61.0078 72.4174 60.966L72.7036 59.5214C72.7036 59.4795 72.7733 59.4481 72.8396 59.4551L73.1886 59.483C73.2549 59.483 73.3037 59.5284 73.2968 59.5702L73.0106 61.0148C73.0036 61.0637 72.9269 61.0881 72.8745 61.0811Z" fill="#263238"/>
<path d="M67.8074 60.6449L67.4584 60.6135C67.3921 60.6135 67.3433 60.5681 67.3503 60.5263L67.6364 59.0817C67.6364 59.0398 67.7062 59.0084 67.776 59.0154L68.1249 59.0468C68.1912 59.0468 68.2401 59.0921 68.2331 59.134L67.947 60.5786C67.94 60.6205 67.8772 60.6484 67.8074 60.6449Z" fill="#263238"/>
<path d="M71.6005 31.4775C71.5656 31.7253 71.6703 31.9451 71.8308 31.966C71.9913 31.987 72.1518 31.8055 72.1797 31.5578C72.2076 31.31 72.1064 31.0902 71.9459 31.0693C71.7854 31.0483 71.6319 31.2298 71.6005 31.4775Z" fill="#263238"/>
<path d="M74.4001 31.8542C74.3687 32.102 74.4734 32.3218 74.6339 32.3428C74.7944 32.3637 74.9549 32.1822 74.9828 31.9345C75.0107 31.6867 74.913 31.4669 74.7525 31.446C74.592 31.425 74.435 31.6065 74.4001 31.8542Z" fill="#263238"/>
<path d="M74.6699 31.4494L75.291 31.3586C75.291 31.3586 74.9281 31.7809 74.6699 31.4494Z" fill="#263238"/>
<path d="M73.3002 32.1265C73.4456 32.7206 73.671 33.2923 73.9702 33.8258C73.8321 33.8992 73.6798 33.9415 73.5237 33.95C73.3676 33.9584 73.2115 33.9327 73.0664 33.8746L73.3002 32.1265Z" fill="#ED893E"/>
<path d="M71.6137 34.6145C71.1229 34.4546 70.7113 34.114 70.4622 33.6619C70.4559 33.6475 70.4553 33.6312 70.4605 33.6163C70.4657 33.6015 70.4762 33.5891 70.4901 33.5817C70.5049 33.5744 70.522 33.5732 70.5377 33.5784C70.5534 33.5836 70.5664 33.5948 70.5739 33.6096C70.7289 33.8814 70.9459 34.1129 71.2072 34.285C71.4685 34.4572 71.7668 34.5653 72.0778 34.6006C72.0935 34.6006 72.1086 34.6068 72.1197 34.6179C72.1308 34.629 72.1371 34.6441 72.1371 34.6599C72.1371 34.6756 72.1308 34.6907 72.1197 34.7018C72.1086 34.7129 72.0935 34.7192 72.0778 34.7192C71.9197 34.7017 71.764 34.6666 71.6137 34.6145Z" fill="#263238"/>
<path d="M70.327 30.0432C70.3067 30.0348 70.2888 30.0216 70.2747 30.0048C70.2632 29.9937 70.254 29.9804 70.2478 29.9657C70.2415 29.9511 70.2383 29.9353 70.2383 29.9193C70.2383 29.9033 70.2415 29.8875 70.2478 29.8728C70.254 29.8582 70.2632 29.8449 70.2747 29.8338C70.4456 29.6809 70.6512 29.5718 70.8736 29.5159C71.0961 29.46 71.3288 29.4589 71.5518 29.5128C71.567 29.5172 71.5812 29.5246 71.5936 29.5345C71.6059 29.5445 71.6161 29.5569 71.6236 29.5708C71.6311 29.5848 71.6357 29.6002 71.6371 29.616C71.6386 29.6318 71.6368 29.6477 71.632 29.6628C71.6231 29.6937 71.6023 29.7199 71.5742 29.7355C71.5461 29.7512 71.513 29.7552 71.482 29.7466C71.2984 29.7057 71.1078 29.7091 70.9258 29.7564C70.7437 29.8037 70.5756 29.8937 70.4352 30.0187C70.42 30.0304 70.4024 30.0386 70.3838 30.0428C70.3651 30.047 70.3457 30.0471 70.327 30.0432Z" fill="#263238"/>
<path d="M75.5742 30.7865C75.556 30.7794 75.5394 30.7687 75.5253 30.7551C75.403 30.6115 75.2486 30.4988 75.0746 30.4261C74.9006 30.3533 74.712 30.3226 74.5239 30.3364C74.508 30.3399 74.4915 30.34 74.4755 30.3367C74.4596 30.3334 74.4445 30.3268 74.4313 30.3172C74.4181 30.3076 74.4071 30.2954 74.399 30.2812C74.3909 30.2671 74.3859 30.2514 74.3843 30.2352C74.3793 30.2033 74.3871 30.1707 74.4061 30.1445C74.425 30.1183 74.4536 30.1008 74.4855 30.0956C74.7133 30.0751 74.9427 30.1094 75.1545 30.1956C75.3664 30.2818 75.5545 30.4174 75.7033 30.5911C75.7202 30.6113 75.7302 30.6364 75.7317 30.6627C75.7332 30.689 75.7262 30.715 75.7117 30.737C75.6972 30.759 75.6759 30.7757 75.6512 30.7846C75.6264 30.7935 75.5994 30.7942 75.5742 30.7865Z" fill="#263238"/>
<path d="M78.3345 57.1138C78.5604 56.41 78.9227 55.7575 79.4008 55.1937C79.8788 54.6299 80.4632 54.1657 81.1207 53.8278C81.7781 53.4898 82.4957 53.2847 83.2324 53.224C83.9691 53.1634 84.7105 53.2485 85.4144 53.4744C86.1182 53.7003 86.7707 54.0626 87.3345 54.5407C87.8983 55.0187 88.3624 55.6032 88.7004 56.2606C89.0383 56.918 89.2435 57.6356 89.3041 58.3723C89.3648 59.109 89.2797 59.8505 89.0538 60.5543L86.8834 67.3446L76.1641 63.9006L78.3345 57.1138Z" fill="#407BFF"/>
<path opacity="0.3" d="M78.3345 57.1138C78.5604 56.41 78.9227 55.7575 79.4008 55.1937C79.8788 54.6299 80.4632 54.1657 81.1207 53.8278C81.7781 53.4898 82.4957 53.2847 83.2324 53.224C83.9691 53.1634 84.7105 53.2485 85.4144 53.4744C86.1182 53.7003 86.7707 54.0626 87.3345 54.5407C87.8983 55.0187 88.3624 55.6032 88.7004 56.2606C89.0383 56.918 89.2435 57.6356 89.3041 58.3723C89.3648 59.109 89.2797 59.8505 89.0538 60.5543L86.8834 67.3446L76.1641 63.9006L78.3345 57.1138Z" fill="black"/>
<path d="M67.7593 53.7154L65.7983 59.8218C65.7696 59.9096 65.7586 60.0021 65.7659 60.0942C65.7732 60.1862 65.7986 60.2758 65.8408 60.358C65.883 60.4401 65.9411 60.513 66.0116 60.5725C66.0822 60.632 66.1639 60.6769 66.2519 60.7047L76.1618 63.887L78.3391 57.1106C78.796 55.6905 79.7979 54.5098 81.1248 53.8281C82.4517 53.1463 83.995 53.0192 85.4156 53.4747L74.8393 50.076C73.4178 49.6215 71.8741 49.7495 70.5468 50.4318C69.2195 51.1141 68.217 52.295 67.7593 53.7154Z" fill="#407BFF"/>
<path d="M73.0756 58.3455L75.8078 49.8419C75.8172 49.8114 75.8199 49.7792 75.8158 49.7475C75.8117 49.7159 75.8008 49.6854 75.784 49.6583C75.7671 49.6312 75.7446 49.608 75.718 49.5903C75.6914 49.5726 75.6614 49.5609 75.6298 49.5558L72.8383 49.144L72.4894 50.2467L74.5237 50.8992L72.2207 58.0664L73.0756 58.3455Z" fill="#263238"/>
<path d="M71.626 57.8781C71.5629 58.0751 71.5597 58.2865 71.6166 58.4854C71.6736 58.6843 71.7882 58.8619 71.946 58.9957C72.1039 59.1295 72.2978 59.2135 72.5034 59.2372C72.7089 59.2608 72.9169 59.223 73.101 59.1285C73.285 59.034 73.437 58.8871 73.5376 58.7063C73.6383 58.5256 73.6831 58.319 73.6664 58.1128C73.6497 57.9065 73.5723 57.7099 73.4439 57.5476C73.3155 57.3854 73.1419 57.2648 72.945 57.2011C72.8139 57.1588 72.6758 57.1427 72.5385 57.1538C72.4013 57.1649 72.2675 57.203 72.145 57.2659C72.0225 57.3288 71.9136 57.4152 71.8245 57.5203C71.7354 57.6253 71.668 57.7469 71.626 57.8781Z" fill="#263238"/>
<path d="M76.6777 64.9022L90.4258 69.3162C90.4758 69.3325 90.5284 69.3387 90.5808 69.3345C90.6331 69.3303 90.6841 69.3158 90.7308 69.2918C90.7776 69.2678 90.8191 69.2348 90.8529 69.1946C90.8868 69.1545 90.9124 69.1081 90.9283 69.058C90.945 69.0081 90.9516 68.9553 90.9477 68.9028C90.9437 68.8503 90.9293 68.7991 90.9052 68.7523C90.8811 68.7055 90.8479 68.6639 90.8075 68.6301C90.7672 68.5963 90.7204 68.571 90.6701 68.5555L76.1613 63.8972C76.0965 64.099 76.1146 64.3182 76.2114 64.5066C76.3082 64.6951 76.476 64.8373 76.6777 64.9022Z" fill="#407BFF"/>
<path opacity="0.2" d="M76.6777 64.9022L82.2956 66.7062C82.3458 66.7225 82.3987 66.7287 82.4513 66.7246C82.5038 66.7205 82.5551 66.706 82.6021 66.682C82.6491 66.658 82.6909 66.625 82.7251 66.5848C82.7594 66.5447 82.7853 66.4982 82.8015 66.4479C82.8334 66.3471 82.8242 66.2377 82.7758 66.1436C82.7275 66.0495 82.6439 65.9783 82.5433 65.9455L76.1613 63.8972C76.0965 64.099 76.1146 64.3182 76.2114 64.5066C76.3082 64.6951 76.476 64.8373 76.6777 64.9022Z" fill="black"/>
<path d="M62.1592 45.3965L61.9673 45.6094L61.751 45.8571C61.6044 46.0246 61.4578 46.2061 61.3183 46.377C61.0321 46.726 60.76 47.0993 60.5052 47.4762C59.4509 48.9686 58.6209 50.6074 58.0418 52.3404C57.9022 52.7731 57.7731 53.2057 57.6719 53.6489C57.637 53.778 57.6335 53.8303 57.616 53.8897C57.6134 53.9408 57.6134 53.992 57.616 54.0432C57.6104 54.0977 57.6104 54.1527 57.616 54.2072C57.616 54.27 57.7347 54.4166 58.0208 54.5561C58.3648 54.7109 58.7271 54.8211 59.099 54.8841C59.9965 55.0268 60.9053 55.0864 61.8138 55.0621C62.7629 55.0621 63.7259 54.9783 64.689 54.8771C65.6521 54.776 66.6291 54.6503 67.5747 54.5073L67.9551 56.0182C66.0075 56.652 64.0035 57.0972 61.9708 57.3476C60.9005 57.4869 59.8184 57.5103 58.7431 57.4174C58.1284 57.3597 57.5247 57.2164 56.9496 56.9917C56.6046 56.8534 56.2805 56.6678 55.9865 56.4404C55.6403 56.1689 55.355 55.8277 55.1491 55.4389C54.7946 54.7096 54.6998 53.8811 54.8804 53.0906C54.9641 52.5567 55.0863 52.0438 55.2293 51.5064C55.5032 50.4749 55.8675 49.4696 56.318 48.5021C56.7697 47.5323 57.2959 46.5991 57.8917 45.7106C58.1918 45.2674 58.5128 44.8382 58.8478 44.416C59.0188 44.2067 59.1967 44.0008 59.3712 43.7949L59.6538 43.4913C59.755 43.3832 59.8353 43.2959 59.9749 43.1633L62.1592 45.3965Z" fill="#FFB573"/>
<path d="M66.813 54.8283L69.2556 53.5337L69.3637 56.1577C69.3637 56.1577 67.6191 56.88 66.6211 56.0844L66.813 54.8283Z" fill="#FFB573"/>
<path d="M71.2696 53.335L70.9033 55.7531L69.3679 56.1579L69.2598 53.5339L71.2696 53.335Z" fill="#FFB573"/>
<path d="M60.682 40.4765C59.1432 40.7487 56.9902 45.1592 56.9902 45.1592L60.8669 48.6486C60.8669 48.6486 63.948 45.2848 63.784 43.2819C63.6445 41.5896 62.6395 40.1276 60.682 40.4765Z" fill="#407BFF"/>
<path opacity="0.7" d="M60.682 40.4765C59.1432 40.7487 56.9902 45.1592 56.9902 45.1592L60.8669 48.6486C60.8669 48.6486 63.948 45.2848 63.784 43.2819C63.6445 41.5896 62.6395 40.1276 60.682 40.4765Z" fill="white"/>
<path d="M50.2985 119.008C50.2579 119.014 50.2169 119.014 50.1763 119.008C49.789 118.987 49.3773 118.394 49.1644 118.045C49.1578 118.035 49.1543 118.024 49.1543 118.012C49.1543 118 49.1578 117.989 49.1644 117.979C49.1708 117.969 49.1804 117.961 49.1917 117.956C49.2031 117.952 49.2155 117.951 49.2272 117.955C49.3529 117.979 50.438 118.223 50.5741 118.59C50.5883 118.629 50.5918 118.672 50.5845 118.714C50.5771 118.755 50.5592 118.794 50.5323 118.827C50.4764 118.911 50.3942 118.975 50.2985 119.008ZM49.3459 118.122C49.6564 118.6 49.9635 118.886 50.1833 118.9C50.2334 118.901 50.2829 118.889 50.3269 118.865C50.3709 118.841 50.408 118.807 50.4346 118.764C50.4496 118.749 50.4599 118.729 50.4643 118.708C50.4686 118.687 50.4668 118.665 50.459 118.645C50.3752 118.422 49.7227 118.213 49.3459 118.122Z" fill="#407BFF"/>
<path d="M50.1872 118.045C49.8654 118.134 49.5278 118.148 49.1997 118.087C49.1894 118.084 49.1801 118.078 49.1728 118.07C49.1655 118.062 49.1603 118.052 49.1578 118.042C49.1529 118.033 49.1504 118.022 49.1504 118.012C49.1504 118.002 49.1529 117.992 49.1578 117.982C49.1857 117.958 49.8208 117.337 50.264 117.368C50.3187 117.369 50.3725 117.383 50.421 117.408C50.4695 117.434 50.5114 117.47 50.5431 117.515C50.5812 117.556 50.6047 117.608 50.6097 117.664C50.6148 117.719 50.6012 117.775 50.571 117.822C50.4708 117.936 50.336 118.015 50.1872 118.045ZM49.3463 117.989C49.6952 118.038 50.3477 117.951 50.4838 117.752C50.5047 117.721 50.5222 117.672 50.4594 117.592C50.4383 117.561 50.4102 117.536 50.3774 117.518C50.3446 117.501 50.3081 117.491 50.2709 117.49C49.9674 117.47 49.5277 117.825 49.3463 117.989Z" fill="#407BFF"/>
<path d="M66.0524 123.311C65.715 123.303 65.3794 123.259 65.051 123.182C65.0395 123.178 65.0296 123.17 65.0225 123.16C65.0155 123.15 65.0117 123.138 65.0117 123.126C65.0117 123.114 65.0155 123.102 65.0225 123.092C65.0296 123.082 65.0395 123.074 65.051 123.07C65.201 122.997 66.5375 122.372 66.8724 122.609C66.9026 122.63 66.9267 122.658 66.9421 122.692C66.9574 122.725 66.9635 122.761 66.9597 122.798C66.9581 122.866 66.9409 122.933 66.9094 122.993C66.878 123.054 66.8331 123.106 66.7782 123.147C66.5593 123.276 66.3056 123.333 66.0524 123.311ZM65.2604 123.101C65.6547 123.175 66.3874 123.272 66.691 123.046C66.7299 123.015 66.7619 122.976 66.7847 122.932C66.8076 122.889 66.8208 122.84 66.8236 122.791C66.8266 122.776 66.8249 122.76 66.8187 122.745C66.8125 122.731 66.802 122.719 66.7887 122.711C66.6003 122.581 65.8117 122.857 65.2499 123.101H65.2604Z" fill="#407BFF"/>
<path d="M65.0623 123.175C65.0497 123.178 65.0365 123.178 65.0239 123.175C65.0155 123.167 65.0092 123.157 65.0055 123.146C65.0019 123.135 65.001 123.123 65.003 123.112C65.003 123.056 65.3205 121.741 66.0498 121.824C66.2312 121.849 66.2801 121.936 66.2906 122.009C66.3359 122.358 65.495 123.018 65.0937 123.185L65.0623 123.175ZM65.9765 121.929C65.5159 121.929 65.2472 122.697 65.1565 123.004C65.5927 122.774 66.2033 122.226 66.1649 122.013C66.1649 121.995 66.1649 121.947 66.0289 121.933L65.9765 121.929Z" fill="#407BFF"/>
<path d="M71.8809 31.0727L72.4985 30.9819C72.4985 30.9819 72.1321 31.4042 71.8809 31.0727Z" fill="#263238"/>
<path d="M93.3496 60.265L79.8388 63.0565C79.6077 63.0999 79.3689 63.0512 79.1732 62.9208C78.9776 62.7904 78.8408 62.5886 78.792 62.3587L78.1604 59.4276L77.9336 58.3459L78.3314 57.1106C78.3867 56.9333 78.4532 56.7597 78.5303 56.5907C78.539 56.5639 78.5507 56.5381 78.5652 56.514C78.788 56.0056 79.0882 55.5348 79.455 55.1182L80.1528 54.9717L91.7375 52.5675C91.9686 52.5241 92.2075 52.5728 92.4031 52.7032C92.5987 52.8336 92.7355 53.0354 92.7844 53.2653L94.0161 59.1973C94.0665 59.427 94.025 59.6674 93.9005 59.867C93.7759 60.0665 93.5782 60.2094 93.3496 60.265Z" fill="#407BFF"/>
<path opacity="0.3" d="M92.6798 52.9514L86.1616 59.5812L84.7659 59.0159L79.3364 56.8141L78.5723 56.5035C78.7951 55.9952 79.0953 55.5244 79.4621 55.1078L80.1599 54.9612L91.7446 52.5571C91.9221 52.5216 92.1061 52.5403 92.2728 52.6106C92.4395 52.6809 92.5813 52.7996 92.6798 52.9514Z" fill="black"/>
<path d="M92.6795 52.9513L84.7656 59.0263L84.2492 59.4241L79.2769 56.9571L78.5371 56.6082C78.5458 56.5813 78.5575 56.5556 78.572 56.5314C78.7949 56.0231 79.095 55.5523 79.4618 55.1356L80.1597 54.9891L91.7444 52.5849C91.919 52.5466 92.1011 52.561 92.2675 52.6262C92.434 52.6915 92.5774 52.8046 92.6795 52.9513Z" fill="#407BFF"/>
<path opacity="0.2" d="M92.6795 52.9513L84.7656 59.0263L84.2492 59.4241L79.2769 56.9571L78.5371 56.6082C78.5458 56.5813 78.5575 56.5556 78.572 56.5314C78.7949 56.0231 79.095 55.5523 79.4618 55.1356L80.1597 54.9891L91.7444 52.5849C91.919 52.5466 92.1011 52.561 92.2675 52.6262C92.434 52.6915 92.5774 52.8046 92.6795 52.9513Z" fill="white"/>
<path d="M109.844 72.5023L105.726 76.9408C105.564 77.1138 105.34 77.2157 105.102 77.2242C104.865 77.2327 104.634 77.1471 104.46 76.9862L94.3615 67.5823C94.1877 67.4203 94.0853 67.1959 94.0767 66.9584C94.0682 66.7209 94.1543 66.4897 94.3162 66.3157L98.4476 61.8772C98.5276 61.7902 98.6241 61.7199 98.7315 61.6705C98.8389 61.621 98.955 61.5934 99.0732 61.5892C99.1913 61.585 99.3091 61.6042 99.4198 61.6459C99.5304 61.6875 99.6317 61.7507 99.7177 61.8318L109.812 71.2357C109.943 71.3574 110.035 71.5154 110.075 71.6895C110.116 71.8636 110.103 72.0458 110.039 72.2127C109.996 72.3221 109.929 72.4209 109.844 72.5023Z" fill="#407BFF"/>
<path opacity="0.3" d="M110.025 72.2301L100.841 70.7332L98.709 61.6608C98.8717 61.5859 99.053 61.5608 99.23 61.5887C99.407 61.6167 99.5717 61.6964 99.7034 61.8179L109.798 71.2217C109.935 71.3458 110.031 71.5094 110.072 71.69C110.112 71.8705 110.096 72.0592 110.025 72.2301Z" fill="black"/>
<path d="M110.025 72.2302L101.082 69.5644L98.709 61.6923C98.8717 61.6174 99.053 61.5923 99.23 61.6202C99.407 61.6482 99.5717 61.7279 99.7034 61.8494L109.798 71.2532C109.929 71.3749 110.021 71.533 110.061 71.707C110.101 71.8811 110.089 72.0633 110.025 72.2302Z" fill="#407BFF"/>
<path opacity="0.2" d="M110.025 72.2302L101.082 69.5644L98.709 61.6923C98.8717 61.6174 99.053 61.5923 99.23 61.6202C99.407 61.6482 99.5717 61.7279 99.7034 61.8494L109.798 71.2532C109.929 71.3749 110.021 71.533 110.061 71.707C110.101 71.8811 110.089 72.0633 110.025 72.2302Z" fill="white"/>
<path d="M113.434 79.8126L117.97 85.1094C118.057 85.2108 118.122 85.3287 118.161 85.4561C118.201 85.5834 118.214 85.7175 118.2 85.8501C118.186 85.9827 118.145 86.111 118.08 86.2273C118.014 86.3435 117.926 86.4452 117.82 86.5261L107.966 94.2027C107.8 94.3024 107.604 94.337 107.414 94.2995C107.224 94.2621 107.055 94.1555 106.94 94.0004L103.391 89.9527C103.325 89.8749 103.269 89.7879 103.227 89.6945C103.161 89.5661 103.134 89.4215 103.148 89.2779C103.162 89.1343 103.218 88.9979 103.308 88.8849L112.031 79.7742C112.167 79.6267 112.347 79.5268 112.544 79.4891C112.742 79.4514 112.946 79.478 113.127 79.5648C113.244 79.6272 113.348 79.7113 113.434 79.8126Z" fill="#407BFF"/>
<path opacity="0.3" d="M113.128 79.5751L110.961 89.2128L103.243 89.7048C103.177 89.5764 103.15 89.4318 103.164 89.2882C103.178 89.1446 103.233 89.0082 103.323 88.8952L112.047 79.7845C112.182 79.64 112.359 79.542 112.554 79.5044C112.748 79.4668 112.949 79.4916 113.128 79.5751Z" fill="black"/>
<path d="M113.127 79.5752L109.495 89.8026L103.235 89.7049C103.169 89.5765 103.142 89.4318 103.156 89.2883C103.17 89.1447 103.226 89.0083 103.315 88.8953L112.039 79.7846C112.175 79.6386 112.353 79.5396 112.549 79.502C112.745 79.4644 112.947 79.49 113.127 79.5752Z" fill="#407BFF"/>
<path opacity="0.2" d="M113.127 79.5752L109.495 89.8026L103.235 89.7049C103.169 89.5765 103.142 89.4318 103.156 89.2883C103.17 89.1447 103.226 89.0083 103.315 88.8953L112.039 79.7846C112.175 79.6386 112.353 79.5396 112.549 79.502C112.745 79.4644 112.947 79.49 113.127 79.5752Z" fill="white"/>
</svg>
