<svg width="31" height="30" viewBox="0 0 31 30" fill="none" xmlns="http://www.w3.org/2000/svg">
<path d="M22.5 5C22.7652 5 23.0196 5.10536 23.2071 5.29289C23.3946 5.48043 23.5 5.73478 23.5 6V9.757L14.501 18.757L14.495 22.995L18.741 23.001L23.5 18.242V24C23.5 24.2652 23.3946 24.5196 23.2071 24.7071C23.0196 24.8946 22.7652 25 22.5 25H6.5C6.23478 25 5.98043 24.8946 5.79289 24.7071C5.60536 24.5196 5.5 24.2652 5.5 24V6C5.5 5.73478 5.60536 5.48043 5.79289 5.29289C5.98043 5.10536 6.23478 5 6.5 5H22.5ZM24.278 11.808L25.692 13.222L17.914 21L16.498 20.998L16.5 19.586L24.278 11.808ZM14.5 15H9.5V17H14.5V15ZM17.5 11H9.5V13H17.5V11Z" fill="#FFC107"/>
</svg>
