<svg width="31" height="30" viewBox="0 0 31 30" fill="none" xmlns="http://www.w3.org/2000/svg">
<path d="M5.1875 7.49992H3.3125C3.06386 7.49992 2.8254 7.40115 2.64959 7.22533C2.47377 7.04952 2.375 6.81106 2.375 6.56242C2.375 6.31378 2.47377 6.07533 2.64959 5.89951C2.8254 5.72369 3.06386 5.62492 3.3125 5.62492H10.8125V2.81055C10.8125 2.56191 10.9113 2.32345 11.0871 2.14763C11.2629 1.97182 11.5014 1.87305 11.75 1.87305H19.25C19.4986 1.87305 19.7371 1.97182 19.9129 2.14763C20.0887 2.32345 20.1875 2.56191 20.1875 2.81055V5.62492H27.6875C27.9361 5.62492 28.1746 5.72369 28.3504 5.89951C28.5262 6.07533 28.625 6.31378 28.625 6.56242C28.625 6.81106 28.5262 7.04952 28.3504 7.22533C28.1746 7.40115 27.9361 7.49992 27.6875 7.49992H25.8125V27.1874C25.8125 27.4361 25.7137 27.6745 25.5379 27.8503C25.3621 28.0262 25.1236 28.1249 24.875 28.1249H6.125C5.87636 28.1249 5.6379 28.0262 5.46209 27.8503C5.28627 27.6745 5.1875 27.4361 5.1875 27.1874V7.49992ZM18.3125 5.62492V3.74992H12.6875V5.62492H18.3125ZM7.0625 26.2499H23.9375V7.49992H7.0625V26.2499ZM12.6875 22.4999C12.4389 22.4999 12.2004 22.4012 12.0246 22.2253C11.8488 22.0495 11.75 21.8111 11.75 21.5624V12.1874C11.75 11.9388 11.8488 11.7003 12.0246 11.5245C12.2004 11.3487 12.4389 11.2499 12.6875 11.2499C12.9361 11.2499 13.1746 11.3487 13.3504 11.5245C13.5262 11.7003 13.625 11.9388 13.625 12.1874V21.5624C13.625 21.8111 13.5262 22.0495 13.3504 22.2253C13.1746 22.4012 12.9361 22.4999 12.6875 22.4999ZM18.3125 22.4999C18.0639 22.4999 17.8254 22.4012 17.6496 22.2253C17.4738 22.0495 17.375 21.8111 17.375 21.5624V12.1874C17.375 11.9388 17.4738 11.7003 17.6496 11.5245C17.8254 11.3487 18.0639 11.2499 18.3125 11.2499C18.5611 11.2499 18.7996 11.3487 18.9754 11.5245C19.1512 11.7003 19.25 11.9388 19.25 12.1874V21.5624C19.25 21.8111 19.1512 22.0495 18.9754 22.2253C18.7996 22.4012 18.5611 22.4999 18.3125 22.4999Z" fill="#EF4444"/>
</svg>
