<svg width="20" height="20" viewBox="0 0 20 20" fill="none" xmlns="http://www.w3.org/2000/svg">
<path d="M10.3336 12.3335C11.5609 12.3335 12.5559 11.3386 12.5559 10.1113C12.5559 8.88393 11.5609 7.88898 10.3336 7.88898C9.10628 7.88898 8.11133 8.88393 8.11133 10.1113C8.11133 11.3386 9.10628 12.3335 10.3336 12.3335Z" fill="#023887"/>
<path d="M18.6336 9.92239C17.9801 8.23215 16.8457 6.77042 15.3706 5.71787C13.8954 4.66533 12.1442 4.0681 10.3333 4C8.52246 4.0681 6.77123 4.66533 5.29608 5.71787C3.82094 6.77042 2.68654 8.23215 2.0331 9.92239C1.98897 10.0445 1.98897 10.1781 2.0331 10.3002C2.68654 11.9904 3.82094 13.4521 5.29608 14.5047C6.77123 15.5572 8.52246 16.1545 10.3333 16.2226C12.1442 16.1545 13.8954 15.5572 15.3706 14.5047C16.8457 13.4521 17.9801 11.9904 18.6336 10.3002C18.6777 10.1781 18.6777 10.0445 18.6336 9.92239ZM10.3333 13.7225C9.6191 13.7225 8.92091 13.5107 8.32705 13.1139C7.73319 12.7171 7.27033 12.1531 6.99701 11.4932C6.72368 10.8334 6.65217 10.1073 6.79151 9.40677C6.93085 8.70626 7.27478 8.06281 7.77982 7.55777C8.28486 7.05273 8.92831 6.7088 9.62882 6.56946C10.3293 6.43012 11.0554 6.50163 11.7153 6.77496C12.3751 7.04828 12.9391 7.51114 13.3359 8.105C13.7328 8.69886 13.9445 9.39705 13.9445 10.1113C13.9431 11.0686 13.5621 11.9863 12.8852 12.6632C12.2083 13.3401 11.2906 13.721 10.3333 13.7225Z" fill="#023887"/>
</svg>
