<svg width="60" height="60" viewBox="0 0 60 60" fill="none" xmlns="http://www.w3.org/2000/svg">
<rect width="60" height="60" rx="12" fill="#F4F4F5"/>
<path d="M30.5014 33.5004C32.3424 33.5004 33.8348 32.0079 33.8348 30.1669C33.8348 28.3259 32.3424 26.8335 30.5014 26.8335C28.6604 26.8335 27.168 28.3259 27.168 30.1669C27.168 32.0079 28.6604 33.5004 30.5014 33.5004Z" fill="#023887"/>
<path d="M42.9504 29.8836C41.9702 27.3482 40.2686 25.1556 38.0559 23.5768C35.8432 21.998 33.2163 21.1021 30.5 21C27.7837 21.1021 25.1568 21.998 22.9441 23.5768C20.7314 25.1556 19.0298 27.3482 18.0496 29.8836C17.9835 30.0667 17.9835 30.2672 18.0496 30.4503C19.0298 32.9856 20.7314 35.1782 22.9441 36.757C25.1568 38.3359 27.7837 39.2317 30.5 39.3339C33.2163 39.2317 35.8432 38.3359 38.0559 36.757C40.2686 35.1782 41.9702 32.9856 42.9504 30.4503C43.0166 30.2672 43.0166 30.0667 42.9504 29.8836ZM30.5 35.5837C29.4287 35.5837 28.3814 35.2661 27.4906 34.6708C26.5998 34.0756 25.9055 33.2296 25.4955 32.2399C25.0855 31.2501 24.9783 30.1609 25.1873 29.1102C25.3963 28.0594 25.9122 27.0942 26.6697 26.3367C27.4273 25.5791 28.3925 25.0632 29.4432 24.8542C30.494 24.6452 31.5831 24.7525 32.5729 25.1624C33.5627 25.5724 34.4087 26.2667 35.0039 27.1575C35.5991 28.0483 35.9168 29.0956 35.9168 30.1669C35.9146 31.6029 35.3432 32.9794 34.3278 33.9948C33.3125 35.0101 31.936 35.5815 30.5 35.5837Z" fill="#023887"/>
</svg>
