<svg width="60" height="60" viewBox="0 0 60 60" fill="none" xmlns="http://www.w3.org/2000/svg">
<rect width="60" height="60" rx="12" fill="#F4F4F5"/>
<path d="M20 41.25H21.25V25H20C19.337 25 18.7011 25.2634 18.2322 25.7322C17.7634 26.2011 17.5 26.837 17.5 27.5V38.75C17.5 39.413 17.7634 40.0489 18.2322 40.5178C18.7011 40.9866 19.337 41.25 20 41.25ZM40 25H31.25L32.6525 20.79C32.7776 20.4143 32.8117 20.0142 32.752 19.6227C32.6922 19.2312 32.5403 18.8595 32.3087 18.5382C32.0772 18.217 31.7726 17.9553 31.4201 17.7748C31.0676 17.5943 30.6773 17.5001 30.2812 17.5H30L23.75 24.2975V41.25H37.5L42.39 30.505L42.5 30V27.5C42.5 26.837 42.2366 26.2011 41.7678 25.7322C41.2989 25.2634 40.663 25 40 25Z" fill="#019FE7"/>
</svg>
