<svg width="60" height="60" viewBox="0 0 60 60" fill="none" xmlns="http://www.w3.org/2000/svg">
<rect width="60" height="60" rx="12" fill="#F4F4F5"/>
<path d="M37 20C37.2652 20 37.5196 20.1054 37.7071 20.2929C37.8946 20.4804 38 20.7348 38 21V24.757L29.001 33.757L28.995 37.995L33.241 38.001L38 33.242V39C38 39.2652 37.8946 39.5196 37.7071 39.7071C37.5196 39.8946 37.2652 40 37 40H21C20.7348 40 20.4804 39.8946 20.2929 39.7071C20.1054 39.5196 20 39.2652 20 39V21C20 20.7348 20.1054 20.4804 20.2929 20.2929C20.4804 20.1054 20.7348 20 21 20H37ZM38.778 26.808L40.192 28.222L32.414 36L30.998 35.998L31 34.586L38.778 26.808ZM29 30H24V32H29V30ZM32 26H24V28H32V26Z" fill="#F97316"/>
</svg>
